  0
SECTION
  2
HEADER
  9
$ACADVER
  1
AC1032
  9
$ACADMAINTVER
 90
      197
  9
$DWGCODEPAGE
  3
ANSI_1252
  9
$REQUIREDVERSIONS
160
                 0
  9
$INSBASE
 10
0.0
 20
0.0
 30
0.0
  9
$EXTMIN
 10
1.000000000000000E+20
 20
1.000000000000000E+20
 30
1.000000000000000E+20
  9
$EXTMAX
 10
-1.000000000000000E+20
 20
-1.000000000000000E+20
 30
-1.000000000000000E+20
  9
$LIMMIN
 10
0.0
 20
0.0
  9
$LIMMAX
 10
12.0
 20
9.0
  9
$ORTHOMODE
 70
     0
  9
$REGENMODE
 70
     1
  9
$FILLMODE
 70
     1
  9
$QTEXTMODE
 70
     0
  9
$MIRRTEXT
 70
     0
  9
$LTSCALE
 40
1.0
  9
$ATTMODE
 70
     1
  9
$TEXTSIZE
 40
0.2
  9
$TRACEWID
 40
0.05
  9
$TEXTSTYLE
  7
Standard
  9
$CLAYER
  8
0
  9
$CELTYPE
  6
ByLayer
  9
$CECOLOR
 62
   256
  9
$CELTSCALE
 40
1.0
  9
$DISPSILH
 70
     0
  9
$DIMSCALE
 40
1.0
  9
$DIMASZ
 40
0.18
  9
$DIMEXO
 40
0.0625
  9
$DIMDLI
 40
0.38
  9
$DIMRND
 40
0.0
  9
$DIMDLE
 40
0.0
  9
$DIMEXE
 40
0.18
  9
$DIMTP
 40
0.0
  9
$DIMTM
 40
0.0
  9
$DIMTXT
 40
0.18
  9
$DIMCEN
 40
0.09
  9
$DIMTSZ
 40
0.0
  9
$DIMTOL
 70
     0
  9
$DIMLIM
 70
     0
  9
$DIMTIH
 70
     1
  9
$DIMTOH
 70
     1
  9
$DIMSE1
 70
     0
  9
$DIMSE2
 70
     0
  9
$DIMTAD
 70
     0
  9
$DIMZIN
 70
     0
  9
$DIMBLK
  1

  9
$DIMASO
 70
     1
  9
$DIMSHO
 70
     1
  9
$DIMPOST
  1

  9
$DIMAPOST
  1

  9
$DIMALT
 70
     0
  9
$DIMALTD
 70
     2
  9
$DIMALTF
 40
25.4
  9
$DIMLFAC
 40
1.0
  9
$DIMTOFL
 70
     0
  9
$DIMTVP
 40
0.0
  9
$DIMTIX
 70
     0
  9
$DIMSOXD
 70
     0
  9
$DIMSAH
 70
     0
  9
$DIMBLK1
  1

  9
$DIMBLK2
  1

  9
$DIMSTYLE
  2
Standard
  9
$DIMCLRD
 70
     0
  9
$DIMCLRE
 70
     0
  9
$DIMCLRT
 70
     0
  9
$DIMTFAC
 40
1.0
  9
$DIMGAP
 40
0.09
  9
$DIMJUST
 70
     0
  9
$DIMSD1
 70
     0
  9
$DIMSD2
 70
     0
  9
$DIMTOLJ
 70
     1
  9
$DIMTZIN
 70
     0
  9
$DIMALTZ
 70
     0
  9
$DIMALTTZ
 70
     0
  9
$DIMUPT
 70
     0
  9
$DIMDEC
 70
     4
  9
$DIMTDEC
 70
     4
  9
$DIMALTU
 70
     2
  9
$DIMALTTD
 70
     2
  9
$DIMTXSTY
  7
Standard
  9
$DIMAUNIT
 70
     0
  9
$DIMADEC
 70
     0
  9
$DIMALTRND
 40
0.0
  9
$DIMAZIN
 70
     0
  9
$DIMDSEP
 70
    46
  9
$DIMATFIT
 70
     3
  9
$DIMFRAC
 70
     0
  9
$DIMLDRBLK
  1

  9
$DIMLUNIT
 70
     2
  9
$DIMLWD
 70
    -2
  9
$DIMLWE
 70
    -2
  9
$DIMTMOVE
 70
     0
  9
$DIMFXL
 40
1.0
  9
$DIMFXLON
 70
     0
  9
$DIMJOGANG
 40
0.7853981633974483
  9
$DIMTFILL
 70
     0
  9
$DIMTFILLCLR
 70
     0
  9
$DIMARCSYM
 70
     0
  9
$DIMLTYPE
  6

  9
$DIMLTEX1
  6

  9
$DIMLTEX2
  6

  9
$DIMTXTDIRECTION
 70
     0
  9
$LUNITS
 70
     2
  9
$LUPREC
 70
     4
  9
$SKETCHINC
 40
0.1
  9
$FILLETRAD
 40
0.0
  9
$AUNITS
 70
     0
  9
$AUPREC
 70
     0
  9
$MENU
  1
.
  9
$ELEVATION
 40
0.0
  9
$PELEVATION
 40
0.0
  9
$THICKNESS
 40
0.0
  9
$LIMCHECK
 70
     0
  9
$CHAMFERA
 40
0.0
  9
$CHAMFERB
 40
0.0
  9
$CHAMFERC
 40
0.0
  9
$CHAMFERD
 40
0.0
  9
$SKPOLY
 70
     0
  9
$TDCREATE
 40
2459709.597442130
  9
$TDUCREATE
 40
2459709.514108796
  9
$TDUPDATE
 40
2459709.597442130
  9
$TDUUPDATE
 40
2459709.514108796
  9
$TDINDWG
 40
0.0000000000
  9
$TDUSRTIMER
 40
0.0000000000
  9
$USRTIMER
 70
     1
  9
$ANGBASE
 50
0.0
  9
$ANGDIR
 70
     0
  9
$PDMODE
 70
     0
  9
$PDSIZE
 40
0.0
  9
$PLINEWID
 40
0.0
  9
$SPLFRAME
 70
     0
  9
$SPLINETYPE
 70
     6
  9
$SPLINESEGS
 70
     8
  9
$HANDSEED
  5
CE
  9
$SURFTAB1
 70
     6
  9
$SURFTAB2
 70
     6
  9
$SURFTYPE
 70
     6
  9
$SURFU
 70
     6
  9
$SURFV
 70
     6
  9
$UCSBASE
  2

  9
$UCSNAME
  2

  9
$UCSORG
 10
0.0
 20
0.0
 30
0.0
  9
$UCSXDIR
 10
1.0
 20
0.0
 30
0.0
  9
$UCSYDIR
 10
0.0
 20
1.0
 30
0.0
  9
$UCSORTHOREF
  2

  9
$UCSORTHOVIEW
 70
     0
  9
$UCSORGTOP
 10
0.0
 20
0.0
 30
0.0
  9
$UCSORGBOTTOM
 10
0.0
 20
0.0
 30
0.0
  9
$UCSORGLEFT
 10
0.0
 20
0.0
 30
0.0
  9
$UCSORGRIGHT
 10
0.0
 20
0.0
 30
0.0
  9
$UCSORGFRONT
 10
0.0
 20
0.0
 30
0.0
  9
$UCSORGBACK
 10
0.0
 20
0.0
 30
0.0
  9
$PUCSBASE
  2

  9
$PUCSNAME
  2

  9
$PUCSORG
 10
0.0
 20
0.0
 30
0.0
  9
$PUCSXDIR
 10
1.0
 20
0.0
 30
0.0
  9
$PUCSYDIR
 10
0.0
 20
1.0
 30
0.0
  9
$PUCSORTHOREF
  2

  9
$PUCSORTHOVIEW
 70
     0
  9
$PUCSORGTOP
 10
0.0
 20
0.0
 30
0.0
  9
$PUCSORGBOTTOM
 10
0.0
 20
0.0
 30
0.0
  9
$PUCSORGLEFT
 10
0.0
 20
0.0
 30
0.0
  9
$PUCSORGRIGHT
 10
0.0
 20
0.0
 30
0.0
  9
$PUCSORGFRONT
 10
0.0
 20
0.0
 30
0.0
  9
$PUCSORGBACK
 10
0.0
 20
0.0
 30
0.0
  9
$USERI1
 70
     0
  9
$USERI2
 70
     0
  9
$USERI3
 70
     0
  9
$USERI4
 70
     0
  9
$USERI5
 70
     0
  9
$USERR1
 40
0.0
  9
$USERR2
 40
0.0
  9
$USERR3
 40
0.0
  9
$USERR4
 40
0.0
  9
$USERR5
 40
0.0
  9
$WORLDVIEW
 70
     1
  9
$SHADEDGE
 70
     3
  9
$SHADEDIF
 70
    70
  9
$TILEMODE
 70
     1
  9
$MAXACTVP
 70
    64
  9
$PINSBASE
 10
0.0
 20
0.0
 30
0.0
  9
$PLIMCHECK
 70
     0
  9
$PEXTMIN
 10
1.000000000000000E+20
 20
1.000000000000000E+20
 30
1.000000000000000E+20
  9
$PEXTMAX
 10
-1.000000000000000E+20
 20
-1.000000000000000E+20
 30
-1.000000000000000E+20
  9
$PLIMMIN
 10
0.0
 20
0.0
  9
$PLIMMAX
 10
12.0
 20
9.0
  9
$UNITMODE
 70
     0
  9
$VISRETAIN
 70
     1
  9
$PLINEGEN
 70
     0
  9
$PSLTSCALE
 70
     1
  9
$TREEDEPTH
 70
  3020
  9
$CMLSTYLE
  2
Standard
  9
$CMLJUST
 70
     0
  9
$CMLSCALE
 40
1.0
  9
$PROXYGRAPHICS
 70
     1
  9
$MEASUREMENT
 70
     0
  9
$CELWEIGHT
370
    -1
  9
$ENDCAPS
280
     0
  9
$JOINSTYLE
280
     0
  9
$LWDISPLAY
290
     1
  9
$INSUNITS
 70
     4
  9
$HYPERLINKBASE
  1

  9
$STYLESHEET
  1

  9
$XEDIT
290
     1
  9
$CEPSNTYPE
380
     0
  9
$PSTYLEMODE
290
     1
  9
$FINGERPRINTGUID
  2
{A9C415F3-9B0B-D64D-838D-019730558858}
  9
$VERSIONGUID
  2
{B75C5AE0-A74F-9545-8DA1-03B3CF4E1DB5}
  9
$EXTNAMES
290
     1
  9
$PSVPSCALE
 40
0.0
  9
$OLESTARTUP
290
     0
  9
$SORTENTS
280
   127
  9
$INDEXCTL
280
     0
  9
$HIDETEXT
280
     1
  9
$XCLIPFRAME
280
     2
  9
$HALOGAP
280
     0
  9
$OBSCOLOR
 70
   257
  9
$OBSLTYPE
280
     0
  9
$INTERSECTIONDISPLAY
280
     0
  9
$INTERSECTIONCOLOR
 70
   257
  9
$DIMASSOC
280
     2
  9
$PROJECTNAME
  1

  9
$CAMERADISPLAY
290
     0
  9
$LENSLENGTH
 40
50.0
  9
$CAMERAHEIGHT
 40
0.0
  9
$STEPSPERSEC
 40
2.0
  9
$STEPSIZE
 40
6.0
  9
$3DDWFPREC
 40
2.0
  9
$PSOLWIDTH
 40
0.25
  9
$PSOLHEIGHT
 40
4.0
  9
$LOFTANG1
 40
1.570796326794896
  9
$LOFTANG2
 40
1.570796326794896
  9
$LOFTMAG1
 40
0.0
  9
$LOFTMAG2
 40
0.0
  9
$LOFTPARAM
 70
     7
  9
$LOFTNORMALS
280
     1
  9
$LATITUDE
 40
37.795
  9
$LONGITUDE
 40
-122.394
  9
$NORTHDIRECTION
 40
0.0
  9
$TIMEZONE
 70
 -8000
  9
$LIGHTGLYPHDISPLAY
280
     1
  9
$TILEMODELIGHTSYNCH
280
     1
  9
$CMATERIAL
347
11
  9
$SOLIDHIST
280
     0
  9
$SHOWHIST
280
     1
  9
$DWFFRAME
280
     2
  9
$DGNFRAME
280
     0
  9
$REALWORLDSCALE
290
     1
  9
$INTERFERECOLOR
 62
     1
  9
$INTERFEREOBJVS
345
33
  9
$INTERFEREVPVS
346
30
  9
$CSHADOW
280
     0
  9
$SHADOWPLANELOCATION
 40
0.0
  0
ENDSEC
  0
SECTION
  2
CLASSES
  0
CLASS
  1
ACDBDICTIONARYWDFLT
  2
AcDbDictionaryWithDefault
  3
ObjectDBX Classes
 90
        0
 91
        1
280
     0
281
     0
  0
CLASS
  1
MATERIAL
  2
AcDbMaterial
  3
ObjectDBX Classes
 90
     1153
 91
        3
280
     0
281
     0
  0
CLASS
  1
VISUALSTYLE
  2
AcDbVisualStyle
  3
ObjectDBX Classes
 90
     4095
 91
       24
280
     0
281
     0
  0
CLASS
  1
SCALE
  2
AcDbScale
  3
ObjectDBX Classes
 90
     1153
 91
       17
280
     0
281
     0
  0
CLASS
  1
TABLESTYLE
  2
AcDbTableStyle
  3
ObjectDBX Classes
 90
     4095
 91
        1
280
     0
281
     0
  0
CLASS
  1
MLEADERSTYLE
  2
AcDbMLeaderStyle
  3
ACDB_MLEADERSTYLE_CLASS
 90
     4095
 91
        1
280
     0
281
     0
  0
CLASS
  1
ACDBSECTIONVIEWSTYLE
  2
AcDbSectionViewStyle
  3
ObjectDBX Classes
 90
     1025
 91
        1
280
     0
281
     0
  0
CLASS
  1
ACDBDETAILVIEWSTYLE
  2
AcDbDetailViewStyle
  3
ObjectDBX Classes
 90
     1025
 91
        1
280
     0
281
     0
  0
CLASS
  1
DICTIONARYVAR
  2
AcDbDictionaryVar
  3
ObjectDBX Classes
 90
        0
 91
        5
280
     0
281
     0
  0
CLASS
  1
CELLSTYLEMAP
  2
AcDbCellStyleMap
  3
ObjectDBX Classes
 90
     1152
 91
        1
280
     0
281
     0
  0
ENDSEC
  0
SECTION
  2
TABLES
  0
TABLE
  2
VPORT
  5
8
330
0
100
AcDbSymbolTable
 70
     1
  0
VPORT
  5
57
330
8
100
AcDbSymbolTableRecord
100
AcDbViewportTableRecord
  2
*Active
 70
     0
 10
0.0
 20
0.0
 11
1.0
 21
1.0
 12
0.0
 22
0.0
 13
0.0
 23
0.0
 14
1.0
 24
1.0
 15
0.0
 25
0.0
 16
0.0
 26
0.0
 36
1.0
 17
259.1350693796607
 27
-170.3135416240886
 37
0.0
 40
174.399458289733
 41
2.042869733683715
 42
50.0
 43
0.0
 44
0.0
 50
0.0
 51
0.0
 71
     0
 72
   100
 73
     1
 74
     1
 75
     0
 76
     0
 77
     0
 78
     0
281
     0
 65
     1
110
0.0
120
0.0
130
0.0
111
1.0
121
0.0
131
0.0
112
0.0
122
1.0
132
0.0
 79
     0
146
0.0
 60
     3
 61
     5
292
     1
282
     1
141
0.0
142
0.0
 63
   250
421
  3355443
  0
ENDTAB
  0
TABLE
  2
LTYPE
  5
5
330
0
100
AcDbSymbolTable
 70
     1
  0
LTYPE
  5
5B
330
5
100
AcDbSymbolTableRecord
100
AcDbLinetypeTableRecord
  2
ByBlock
 70
     0
  3

 72
    65
 73
     0
 40
0.0
  0
LTYPE
  5
5C
330
5
100
AcDbSymbolTableRecord
100
AcDbLinetypeTableRecord
  2
ByLayer
 70
     0
  3

 72
    65
 73
     0
 40
0.0
  0
LTYPE
  5
5D
330
5
100
AcDbSymbolTableRecord
100
AcDbLinetypeTableRecord
  2
Continuous
 70
     0
  3
Solid line
 72
    65
 73
     0
 40
0.0
  0
ENDTAB
  0
TABLE
  2
LAYER
  5
2
330
0
100
AcDbSymbolTable
 70
     2
  0
LAYER
  5
54
330
2
100
AcDbSymbolTableRecord
100
AcDbLayerTableRecord
  2
0
 70
     0
 62
     7
  6
Continuous
370
    -3
390
F
347
21
348
0
  0
LAYER
  5
78
330
2
100
AcDbSymbolTableRecord
100
AcDbLayerTableRecord
  2
Layer 1
 70
     0
 62
     7
  6
Continuous
370
     0
390
F
347
21
348
0
  0
ENDTAB
  0
TABLE
  2
STYLE
  5
3
330
0
100
AcDbSymbolTable
 70
     2
  0
STYLE
  5
55
330
3
100
AcDbSymbolTableRecord
100
AcDbTextStyleTableRecord
  2
Standard
 70
     0
 40
0.0
 41
1.0
 50
0.0
 71
     0
 42
0.2
  3
txt
  4

  0
STYLE
  5
5A
330
3
100
AcDbSymbolTableRecord
100
AcDbTextStyleTableRecord
  2
Annotative
 70
     0
 40
0.0
 41
1.0
 50
0.0
 71
     0
 42
0.2
  3
txt
  4

1001
AcadAnnotative
1000
AnnotativeData
1002
{
1070
     1
1070
     1
1002
}
  0
ENDTAB
  0
TABLE
  2
VIEW
  5
6
330
0
100
AcDbSymbolTable
 70
     0
  0
ENDTAB
  0
TABLE
  2
UCS
  5
7
330
0
100
AcDbSymbolTable
 70
     0
  0
ENDTAB
  0
TABLE
  2
APPID
  5
9
330
0
100
AcDbSymbolTable
 70
     2
  0
APPID
  5
56
330
9
100
AcDbSymbolTableRecord
100
AcDbRegAppTableRecord
  2
ACAD
 70
     0
  0
APPID
  5
5E
330
9
100
AcDbSymbolTableRecord
100
AcDbRegAppTableRecord
  2
AcadAnnotative
 70
     0
  0
ENDTAB
  0
TABLE
  2
DIMSTYLE
  5
A
330
0
100
AcDbSymbolTable
 70
     2
100
AcDbDimStyleTable
 71
     0
  0
DIMSTYLE
105
58
330
A
100
AcDbSymbolTableRecord
100
AcDbDimStyleTableRecord
  2
Standard
 70
     0
340
55
  0
DIMSTYLE
105
59
330
A
100
AcDbSymbolTableRecord
100
AcDbDimStyleTableRecord
  2
Annotative
 70
     0
340
55
1001
AcadAnnotative
1000
AnnotativeData
1002
{
1070
     1
1070
     1
1002
}
  0
ENDTAB
  0
TABLE
  2
BLOCK_RECORD
  5
1
330
0
100
AcDbSymbolTable
 70
     4
  0
BLOCK_RECORD
  5
70
330
1
100
AcDbSymbolTableRecord
100
AcDbBlockTableRecord
  2
*Model_Space
340
73
 70
     0
280
     1
281
     0
  0
BLOCK_RECORD
  5
6C
330
1
100
AcDbSymbolTableRecord
100
AcDbBlockTableRecord
  2
*Paper_Space
340
6F
 70
     0
280
     1
281
     0
  0
BLOCK_RECORD
  5
74
330
1
100
AcDbSymbolTableRecord
100
AcDbBlockTableRecord
  2
*Paper_Space0
340
77
 70
     0
280
     1
281
     0
  0
BLOCK_RECORD
  5
7B
330
1
100
AcDbSymbolTableRecord
100
AcDbBlockTableRecord
  2
Block_0
340
0
102
{BLKREFS
331
7C
102
}
 70
     0
280
     1
281
     0
  0
BLOCK_RECORD
  5
8C
330
1
100
AcDbSymbolTableRecord
100
AcDbBlockTableRecord
  2
Block_1
340
0
102
{BLKREFS
331
8D
102
}
 70
     0
280
     1
281
     0
  0
BLOCK_RECORD
  5
B3
330
1
100
AcDbSymbolTableRecord
100
AcDbBlockTableRecord
  2
Block_2
340
0
102
{BLKREFS
331
B4
102
}
 70
     0
280
     1
281
     0
  0
ENDTAB
  0
ENDSEC
  0
SECTION
  2
BLOCKS
  0
BLOCK
  5
71
330
70
100
AcDbEntity
  8
0
100
AcDbBlockBegin
  2
*Model_Space
 70
     0
 10
0.0
 20
0.0
 30
0.0
  3
*Model_Space
  1

  0
ENDBLK
  5
72
330
70
100
AcDbEntity
  8
0
100
AcDbBlockEnd
  0
BLOCK
  5
6D
330
6C
100
AcDbEntity
 67
     1
  8
0
100
AcDbBlockBegin
  2
*Paper_Space
 70
     0
 10
0.0
 20
0.0
 30
0.0
  3
*Paper_Space
  1

  0
ENDBLK
  5
6E
330
6C
100
AcDbEntity
 67
     1
  8
0
100
AcDbBlockEnd
  0
BLOCK
  5
75
330
74
100
AcDbEntity
 67
     1
  8
0
100
AcDbBlockBegin
  2
*Paper_Space0
 70
     0
 10
0.0
 20
0.0
 30
0.0
  3
*Paper_Space0
  1

  0
ENDBLK
  5
76
330
74
100
AcDbEntity
 67
     1
  8
0
100
AcDbBlockEnd
  0
BLOCK
  5
7D
330
7B
100
AcDbEntity
  8
0
100
AcDbBlockBegin
  2
Block_0
 70
     0
 10
0.0
 20
0.0
 30
0.0
  3
Block_0
  1

  0
LWPOLYLINE
  5
7F
330
7B
100
AcDbEntity
  8
Layer 1
 62
   250
420
  2301728
370
    35
100
AcDbPolyline
 90
        4
 70
     1
 43
0.0
 10
254.7055554918792
 20
-229.8615122661874
 10
84.6666666455
 20
-229.8615122661874
 10
84.6666666455
 20
-203.284005270031
 10
254.7055554918792
 20
-203.284005270031
  0
LWPOLYLINE
  5
80
330
7B
100
AcDbEntity
  8
Layer 1
100
AcDbPolyline
 90
        4
 70
     1
 43
0.0
 10
100.5274369496591
 20
-216.5727587681095
 10
92.09693741861995
 20
-216.5727587681095
 10
92.09693741861995
 20
-214.42941142971
 10
100.5274369496591
 20
-214.42941142971
  0
HATCH
  5
81
330
7B
100
AcDbEntity
  8
Layer 1
 62
   250
420
  2301728
440
 33554687
100
AcDbHatch
 10
0.0
 20
0.0
 30
0.0
210
0.0
220
0.0
230
1.0
  2
SOLID
 70
     1
 71
     1
 91
        1
 92
        1
 93
        4
 72
     1
 10
100.5274369496591
 20
-216.5727587681095
 11
92.09693741861995
 21
-216.5727587681095
 72
     1
 10
92.09693741861995
 20
-216.5727587681095
 11
92.09693741861995
 21
-214.42941142971
 72
     1
 10
92.09693741861995
 20
-214.42941142971
 11
100.5274369496591
 21
-214.42941142971
 72
     1
 10
100.5274369496591
 20
-214.42941142971
 11
100.5274369496591
 21
-216.5727587681095
 97
        1
330
80
 75
     2
 76
     1
 98
        1
 10
0.0
 20
0.0
450
        0
451
        0
460
0.0
461
0.0
452
        0
462
0.0
453
        0
470

  0
LWPOLYLINE
  5
82
330
7B
100
AcDbEntity
  8
Layer 1
100
AcDbPolyline
 90
        4
 70
     1
 43
0.0
 10
127.6765032360557
 20
-216.858538413229
 10
119.2460037050165
 20
-216.858538413229
 10
119.2460037050165
 20
-214.7151910748294
 10
127.6765032360557
 20
-214.7151910748294
  0
HATCH
  5
83
330
7B
100
AcDbEntity
  8
Layer 1
 62
   250
420
  2301728
440
 33554687
100
AcDbHatch
 10
0.0
 20
0.0
 30
0.0
210
0.0
220
0.0
230
1.0
  2
SOLID
 70
     1
 71
     1
 91
        1
 92
        1
 93
        4
 72
     1
 10
127.6765032360557
 20
-216.858538413229
 11
119.2460037050165
 21
-216.858538413229
 72
     1
 10
119.2460037050165
 20
-216.858538413229
 11
119.2460037050165
 21
-214.7151910748294
 72
     1
 10
119.2460037050165
 20
-214.7151910748294
 11
127.6765032360557
 21
-214.7151910748294
 72
     1
 10
127.6765032360557
 20
-214.7151910748294
 11
127.6765032360557
 21
-216.858538413229
 97
        1
330
82
 75
     2
 76
     1
 98
        1
 10
0.0
 20
0.0
450
        0
451
        0
460
0.0
461
0.0
452
        0
462
0.0
453
        0
470

  0
LWPOLYLINE
  5
84
330
7B
100
AcDbEntity
  8
Layer 1
100
AcDbPolyline
 90
        4
 70
     1
 43
0.0
 10
154.8255695224516
 20
-217.144318058349
 10
146.395069991413
 20
-217.144318058349
 10
146.395069991413
 20
-215.0009707199495
 10
154.8255695224516
 20
-215.0009707199495
  0
HATCH
  5
85
330
7B
100
AcDbEntity
  8
Layer 1
 62
   250
420
  2301728
440
 33554687
100
AcDbHatch
 10
0.0
 20
0.0
 30
0.0
210
0.0
220
0.0
230
1.0
  2
SOLID
 70
     1
 71
     1
 91
        1
 92
        1
 93
        4
 72
     1
 10
154.8255695224516
 20
-217.144318058349
 11
146.395069991413
 21
-217.144318058349
 72
     1
 10
146.395069991413
 20
-217.144318058349
 11
146.395069991413
 21
-215.0009707199495
 72
     1
 10
146.395069991413
 20
-215.0009707199495
 11
154.8255695224516
 21
-215.0009707199495
 72
     1
 10
154.8255695224516
 20
-215.0009707199495
 11
154.8255695224516
 21
-217.144318058349
 97
        1
330
84
 75
     2
 76
     1
 98
        1
 10
0.0
 20
0.0
450
        0
451
        0
460
0.0
461
0.0
452
        0
462
0.0
453
        0
470

  0
LWPOLYLINE
  5
86
330
7B
100
AcDbEntity
  8
Layer 1
100
AcDbPolyline
 90
        4
 70
     1
 43
0.0
 10
181.9746358088488
 20
-217.4300977034691
 10
173.5441362778096
 20
-217.4300977034691
 10
173.5441362778096
 20
-215.2867503650702
 10
181.9746358088488
 20
-215.2867503650702
  0
HATCH
  5
87
330
7B
100
AcDbEntity
  8
Layer 1
 62
   250
420
  2301728
440
 33554687
100
AcDbHatch
 10
0.0
 20
0.0
 30
0.0
210
0.0
220
0.0
230
1.0
  2
SOLID
 70
     1
 71
     1
 91
        1
 92
        1
 93
        4
 72
     1
 10
181.9746358088488
 20
-217.4300977034691
 11
173.5441362778096
 21
-217.4300977034691
 72
     1
 10
173.5441362778096
 20
-217.4300977034691
 11
173.5441362778096
 21
-215.2867503650702
 72
     1
 10
173.5441362778096
 20
-215.2867503650702
 11
181.9746358088488
 21
-215.2867503650702
 72
     1
 10
181.9746358088488
 20
-215.2867503650702
 11
181.9746358088488
 21
-217.4300977034691
 97
        1
330
86
 75
     2
 76
     1
 98
        1
 10
0.0
 20
0.0
450
        0
451
        0
460
0.0
461
0.0
452
        0
462
0.0
453
        0
470

  0
LWPOLYLINE
  5
88
330
7B
100
AcDbEntity
  8
Layer 1
100
AcDbPolyline
 90
        4
 70
     1
 43
0.0
 10
209.1237020952447
 20
-217.7158773485898
 10
200.6932025642062
 20
-217.7158773485898
 10
200.6932025642062
 20
-215.5725300101896
 10
209.1237020952447
 20
-215.5725300101896
  0
HATCH
  5
89
330
7B
100
AcDbEntity
  8
Layer 1
 62
   250
420
  2301728
440
 33554687
100
AcDbHatch
 10
0.0
 20
0.0
 30
0.0
210
0.0
220
0.0
230
1.0
  2
SOLID
 70
     1
 71
     1
 91
        1
 92
        1
 93
        4
 72
     1
 10
209.1237020952447
 20
-217.7158773485898
 11
200.6932025642062
 21
-217.7158773485898
 72
     1
 10
200.6932025642062
 20
-217.7158773485898
 11
200.6932025642062
 21
-215.5725300101896
 72
     1
 10
200.6932025642062
 20
-215.5725300101896
 11
209.1237020952447
 21
-215.5725300101896
 72
     1
 10
209.1237020952447
 20
-215.5725300101896
 11
209.1237020952447
 21
-217.7158773485898
 97
        1
330
88
 75
     2
 76
     1
 98
        1
 10
0.0
 20
0.0
450
        0
451
        0
460
0.0
461
0.0
452
        0
462
0.0
453
        0
470

  0
LWPOLYLINE
  5
8A
330
7B
100
AcDbEntity
  8
Layer 1
100
AcDbPolyline
 90
        4
 70
     1
 43
0.0
 10
236.2727683816419
 20
-218.0016569937092
 10
227.8422688506027
 20
-218.0016569937092
 10
227.8422688506027
 20
-215.8583096553097
 10
236.2727683816419
 20
-215.8583096553097
  0
HATCH
  5
8B
330
7B
100
AcDbEntity
  8
Layer 1
 62
   250
420
  2301728
440
 33554687
100
AcDbHatch
 10
0.0
 20
0.0
 30
0.0
210
0.0
220
0.0
230
1.0
  2
SOLID
 70
     1
 71
     1
 91
        1
 92
        1
 93
        4
 72
     1
 10
236.2727683816419
 20
-218.0016569937092
 11
227.8422688506027
 21
-218.0016569937092
 72
     1
 10
227.8422688506027
 20
-218.0016569937092
 11
227.8422688506027
 21
-215.8583096553097
 72
     1
 10
227.8422688506027
 20
-215.8583096553097
 11
236.2727683816419
 21
-215.8583096553097
 72
     1
 10
236.2727683816419
 20
-215.8583096553097
 11
236.2727683816419
 21
-218.0016569937092
 97
        1
330
8A
 75
     2
 76
     1
 98
        1
 10
0.0
 20
0.0
450
        0
451
        0
460
0.0
461
0.0
452
        0
462
0.0
453
        0
470

  0
ENDBLK
  5
7E
330
7B
100
AcDbEntity
  8
0
100
AcDbBlockEnd
  0
BLOCK
  5
8E
330
8C
100
AcDbEntity
  8
0
100
AcDbBlockBegin
  2
Block_1
 70
     0
 10
0.0
 20
0.0
 30
0.0
  3
Block_1
  1

  0
LWPOLYLINE
  5
90
330
8C
100
AcDbEntity
  8
Layer 1
 62
   250
420
  2301728
370
    35
100
AcDbPolyline
 90
        4
 70
     1
 43
0.0
 10
172.4010176973293
 20
-95.83085870492476
 10
171.6865685845301
 20
-102.5466803652439
 10
179.9741782930089
 20
-102.5466803652439
 10
179.2597291802084
 20
-95.83085870492476
  0
LWPOLYLINE
  5
91
330
8C
100
AcDbEntity
  8
Layer 1
 62
   250
420
  2301728
370
    35
100
AcDbPolyline
 90
        4
 70
     1
 43
0.0
 10
186.6899999533277
 20
-151.2721098581978
 10
165.5423062144508
 20
-151.2721098581978
 10
165.8280858595702
 20
-157.8450416959569
 10
186.4042203082083
 20
-157.8450416959569
  0
SPLINE
  5
92
330
8C
100
AcDbEntity
  8
Layer 1
 62
   250
420
  2301728
370
    35
100
AcDbSpline
210
0.0
220
0.0
230
1.0
 70
     9
 71
     3
 72
    17
 73
    13
 74
     0
 42
0.0000000001
 43
0.0000000001
 40
0.0
 40
0.0
 40
0.0
 40
0.0
 40
1.0
 40
1.0
 40
1.0
 40
2.0
 40
2.0
 40
2.0
 40
3.0
 40
3.0
 40
3.0
 40
4.0
 40
4.0
 40
4.0
 40
4.0
 10
173.5441362778096
 20
-102.4037905426838
 30
0.0
 10
173.5441362778096
 20
-102.4037905426838
 30
0.0
 10
167.8072619124773
 20
-151.3663563369093
 30
0.0
 10
167.8072619124773
 20
-151.3663563369093
 30
0.0
 10
167.8072619124773
 20
-151.3663563369093
 30
0.0
 10
184.1514254461464
 20
-151.3663563369093
 30
0.0
 10
184.1514254461464
 20
-151.3663563369093
 30
0.0
 10
184.1514254461464
 20
-151.3663563369093
 30
0.0
 10
177.8764340894701
 20
-102.4797957674516
 30
0.0
 10
177.8764340894701
 20
-102.4797957674516
 30
0.0
 10
177.8764340894701
 20
-102.4797957674516
 30
0.0
 10
173.6019002486304
 20
-102.4615545135047
 30
0.0
 10
173.5441362778096
 20
-102.4037905426838
 30
0.0
  0
SPLINE
  5
93
330
8C
100
AcDbEntity
  8
Layer 1
 62
   250
420
  2301728
370
    35
100
AcDbSpline
210
0.0
220
0.0
230
1.0
 70
     9
 71
     3
 72
    29
 73
    25
 74
     0
 42
0.0000000001
 43
0.0000000001
 40
0.0
 40
0.0
 40
0.0
 40
0.0
 40
1.0
 40
1.0
 40
1.0
 40
2.0
 40
2.0
 40
2.0
 40
3.0
 40
3.0
 40
3.0
 40
4.0
 40
4.0
 40
4.0
 40
5.0
 40
5.0
 40
5.0
 40
6.0
 40
6.0
 40
6.0
 40
7.0
 40
7.0
 40
7.0
 40
8.0
 40
8.0
 40
8.0
 40
8.0
 10
172.4010176973293
 20
-159.5597195666767
 30
0.0
 10
172.1790779875816
 20
-159.5597195666767
 30
0.0
 10
178.973949535089
 20
-159.2739399215566
 30
0.0
 10
178.973949535089
 20
-159.2739399215566
 30
0.0
 10
178.973949535089
 20
-159.2739399215566
 30
0.0
 10
181.6276151765448
 20
-166.7042106946759
 30
0.0
 10
181.6276151765448
 20
-166.7042106946759
 30
0.0
 10
181.6276151765448
 20
-166.7042106946759
 30
0.0
 10
189.8335760496472
 20
-166.7042106946759
 30
0.0
 10
189.8335760496472
 20
-166.7042106946759
 30
0.0
 10
189.8335760496472
 20
-166.7042106946759
 30
0.0
 10
184.8810796862099
 20
-157.7872717872266
 30
0.0
 10
184.8810796862099
 20
-157.7872717872266
 30
0.0
 10
184.8810796862099
 20
-157.7872717872266
 30
0.0
 10
167.1049717800422
 20
-157.7112743559652
 30
0.0
 10
166.9712044400505
 20
-157.8450416959569
 30
0.0
 10
166.9712044400505
 20
-157.8450416959569
 30
0.0
 10
162.6845097632513
 20
-166.7042106946759
 30
0.0
 10
162.6845097632513
 20
-166.7042106946759
 30
0.0
 10
162.6845097632513
 20
-166.7042106946759
 30
0.0
 10
170.5487351134536
 20
-166.7042106946759
 30
0.0
 10
170.5487351134536
 20
-166.7042106946759
 30
0.0
 10
170.5487351134536
 20
-166.7042106946759
 30
0.0
 10
172.4010176973293
 20
-159.5597195666767
 30
0.0
 10
172.4010176973293
 20
-159.5597195666767
 30
0.0
  0
LWPOLYLINE
  5
94
330
8C
100
AcDbEntity
  8
Layer 1
 62
   250
420
  2301728
370
    35
100
AcDbPolyline
 90
        4
 70
     1
 43
0.0
 10
192.9771521459674
 20
-173.8487018226745
 10
159.5409336669312
 20
-173.8487018226745
 10
159.5409336669312
 20
-166.7042106946759
 10
192.9771521459674
 20
-166.7042106946759
  0
SPLINE
  5
95
330
8C
100
AcDbEntity
  8
Layer 1
 62
   250
420
  2301728
370
    35
100
AcDbSpline
210
0.0
220
0.0
230
1.0
 70
    11
 71
     3
 72
    26
 73
    22
 74
     0
 42
0.0000000001
 43
0.0000000001
 40
0.0
 40
0.0
 40
0.0
 40
0.0
 40
1.0
 40
1.0
 40
1.0
 40
2.0
 40
2.0
 40
2.0
 40
3.0
 40
3.0
 40
3.0
 40
4.0
 40
4.0
 40
4.0
 40
5.0
 40
5.0
 40
5.0
 40
6.0
 40
6.0
 40
6.0
 40
7.0
 40
7.0
 40
7.0
 40
7.0
 10
175.6874836162091
 20
-176.4207186287545
 30
0.0
 10
184.5543622464676
 20
-176.4207186287545
 30
0.0
 10
191.7488089960258
 20
-183.1891820718477
 30
0.0
 10
191.8302136349278
 20
-191.5670398201132
 30
0.0
 10
191.8302136349278
 20
-191.5670398201132
 30
0.0
 10
208.4092529824455
 20
-191.5670398201132
 30
0.0
 10
208.4092529824455
 20
-191.5670398201132
 30
0.0
 10
208.4092529824455
 20
-191.5670398201132
 30
0.0
 10
192.4055928557266
 20
-173.8487018226745
 30
0.0
 10
192.4055928557266
 20
-173.8487018226745
 30
0.0
 10
192.4055928557266
 20
-173.8487018226745
 30
0.0
 10
159.5409336669312
 20
-173.8487018226745
 30
0.0
 10
159.5409336669312
 20
-173.8487018226745
 30
0.0
 10
159.5409336669312
 20
-173.8487018226745
 30
0.0
 10
144.1088328304531
 20
-191.5670398201132
 30
0.0
 10
144.1088328304531
 20
-191.5670398201132
 30
0.0
 10
144.1088328304531
 20
-191.5670398201132
 30
0.0
 10
159.5447535974905
 20
-191.5670398201132
 30
0.0
 10
159.5447535974905
 20
-191.5670398201132
 30
0.0
 10
159.6261582363932
 20
-183.1891820718477
 30
0.0
 10
166.8206049859507
 20
-176.4207186287545
 30
0.0
 10
175.6874836162091
 20
-176.4207186287545
 30
0.0
  0
LINE
  5
96
330
8C
100
AcDbEntity
  8
Layer 1
 62
   250
420
  2301728
370
    35
100
AcDbLine
 10
175.5445937936494
 20
-90.11526580252558
 30
0.0
 11
175.8303734387695
 21
-95.83085870492476
 31
0.0
  0
ENDBLK
  5
8F
330
8C
100
AcDbEntity
  8
0
100
AcDbBlockEnd
  0
BLOCK
  5
B5
330
B3
100
AcDbEntity
  8
0
100
AcDbBlockBegin
  2
Block_2
 70
     0
 10
0.0
 20
0.0
 30
0.0
  3
Block_2
  1

  0
SPLINE
  5
B7
330
B3
100
AcDbEntity
  8
Layer 1
100
AcDbSpline
210
0.0
220
0.0
230
1.0
 70
    11
 71
     3
 72
    17
 73
    13
 74
     0
 42
0.0000000001
 43
0.0000000001
 40
0.0
 40
0.0
 40
0.0
 40
0.0
 40
1.0
 40
1.0
 40
1.0
 40
2.0
 40
2.0
 40
2.0
 40
3.0
 40
3.0
 40
3.0
 40
4.0
 40
4.0
 40
4.0
 40
4.0
 10
363.4265207158206
 20
-147.584198680299
 30
0.0
 10
360.8942041799283
 20
-145.5616197755133
 30
0.0
 10
360.4809803454321
 20
-141.8691488946823
 30
0.0
 10
362.5035592502185
 20
-139.33683235879
 30
0.0
 10
364.5261381550043
 20
-136.8045158228976
 30
0.0
 10
368.2186090358346
 20
-136.3912919884021
 30
0.0
 10
370.7509255717269
 20
-138.4138708931879
 30
0.0
 10
373.2832421076193
 20
-140.4364497979737
 30
0.0
 10
373.6964659421148
 20
-144.1289206788033
 30
0.0
 10
371.6738870373296
 20
-146.6612372146957
 30
0.0
 10
369.6513081325432
 20
-149.1935537505886
 30
0.0
 10
365.958837251713
 20
-149.6067775850848
 30
0.0
 10
363.4265207158206
 20
-147.584198680299
 30
0.0
  0
SPLINE
  5
B8
330
B3
100
AcDbEntity
  8
Layer 1
100
AcDbSpline
210
0.0
220
0.0
230
1.0
 70
     9
 71
     3
 72
    17
 73
    13
 74
     0
 42
0.0000000001
 43
0.0000000001
 40
0.0
 40
0.0
 40
0.0
 40
0.0
 40
1.0
 40
1.0
 40
1.0
 40
2.0
 40
2.0
 40
2.0
 40
3.0
 40
3.0
 40
3.0
 40
4.0
 40
4.0
 40
4.0
 40
4.0
 10
353.6606475746128
 20
-159.8113023964477
 30
0.0
 10
351.1283310387198
 20
-157.7887234916619
 30
0.0
 10
350.7151072042243
 20
-154.0962526108309
 30
0.0
 10
352.73768610901
 20
-151.5639360749386
 30
0.0
 10
354.7602650137958
 20
-149.0316195390462
 30
0.0
 10
358.4527358946261
 20
-148.6183957045501
 30
0.0
 10
360.9850524305191
 20
-150.6409746093359
 30
0.0
 10
363.5173689664115
 20
-152.6635535141216
 30
0.0
 10
363.9305928009063
 20
-156.3560243949519
 30
0.0
 10
361.9080138961212
 20
-158.8883409308443
 30
0.0
 10
359.8854349913354
 20
-161.4206574667366
 30
0.0
 10
356.1929641105052
 20
-161.8338813012334
 30
0.0
 10
353.6606475746128
 20
-159.8113023964477
 30
0.0
  0
SPLINE
  5
B9
330
B3
100
AcDbEntity
  8
Layer 1
100
AcDbSpline
210
0.0
220
0.0
230
1.0
 70
    11
 71
     3
 72
    17
 73
    13
 74
     0
 42
0.0000000001
 43
0.0000000001
 40
0.0
 40
0.0
 40
0.0
 40
0.0
 40
1.0
 40
1.0
 40
1.0
 40
2.0
 40
2.0
 40
2.0
 40
3.0
 40
3.0
 40
3.0
 40
4.0
 40
4.0
 40
4.0
 40
4.0
 10
380.4581979849601
 20
-125.6631248709118
 30
0.0
 10
382.9905145208524
 20
-127.6857037756976
 30
0.0
 10
383.4037383553486
 20
-131.3781746565279
 30
0.0
 10
381.3811594505635
 20
-133.9104911924203
 30
0.0
 10
379.3585805457771
 20
-136.4428077283126
 30
0.0
 10
375.6661096649468
 20
-136.8560315628088
 30
0.0
 10
373.1337931290544
 20
-134.833452658023
 30
0.0
 10
370.6014765931621
 20
-132.8108737532372
 30
0.0
 10
370.188252758666
 20
-129.1184028724063
 30
0.0
 10
372.2108316634517
 20
-126.5860863365139
 30
0.0
 10
374.2334105682374
 20
-124.0537698006216
 30
0.0
 10
377.9258814490678
 20
-123.6405459661261
 30
0.0
 10
380.4581979849601
 20
-125.6631248709118
 30
0.0
  0
SPLINE
  5
BA
330
B3
100
AcDbEntity
  8
Layer 1
100
AcDbSpline
210
0.0
220
0.0
230
1.0
 70
     9
 71
     3
 72
    41
 73
    37
 74
     0
 42
0.0000000001
 43
0.0000000001
 40
0.0
 40
0.0
 40
0.0
 40
0.0
 40
1.0
 40
1.0
 40
1.0
 40
2.0
 40
2.0
 40
2.0
 40
3.0
 40
3.0
 40
3.0
 40
4.0
 40
4.0
 40
4.0
 40
5.0
 40
5.0
 40
5.0
 40
6.0
 40
6.0
 40
6.0
 40
7.0
 40
7.0
 40
7.0
 40
8.0
 40
8.0
 40
8.0
 40
9.0
 40
9.0
 40
9.0
 40
10.0
 40
10.0
 40
10.0
 40
11.0
 40
11.0
 40
11.0
 40
12.0
 40
12.0
 40
12.0
 40
12.0
 10
365.802609652915
 20
-190.7284408613747
 30
0.0
 10
365.802609652915
 20
-190.7284408613747
 30
0.0
 10
369.0257771517631
 20
-182.8123823572526
 30
0.0
 10
364.08665623683
 20
-173.0262126655827
 30
0.0
 10
364.08665623683
 20
-173.0262126655827
 30
0.0
 10
363.1657820450362
 20
-173.9272863199462
 30
0.0
 10
363.1657820450362
 20
-173.9272863199462
 30
0.0
 10
367.7634655704974
 20
-169.2058648667714
 30
0.0
 10
371.6418991586329
 20
-164.9454011732092
 30
0.0
 10
372.646915948087
 20
-163.0548301758747
 30
0.0
 10
372.646915948087
 20
-163.0548301758747
 30
0.0
 10
392.9083481459537
 20
-141.56761545783
 30
0.0
 10
389.9041197758352
 20
-113.5381018980135
 30
0.0
 10
389.9041197758352
 20
-113.5381018980135
 30
0.0
 10
368.0255211901938
 20
-113.4680809728667
 30
0.0
 10
345.1231645275823
 20
-143.3363957731863
 30
0.0
 10
345.1231645275823
 20
-143.3363957731863
 30
0.0
 10
342.0875501073292
 20
-148.0323193196652
 30
0.0
 10
338.0212036288003
 20
-154.5976637177848
 30
0.0
 10
337.671538430518
 20
-154.4922791915405
 30
0.0
 10
328.799364786745
 20
-151.9119576614835
 30
0.0
 10
320.4783772691314
 20
-158.8191973369918
 30
0.0
 10
320.4783772691314
 20
-158.8191973369918
 30
0.0
 10
312.1076288623815
 20
-169.299571950833
 30
0.0
 10
310.7521561674352
 20
-184.4294212847912
 30
0.0
 10
310.7521561674352
 20
-184.4294212847912
 30
0.0
 10
324.2175311225795
 20
-178.0181604797866
 30
0.0
 10
324.2175311225795
 20
-178.0181604797866
 30
0.0
 10
324.2175311225795
 20
-178.0181604797866
 30
0.0
 10
343.8965928261099
 20
-192.7822895247255
 30
0.0
 10
343.8965928261099
 20
-192.7822895247255
 30
0.0
 10
343.8965928261099
 20
-192.7822895247255
 30
0.0
 10
342.5694794337392
 20
-206.9811146409662
 30
0.0
 10
342.5694794337392
 20
-206.9811146409662
 30
0.0
 10
342.5694794337392
 20
-206.9811146409662
 30
0.0
 10
359.729650895764
 20
-200.4214698932021
 30
0.0
 10
365.802609652915
 20
-190.7284408613747
 30
0.0
  0
HATCH
  5
BB
330
B3
100
AcDbEntity
  8
Layer 1
 62
    18
420
        0
440
 33554687
100
AcDbHatch
 10
0.0
 20
0.0
 30
0.0
210
0.0
220
0.0
230
1.0
  2
SOLID
 70
     1
 71
     1
 91
        4
 92
        1
 93
        1
 72
     4
 94
        3
 73
     0
 74
     0
 95
       17
 96
       13
 40
0.0
 40
0.0
 40
0.0
 40
0.0
 40
1.0
 40
1.0
 40
1.0
 40
2.0
 40
2.0
 40
2.0
 40
3.0
 40
3.0
 40
3.0
 40
4.0
 40
4.0
 40
4.0
 40
4.0
 10
363.4265207158206
 20
-147.584198680299
 10
360.8942041799283
 20
-145.5616197755133
 10
360.4809803454321
 20
-141.8691488946823
 10
362.5035592502185
 20
-139.33683235879
 10
364.5261381550043
 20
-136.8045158228976
 10
368.2186090358346
 20
-136.3912919884021
 10
370.7509255717269
 20
-138.4138708931879
 10
373.2832421076193
 20
-140.4364497979737
 10
373.6964659421148
 20
-144.1289206788033
 10
371.6738870373296
 20
-146.6612372146957
 10
369.6513081325432
 20
-149.1935537505886
 10
365.958837251713
 20
-149.6067775850848
 10
363.4265207158206
 20
-147.584198680299
 97
        0
 97
        1
330
B7
 92
        1
 93
        1
 72
     4
 94
        3
 73
     0
 74
     0
 95
       17
 96
       13
 40
0.0
 40
0.0
 40
0.0
 40
0.0
 40
1.0
 40
1.0
 40
1.0
 40
2.0
 40
2.0
 40
2.0
 40
3.0
 40
3.0
 40
3.0
 40
4.0
 40
4.0
 40
4.0
 40
4.0
 10
353.6606475746128
 20
-159.8113023964477
 10
351.1283310387198
 20
-157.7887234916619
 10
350.7151072042243
 20
-154.0962526108309
 10
352.73768610901
 20
-151.5639360749386
 10
354.7602650137958
 20
-149.0316195390462
 10
358.4527358946261
 20
-148.6183957045501
 10
360.9850524305191
 20
-150.6409746093359
 10
363.5173689664115
 20
-152.6635535141216
 10
363.9305928009063
 20
-156.3560243949519
 10
361.9080138961212
 20
-158.8883409308443
 10
359.8854349913354
 20
-161.4206574667366
 10
356.1929641105052
 20
-161.8338813012334
 10
353.6606475746128
 20
-159.8113023964477
 97
        0
 97
        1
330
B8
 92
        1
 93
        1
 72
     4
 94
        3
 73
     0
 74
     0
 95
       17
 96
       13
 40
0.0
 40
0.0
 40
0.0
 40
0.0
 40
1.0
 40
1.0
 40
1.0
 40
2.0
 40
2.0
 40
2.0
 40
3.0
 40
3.0
 40
3.0
 40
4.0
 40
4.0
 40
4.0
 40
4.0
 10
380.4581979849601
 20
-125.6631248709118
 10
382.9905145208524
 20
-127.6857037756976
 10
383.4037383553486
 20
-131.3781746565279
 10
381.3811594505635
 20
-133.9104911924203
 10
379.3585805457771
 20
-136.4428077283126
 10
375.6661096649468
 20
-136.8560315628088
 10
373.1337931290544
 20
-134.833452658023
 10
370.6014765931621
 20
-132.8108737532372
 10
370.188252758666
 20
-129.1184028724063
 10
372.2108316634517
 20
-126.5860863365139
 10
374.2334105682374
 20
-124.0537698006216
 10
377.9258814490678
 20
-123.6405459661261
 10
380.4581979849601
 20
-125.6631248709118
 97
        0
 97
        1
330
B9
 92
        1
 93
        1
 72
     4
 94
        3
 73
     0
 74
     0
 95
       41
 96
       37
 40
0.0
 40
0.0
 40
0.0
 40
0.0
 40
1.0
 40
1.0
 40
1.0
 40
2.0
 40
2.0
 40
2.0
 40
3.0
 40
3.0
 40
3.0
 40
4.0
 40
4.0
 40
4.0
 40
5.0
 40
5.0
 40
5.0
 40
6.0
 40
6.0
 40
6.0
 40
7.0
 40
7.0
 40
7.0
 40
8.0
 40
8.0
 40
8.0
 40
9.0
 40
9.0
 40
9.0
 40
10.0
 40
10.0
 40
10.0
 40
11.0
 40
11.0
 40
11.0
 40
12.0
 40
12.0
 40
12.0
 40
12.0
 10
365.802609652915
 20
-190.7284408613747
 10
365.802609652915
 20
-190.7284408613747
 10
369.0257771517631
 20
-182.8123823572526
 10
364.08665623683
 20
-173.0262126655827
 10
364.08665623683
 20
-173.0262126655827
 10
363.1657820450362
 20
-173.9272863199462
 10
363.1657820450362
 20
-173.9272863199462
 10
367.7634655704974
 20
-169.2058648667714
 10
371.6418991586329
 20
-164.9454011732092
 10
372.646915948087
 20
-163.0548301758747
 10
372.646915948087
 20
-163.0548301758747
 10
392.9083481459537
 20
-141.56761545783
 10
389.9041197758352
 20
-113.5381018980135
 10
389.9041197758352
 20
-113.5381018980135
 10
368.0255211901938
 20
-113.4680809728667
 10
345.1231645275823
 20
-143.3363957731863
 10
345.1231645275823
 20
-143.3363957731863
 10
342.0875501073292
 20
-148.0323193196652
 10
338.0212036288003
 20
-154.5976637177848
 10
337.671538430518
 20
-154.4922791915405
 10
328.799364786745
 20
-151.9119576614835
 10
320.4783772691314
 20
-158.8191973369918
 10
320.4783772691314
 20
-158.8191973369918
 10
312.1076288623815
 20
-169.299571950833
 10
310.7521561674352
 20
-184.4294212847912
 10
310.7521561674352
 20
-184.4294212847912
 10
324.2175311225795
 20
-178.0181604797866
 10
324.2175311225795
 20
-178.0181604797866
 10
324.2175311225795
 20
-178.0181604797866
 10
343.8965928261099
 20
-192.7822895247255
 10
343.8965928261099
 20
-192.7822895247255
 10
343.8965928261099
 20
-192.7822895247255
 10
342.5694794337392
 20
-206.9811146409662
 10
342.5694794337392
 20
-206.9811146409662
 10
342.5694794337392
 20
-206.9811146409662
 10
359.729650895764
 20
-200.4214698932021
 10
365.802609652915
 20
-190.7284408613747
 97
        0
 97
        1
330
BA
 75
     2
 76
     1
 98
        1
 10
0.0
 20
0.0
450
        0
451
        0
460
0.0
461
0.0
452
        0
462
0.0
453
        0
470

  0
CIRCLE
  5
BC
330
B3
100
AcDbEntity
  8
Layer 1
100
AcDbCircle
 10
376.7959955570074
 20
-130.2482887644673
 30
0.0
 40
5.868173016712345
  0
CIRCLE
  5
BD
330
B3
100
AcDbEntity
  8
Layer 1
100
AcDbCircle
 10
367.0887231437739
 20
-142.9990347867431
 30
0.0
 40
5.868173016712533
  0
CIRCLE
  5
BE
330
B3
100
AcDbEntity
  8
Layer 1
100
AcDbCircle
 10
357.3228500025658
 20
-155.2261385028916
 30
0.0
 40
5.86817301671257
  0
ENDBLK
  5
B6
330
B3
100
AcDbEntity
  8
0
100
AcDbBlockEnd
  0
ENDSEC
  0
SECTION
  2
ENTITIES
  0
LWPOLYLINE
  5
79
330
70
100
AcDbEntity
  8
Layer 1
 62
   250
420
  2301728
370
    35
100
AcDbPolyline
 90
        4
 70
     1
 43
0.0
 10
433.6034721138215
 20
-255.6270832694267
 10
263.6034721563216
 20
-255.6270832694267
 10
263.6034721563216
 20
-85.62708331192686
 10
433.6034721138215
 20
-85.62708331192686
  0
LWPOLYLINE
  5
7A
330
70
100
AcDbEntity
  8
Layer 1
 62
   250
420
  2301728
370
    35
100
AcDbPolyline
 90
        4
 70
     1
 43
0.0
 10
254.9999999362504
 20
-254.9999999362504
 10
84.99999997875056
 20
-254.9999999362504
 10
84.99999997875056
 20
-84.99999997875056
 10
254.9999999362504
 20
-84.99999997875056
  0
INSERT
  5
7C
330
70
100
AcDbEntity
  8
Layer 1
100
AcDbBlockReference
  2
Block_0
 10
0.0
 20
0.0
 30
0.0
  0
INSERT
  5
8D
330
70
100
AcDbEntity
  8
Layer 1
100
AcDbBlockReference
  2
Block_1
 10
0.0
 20
0.0
 30
0.0
  0
SPLINE
  5
97
330
70
100
AcDbEntity
  8
Layer 1
 62
   250
420
  2301728
370
    35
100
AcDbSpline
210
0.0
220
0.0
230
1.0
 70
     9
 71
     3
 72
    29
 73
    25
 74
     0
 42
0.0000000001
 43
0.0000000001
 40
0.0
 40
0.0
 40
0.0
 40
0.0
 40
1.0
 40
1.0
 40
1.0
 40
2.0
 40
2.0
 40
2.0
 40
3.0
 40
3.0
 40
3.0
 40
4.0
 40
4.0
 40
4.0
 40
5.0
 40
5.0
 40
5.0
 40
6.0
 40
6.0
 40
6.0
 40
7.0
 40
7.0
 40
7.0
 40
8.0
 40
8.0
 40
8.0
 40
8.0
 10
163.1405815638462
 20
-146.1008657817817
 30
0.0
 10
163.1405815638462
 20
-146.6499066685884
 30
0.0
 10
162.6954811619806
 20
-147.0950070704541
 30
0.0
 10
162.1464228325677
 20
-147.0950070704541
 30
0.0
 10
162.1464228325677
 20
-147.0950070704541
 30
0.0
 10
154.2489693192826
 20
-147.0950070704541
 30
0.0
 10
154.2489693192826
 20
-147.0950070704541
 30
0.0
 10
153.6999109898703
 20
-147.0950070704541
 30
0.0
 10
153.2548280306096
 20
-146.6499066685884
 30
0.0
 10
153.2548280306096
 20
-146.1008657817817
 30
0.0
 10
153.2548280306096
 20
-146.1008657817817
 30
0.0
 10
153.2548280306096
 20
-137.1351922351437
 30
0.0
 10
153.2548280306096
 20
-137.1351922351437
 30
0.0
 10
153.2548280306096
 20
-136.5861339057315
 30
0.0
 10
153.6999109898703
 20
-136.1410509464713
 30
0.0
 10
154.2489693192826
 20
-136.1410509464713
 30
0.0
 10
154.2489693192826
 20
-136.1410509464713
 30
0.0
 10
162.1464228325677
 20
-136.1410509464713
 30
0.0
 10
162.1464228325677
 20
-136.1410509464713
 30
0.0
 10
162.6954811619806
 20
-136.1410509464713
 30
0.0
 10
163.1405815638462
 20
-136.5861339057315
 30
0.0
 10
163.1405815638462
 20
-137.1351922351437
 30
0.0
 10
163.1405815638462
 20
-137.1351922351437
 30
0.0
 10
163.1405815638462
 20
-146.1008657817817
 30
0.0
 10
163.1405815638462
 20
-146.1008657817817
 30
0.0
  0
SPLINE
  5
98
330
70
100
AcDbEntity
  8
Layer 1
 62
   250
420
  2301728
370
    35
100
AcDbSpline
210
0.0
220
0.0
230
1.0
 70
     9
 71
     3
 72
    29
 73
    25
 74
     0
 42
0.0000000001
 43
0.0000000001
 40
0.0
 40
0.0
 40
0.0
 40
0.0
 40
1.0
 40
1.0
 40
1.0
 40
2.0
 40
2.0
 40
2.0
 40
3.0
 40
3.0
 40
3.0
 40
4.0
 40
4.0
 40
4.0
 40
5.0
 40
5.0
 40
5.0
 40
6.0
 40
6.0
 40
6.0
 40
7.0
 40
7.0
 40
7.0
 40
8.0
 40
8.0
 40
8.0
 40
8.0
 10
152.901754814269
 20
-131.6259802385707
 30
0.0
 10
152.901754814269
 20
-131.6259802385707
 30
0.0
 10
152.901754814269
 20
-122.6603066919333
 30
0.0
 10
152.901754814269
 20
-122.6603066919333
 30
0.0
 10
152.901754814269
 20
-122.1112658051263
 30
0.0
 10
153.3468552161353
 20
-121.6661654032603
 30
0.0
 10
153.8959135455475
 20
-121.6661654032603
 30
0.0
 10
153.8959135455475
 20
-121.6661654032603
 30
0.0
 10
161.7933670588333
 20
-121.6661654032603
 30
0.0
 10
161.7933670588333
 20
-121.6661654032603
 30
0.0
 10
162.3424253882449
 20
-121.6661654032603
 30
0.0
 10
162.7875083475063
 20
-122.1112658051263
 30
0.0
 10
162.7875083475063
 20
-122.6603066919333
 30
0.0
 10
162.7875083475063
 20
-122.6603066919333
 30
0.0
 10
162.7875083475063
 20
-131.6259802385707
 30
0.0
 10
162.7875083475063
 20
-131.6259802385707
 30
0.0
 10
162.7875083475063
 20
-132.1750385679829
 30
0.0
 10
162.3424253882449
 20
-132.6201215272436
 30
0.0
 10
161.7933670588333
 20
-132.6201215272436
 30
0.0
 10
161.7933670588333
 20
-132.6201215272436
 30
0.0
 10
153.8959135455475
 20
-132.6201215272436
 30
0.0
 10
153.8959135455475
 20
-132.6201215272436
 30
0.0
 10
153.3468552161353
 20
-132.6201215272436
 30
0.0
 10
152.901754814269
 20
-132.1750385679829
 30
0.0
 10
152.901754814269
 20
-131.6259802385707
 30
0.0
  0
SPLINE
  5
99
330
70
100
AcDbEntity
  8
Layer 1
 62
   250
420
  2301728
370
    35
100
AcDbSpline
210
0.0
220
0.0
230
1.0
 70
     9
 71
     3
 72
    29
 73
    25
 74
     0
 42
0.0000000001
 43
0.0000000001
 40
0.0
 40
0.0
 40
0.0
 40
0.0
 40
1.0
 40
1.0
 40
1.0
 40
2.0
 40
2.0
 40
2.0
 40
3.0
 40
3.0
 40
3.0
 40
4.0
 40
4.0
 40
4.0
 40
5.0
 40
5.0
 40
5.0
 40
6.0
 40
6.0
 40
6.0
 40
7.0
 40
7.0
 40
7.0
 40
8.0
 40
8.0
 40
8.0
 40
8.0
 10
150.430312070309
 20
-131.6259802385707
 30
0.0
 10
150.430312070309
 20
-132.1750385679829
 30
0.0
 10
149.9852291110483
 20
-132.6201215272436
 30
0.0
 10
149.4361707816367
 20
-132.6201215272436
 30
0.0
 10
149.4361707816367
 20
-132.6201215272436
 30
0.0
 10
141.5387172683503
 20
-132.6201215272436
 30
0.0
 10
141.5387172683503
 20
-132.6201215272436
 30
0.0
 10
140.9896589389387
 20
-132.6201215272436
 30
0.0
 10
140.5445585370731
 20
-132.1750385679829
 30
0.0
 10
140.5445585370731
 20
-131.6259802385707
 30
0.0
 10
140.5445585370731
 20
-131.6259802385707
 30
0.0
 10
140.5445585370731
 20
-122.6603066919333
 30
0.0
 10
140.5445585370731
 20
-122.6603066919333
 30
0.0
 10
140.5445585370731
 20
-122.1112658051263
 30
0.0
 10
140.9896589389387
 20
-121.6661654032603
 30
0.0
 10
141.5387172683503
 20
-121.6661654032603
 30
0.0
 10
141.5387172683503
 20
-121.6661654032603
 30
0.0
 10
149.4361707816367
 20
-121.6661654032603
 30
0.0
 10
149.4361707816367
 20
-121.6661654032603
 30
0.0
 10
149.9852291110483
 20
-121.6661654032603
 30
0.0
 10
150.430312070309
 20
-122.1112658051263
 30
0.0
 10
150.430312070309
 20
-122.6603066919333
 30
0.0
 10
150.430312070309
 20
-122.6603066919333
 30
0.0
 10
150.430312070309
 20
-131.6259802385707
 30
0.0
 10
150.430312070309
 20
-131.6259802385707
 30
0.0
  0
SPLINE
  5
9A
330
70
100
AcDbEntity
  8
Layer 1
 62
   250
420
  2301728
370
    35
100
AcDbSpline
210
0.0
220
0.0
230
1.0
 70
     9
 71
     3
 72
    29
 73
    25
 74
     0
 42
0.0000000001
 43
0.0000000001
 40
0.0
 40
0.0
 40
0.0
 40
0.0
 40
1.0
 40
1.0
 40
1.0
 40
2.0
 40
2.0
 40
2.0
 40
3.0
 40
3.0
 40
3.0
 40
4.0
 40
4.0
 40
4.0
 40
5.0
 40
5.0
 40
5.0
 40
6.0
 40
6.0
 40
6.0
 40
7.0
 40
7.0
 40
7.0
 40
8.0
 40
8.0
 40
8.0
 40
8.0
 10
149.0180715327639
 20
-161.3581568280133
 30
0.0
 10
149.0180715327639
 20
-161.9072151574255
 30
0.0
 10
148.5729711308983
 20
-162.3523155592911
 30
0.0
 10
148.023912801486
 20
-162.3523155592911
 30
0.0
 10
148.023912801486
 20
-162.3523155592911
 30
0.0
 10
140.1264592882003
 20
-162.3523155592911
 30
0.0
 10
140.1264592882003
 20
-162.3523155592911
 30
0.0
 10
139.5774009587881
 20
-162.3523155592911
 30
0.0
 10
139.1323179995273
 20
-161.9072151574255
 30
0.0
 10
139.1323179995273
 20
-161.3581568280133
 30
0.0
 10
139.1323179995273
 20
-161.3581568280133
 30
0.0
 10
139.1323179995273
 20
-152.3925007239808
 30
0.0
 10
139.1323179995273
 20
-152.3925007239808
 30
0.0
 10
139.1323179995273
 20
-151.8434423945685
 30
0.0
 10
139.5774009587881
 20
-151.3983419927029
 30
0.0
 10
140.1264592882003
 20
-151.3983419927029
 30
0.0
 10
140.1264592882003
 20
-151.3983419927029
 30
0.0
 10
148.023912801486
 20
-151.3983419927029
 30
0.0
 10
148.023912801486
 20
-151.3983419927029
 30
0.0
 10
148.5729711308983
 20
-151.3983419927029
 30
0.0
 10
149.0180715327639
 20
-151.8434423945685
 30
0.0
 10
149.0180715327639
 20
-152.3925007239808
 30
0.0
 10
149.0180715327639
 20
-152.3925007239808
 30
0.0
 10
149.0180715327639
 20
-161.3581568280133
 30
0.0
 10
149.0180715327639
 20
-161.3581568280133
 30
0.0
  0
SPLINE
  5
9B
330
70
100
AcDbEntity
  8
Layer 1
 62
   250
420
  2301728
370
    35
100
AcDbSpline
210
0.0
220
0.0
230
1.0
 70
     9
 71
     3
 72
    29
 73
    25
 74
     0
 42
0.0000000001
 43
0.0000000001
 40
0.0
 40
0.0
 40
0.0
 40
0.0
 40
1.0
 40
1.0
 40
1.0
 40
2.0
 40
2.0
 40
2.0
 40
3.0
 40
3.0
 40
3.0
 40
4.0
 40
4.0
 40
4.0
 40
5.0
 40
5.0
 40
5.0
 40
6.0
 40
6.0
 40
6.0
 40
7.0
 40
7.0
 40
7.0
 40
8.0
 40
8.0
 40
8.0
 40
8.0
 10
149.0180715327639
 20
-177.0066855109665
 30
0.0
 10
149.0180715327639
 20
-177.5557263977732
 30
0.0
 10
148.5729711308983
 20
-178.0008267996394
 30
0.0
 10
148.023912801486
 20
-178.0008267996394
 30
0.0
 10
148.023912801486
 20
-178.0008267996394
 30
0.0
 10
140.1264592882003
 20
-178.0008267996394
 30
0.0
 10
140.1264592882003
 20
-178.0008267996394
 30
0.0
 10
139.5774009587881
 20
-178.0008267996394
 30
0.0
 10
139.1323179995273
 20
-177.5557263977732
 30
0.0
 10
139.1323179995273
 20
-177.0066855109665
 30
0.0
 10
139.1323179995273
 20
-177.0066855109665
 30
0.0
 10
139.1323179995273
 20
-168.0410119643291
 30
0.0
 10
139.1323179995273
 20
-168.0410119643291
 30
0.0
 10
139.1323179995273
 20
-167.4919536349162
 30
0.0
 10
139.5774009587881
 20
-167.0468706756561
 30
0.0
 10
140.1264592882003
 20
-167.0468706756561
 30
0.0
 10
140.1264592882003
 20
-167.0468706756561
 30
0.0
 10
148.023912801486
 20
-167.0468706756561
 30
0.0
 10
148.023912801486
 20
-167.0468706756561
 30
0.0
 10
148.5729711308983
 20
-167.0468706756561
 30
0.0
 10
149.0180715327639
 20
-167.4919536349162
 30
0.0
 10
149.0180715327639
 20
-168.0410119643291
 30
0.0
 10
149.0180715327639
 20
-168.0410119643291
 30
0.0
 10
149.0180715327639
 20
-177.0066855109665
 30
0.0
 10
149.0180715327639
 20
-177.0066855109665
 30
0.0
  0
SPLINE
  5
9C
330
70
100
AcDbEntity
  8
Layer 1
 62
   250
420
  2301728
370
    35
100
AcDbSpline
210
0.0
220
0.0
230
1.0
 70
     9
 71
     3
 72
    29
 73
    25
 74
     0
 42
0.0000000001
 43
0.0000000001
 40
0.0
 40
0.0
 40
0.0
 40
0.0
 40
1.0
 40
1.0
 40
1.0
 40
2.0
 40
2.0
 40
2.0
 40
3.0
 40
3.0
 40
3.0
 40
4.0
 40
4.0
 40
4.0
 40
5.0
 40
5.0
 40
5.0
 40
6.0
 40
6.0
 40
6.0
 40
7.0
 40
7.0
 40
7.0
 40
8.0
 40
8.0
 40
8.0
 40
8.0
 10
137.0139310293023
 20
-131.6259802385707
 30
0.0
 10
137.0139310293023
 20
-132.1750385679829
 30
0.0
 10
136.5688480700409
 20
-132.6201215272436
 30
0.0
 10
136.0197897406293
 20
-132.6201215272436
 30
0.0
 10
136.0197897406293
 20
-132.6201215272436
 30
0.0
 10
128.1223362273436
 20
-132.6201215272436
 30
0.0
 10
128.1223362273436
 20
-132.6201215272436
 30
0.0
 10
127.573277897932
 20
-132.6201215272436
 30
0.0
 10
127.1281774960657
 20
-132.1750385679829
 30
0.0
 10
127.1281774960657
 20
-131.6259802385707
 30
0.0
 10
127.1281774960657
 20
-131.6259802385707
 30
0.0
 10
127.1281774960657
 20
-122.6603066919333
 30
0.0
 10
127.1281774960657
 20
-122.6603066919333
 30
0.0
 10
127.1281774960657
 20
-122.1112658051263
 30
0.0
 10
127.573277897932
 20
-121.6661654032603
 30
0.0
 10
128.1223362273436
 20
-121.6661654032603
 30
0.0
 10
128.1223362273436
 20
-121.6661654032603
 30
0.0
 10
136.0197897406293
 20
-121.6661654032603
 30
0.0
 10
136.0197897406293
 20
-121.6661654032603
 30
0.0
 10
136.5688480700409
 20
-121.6661654032603
 30
0.0
 10
137.0139310293023
 20
-122.1112658051263
 30
0.0
 10
137.0139310293023
 20
-122.6603066919333
 30
0.0
 10
137.0139310293023
 20
-122.6603066919333
 30
0.0
 10
137.0139310293023
 20
-131.6259802385707
 30
0.0
 10
137.0139310293023
 20
-131.6259802385707
 30
0.0
  0
SPLINE
  5
9D
330
70
100
AcDbEntity
  8
Layer 1
 62
   250
420
  2301728
370
    35
100
AcDbSpline
210
0.0
220
0.0
230
1.0
 70
     9
 71
     3
 72
    29
 73
    25
 74
     0
 42
0.0000000001
 43
0.0000000001
 40
0.0
 40
0.0
 40
0.0
 40
0.0
 40
1.0
 40
1.0
 40
1.0
 40
2.0
 40
2.0
 40
2.0
 40
3.0
 40
3.0
 40
3.0
 40
4.0
 40
4.0
 40
4.0
 40
5.0
 40
5.0
 40
5.0
 40
6.0
 40
6.0
 40
6.0
 40
7.0
 40
7.0
 40
7.0
 40
8.0
 40
8.0
 40
8.0
 40
8.0
 10
137.0139310293023
 20
-146.1008657817817
 30
0.0
 10
137.0139310293023
 20
-146.6499066685884
 30
0.0
 10
136.5688480700409
 20
-147.0950070704541
 30
0.0
 10
136.0197897406293
 20
-147.0950070704541
 30
0.0
 10
136.0197897406293
 20
-147.0950070704541
 30
0.0
 10
128.1223362273436
 20
-147.0950070704541
 30
0.0
 10
128.1223362273436
 20
-147.0950070704541
 30
0.0
 10
127.573277897932
 20
-147.0950070704541
 30
0.0
 10
127.1281774960657
 20
-146.6499066685884
 30
0.0
 10
127.1281774960657
 20
-146.1008657817817
 30
0.0
 10
127.1281774960657
 20
-146.1008657817817
 30
0.0
 10
127.1281774960657
 20
-137.1351922351437
 30
0.0
 10
127.1281774960657
 20
-137.1351922351437
 30
0.0
 10
127.1281774960657
 20
-136.5861339057315
 30
0.0
 10
127.573277897932
 20
-136.1410509464713
 30
0.0
 10
128.1223362273436
 20
-136.1410509464713
 30
0.0
 10
128.1223362273436
 20
-136.1410509464713
 30
0.0
 10
136.0197897406293
 20
-136.1410509464713
 30
0.0
 10
136.0197897406293
 20
-136.1410509464713
 30
0.0
 10
136.5688480700409
 20
-136.1410509464713
 30
0.0
 10
137.0139310293023
 20
-136.5861339057315
 30
0.0
 10
137.0139310293023
 20
-137.1351922351437
 30
0.0
 10
137.0139310293023
 20
-137.1351922351437
 30
0.0
 10
137.0139310293023
 20
-146.1008657817817
 30
0.0
 10
137.0139310293023
 20
-146.1008657817817
 30
0.0
  0
SPLINE
  5
9E
330
70
100
AcDbEntity
  8
Layer 1
 62
   250
420
  2301728
370
    35
100
AcDbSpline
210
0.0
220
0.0
230
1.0
 70
     9
 71
     3
 72
    29
 73
    25
 74
     0
 42
0.0000000001
 43
0.0000000001
 40
0.0
 40
0.0
 40
0.0
 40
0.0
 40
1.0
 40
1.0
 40
1.0
 40
2.0
 40
2.0
 40
2.0
 40
3.0
 40
3.0
 40
3.0
 40
4.0
 40
4.0
 40
4.0
 40
5.0
 40
5.0
 40
5.0
 40
6.0
 40
6.0
 40
6.0
 40
7.0
 40
7.0
 40
7.0
 40
8.0
 40
8.0
 40
8.0
 40
8.0
 10
136.6608752555673
 20
-161.7493770221287
 30
0.0
 10
136.6608752555673
 20
-162.2984353515416
 30
0.0
 10
136.215774853701
 20
-162.7435183108017
 30
0.0
 10
135.6667339668943
 20
-162.7435183108017
 30
0.0
 10
135.6667339668943
 20
-162.7435183108017
 30
0.0
 10
127.7692630110037
 20
-162.7435183108017
 30
0.0
 10
127.7692630110037
 20
-162.7435183108017
 30
0.0
 10
127.2202221241963
 20
-162.7435183108017
 30
0.0
 10
126.7751217223307
 20
-162.2984353515416
 30
0.0
 10
126.7751217223307
 20
-161.7493770221287
 30
0.0
 10
126.7751217223307
 20
-161.7493770221287
 30
0.0
 10
126.7751217223307
 20
-152.7837034754913
 30
0.0
 10
126.7751217223307
 20
-152.7837034754913
 30
0.0
 10
126.7751217223307
 20
-152.2346625886853
 30
0.0
 10
127.2202221241963
 20
-151.789562186819
 30
0.0
 10
127.7692630110037
 20
-151.789562186819
 30
0.0
 10
127.7692630110037
 20
-151.789562186819
 30
0.0
 10
135.6667339668943
 20
-151.789562186819
 30
0.0
 10
135.6667339668943
 20
-151.789562186819
 30
0.0
 10
136.215774853701
 20
-151.789562186819
 30
0.0
 10
136.6608752555673
 20
-152.2346625886853
 30
0.0
 10
136.6608752555673
 20
-152.7837034754913
 30
0.0
 10
136.6608752555673
 20
-152.7837034754913
 30
0.0
 10
136.6608752555673
 20
-161.7493770221287
 30
0.0
 10
136.6608752555673
 20
-161.7493770221287
 30
0.0
  0
SPLINE
  5
9F
330
70
100
AcDbEntity
  8
Layer 1
 62
   250
420
  2301728
370
    35
100
AcDbSpline
210
0.0
220
0.0
230
1.0
 70
    11
 71
     3
 72
    41
 73
    37
 74
     0
 42
0.0000000001
 43
0.0000000001
 40
0.0
 40
0.0
 40
0.0
 40
0.0
 40
1.0
 40
1.0
 40
1.0
 40
2.0
 40
2.0
 40
2.0
 40
3.0
 40
3.0
 40
3.0
 40
4.0
 40
4.0
 40
4.0
 40
5.0
 40
5.0
 40
5.0
 40
6.0
 40
6.0
 40
6.0
 40
7.0
 40
7.0
 40
7.0
 40
8.0
 40
8.0
 40
8.0
 40
9.0
 40
9.0
 40
9.0
 40
10.0
 40
10.0
 40
10.0
 40
11.0
 40
11.0
 40
11.0
 40
12.0
 40
12.0
 40
12.0
 40
12.0
 10
123.24449421456
 20
-115.4067643956423
 30
0.0
 10
123.24449421456
 20
-115.4067643956423
 30
0.0
 10
123.24449421456
 20
-195.996624319472
 30
0.0
 10
123.24449421456
 20
-195.996624319472
 30
0.0
 10
123.24449421456
 20
-195.996624319472
 30
0.0
 10
152.1305997916618
 20
-195.996624319472
 30
0.0
 10
152.1305997916618
 20
-195.996624319472
 30
0.0
 10
151.5815414622502
 20
-195.996624319472
 30
0.0
 10
151.1364410603846
 20
-195.5515239176064
 30
0.0
 10
151.1364410603846
 20
-195.0024655881942
 30
0.0
 10
151.1364410603846
 20
-195.0024655881942
 30
0.0
 10
151.1364410603846
 20
-180.5598314221706
 30
0.0
 10
151.1364410603846
 20
-180.5598314221706
 30
0.0
 10
151.1364410603846
 20
-180.0107730927578
 30
0.0
 10
151.5815414622502
 20
-179.5656726908921
 30
0.0
 10
152.1305997916618
 20
-179.5656726908921
 30
0.0
 10
152.1305997916618
 20
-179.5656726908921
 30
0.0
 10
160.0280533049482
 20
-179.5656726908921
 30
0.0
 10
160.0280533049482
 20
-179.5656726908921
 30
0.0
 10
160.5771116343598
 20
-179.5656726908921
 30
0.0
 10
161.0221945936206
 20
-180.0107730927578
 30
0.0
 10
161.0221945936206
 20
-180.5598314221706
 30
0.0
 10
161.0221945936206
 20
-180.5598314221706
 30
0.0
 10
161.0221945936206
 20
-195.0024655881942
 30
0.0
 10
161.0221945936206
 20
-195.0024655881942
 30
0.0
 10
161.0221945936206
 20
-195.5515239176064
 30
0.0
 10
160.5771116343598
 20
-195.996624319472
 30
0.0
 10
160.0280533049482
 20
-195.996624319472
 30
0.0
 10
160.0280533049482
 20
-195.996624319472
 30
0.0
 10
165.2589510914663
 20
-195.996624319472
 30
0.0
 10
165.2589510914663
 20
-195.996624319472
 30
0.0
 10
165.2589510914663
 20
-195.996624319472
 30
0.0
 10
165.2589510914663
 20
-115.4067643956423
 30
0.0
 10
165.2589510914663
 20
-115.4067643956423
 30
0.0
 10
165.2589510914663
 20
-115.4067643956423
 30
0.0
 10
123.24449421456
 20
-115.4067643956423
 30
0.0
 10
123.24449421456
 20
-115.4067643956423
 30
0.0
  0
SPLINE
  5
A0
330
70
100
AcDbEntity
  8
Layer 1
 62
   250
420
  2301728
370
    35
100
AcDbSpline
210
0.0
220
0.0
230
1.0
 70
     9
 71
     3
 72
    29
 73
    25
 74
     0
 42
0.0000000001
 43
0.0000000001
 40
0.0
 40
0.0
 40
0.0
 40
0.0
 40
1.0
 40
1.0
 40
1.0
 40
2.0
 40
2.0
 40
2.0
 40
3.0
 40
3.0
 40
3.0
 40
4.0
 40
4.0
 40
4.0
 40
5.0
 40
5.0
 40
5.0
 40
6.0
 40
6.0
 40
6.0
 40
7.0
 40
7.0
 40
7.0
 40
8.0
 40
8.0
 40
8.0
 40
8.0
 10
122.1038001562159
 20
-167.4247298341172
 30
0.0
 10
122.1038001562159
 20
-167.9737881635294
 30
0.0
 10
121.6586997543503
 20
-168.4188885653957
 30
0.0
 10
121.1096588675429
 20
-168.4188885653957
 30
0.0
 10
121.1096588675429
 20
-168.4188885653957
 30
0.0
 10
115.0961113815294
 20
-168.4188885653957
 30
0.0
 10
115.0961113815294
 20
-168.4188885653957
 30
0.0
 10
114.5470704947227
 20
-168.4188885653957
 30
0.0
 10
114.1019700928571
 20
-167.9737881635294
 30
0.0
 10
114.1019700928571
 20
-167.4247298341172
 30
0.0
 10
114.1019700928571
 20
-167.4247298341172
 30
0.0
 10
114.1019700928571
 20
-161.4111997907092
 30
0.0
 10
114.1019700928571
 20
-161.4111997907092
 30
0.0
 10
114.1019700928571
 20
-160.8621414612976
 30
0.0
 10
114.5470704947227
 20
-160.4170585020363
 30
0.0
 10
115.0961113815294
 20
-160.4170585020363
 30
0.0
 10
115.0961113815294
 20
-160.4170585020363
 30
0.0
 10
121.1096588675429
 20
-160.4170585020363
 30
0.0
 10
121.1096588675429
 20
-160.4170585020363
 30
0.0
 10
121.6586997543503
 20
-160.4170585020363
 30
0.0
 10
122.1038001562159
 20
-160.8621414612976
 30
0.0
 10
122.1038001562159
 20
-161.4111997907092
 30
0.0
 10
122.1038001562159
 20
-161.4111997907092
 30
0.0
 10
122.1038001562159
 20
-167.4247298341172
 30
0.0
 10
122.1038001562159
 20
-167.4247298341172
 30
0.0
  0
SPLINE
  5
A1
330
70
100
AcDbEntity
  8
Layer 1
 62
   250
420
  2301728
370
    35
100
AcDbSpline
210
0.0
220
0.0
230
1.0
 70
     9
 71
     3
 72
    29
 73
    25
 74
     0
 42
0.0000000001
 43
0.0000000001
 40
0.0
 40
0.0
 40
0.0
 40
0.0
 40
1.0
 40
1.0
 40
1.0
 40
2.0
 40
2.0
 40
2.0
 40
3.0
 40
3.0
 40
3.0
 40
4.0
 40
4.0
 40
4.0
 40
5.0
 40
5.0
 40
5.0
 40
6.0
 40
6.0
 40
6.0
 40
7.0
 40
7.0
 40
7.0
 40
8.0
 40
8.0
 40
8.0
 40
8.0
 10
113.816190447737
 20
-150.8373529212704
 30
0.0
 10
113.816190447737
 20
-150.2882945918588
 30
0.0
 10
114.2612908496033
 20
-149.8432116325981
 30
0.0
 10
114.81033173641
 20
-149.8432116325981
 30
0.0
 10
114.81033173641
 20
-149.8432116325981
 30
0.0
 10
120.8238792224235
 20
-149.8432116325981
 30
0.0
 10
120.8238792224235
 20
-149.8432116325981
 30
0.0
 10
121.3729201092302
 20
-149.8432116325981
 30
0.0
 10
121.8180205110958
 20
-150.2882945918588
 30
0.0
 10
121.8180205110958
 20
-150.8373529212704
 30
0.0
 10
121.8180205110958
 20
-150.8373529212704
 30
0.0
 10
121.8180205110958
 20
-156.8508829646791
 30
0.0
 10
121.8180205110958
 20
-156.8508829646791
 30
0.0
 10
121.8180205110958
 20
-157.3999412940913
 30
0.0
 10
121.3729201092302
 20
-157.8450416959569
 30
0.0
 10
120.8238792224235
 20
-157.8450416959569
 30
0.0
 10
120.8238792224235
 20
-157.8450416959569
 30
0.0
 10
114.81033173641
 20
-157.8450416959569
 30
0.0
 10
114.81033173641
 20
-157.8450416959569
 30
0.0
 10
114.2612908496033
 20
-157.8450416959569
 30
0.0
 10
113.816190447737
 20
-157.3999412940913
 30
0.0
 10
113.816190447737
 20
-156.8508829646791
 30
0.0
 10
113.816190447737
 20
-156.8508829646791
 30
0.0
 10
113.816190447737
 20
-150.8373529212704
 30
0.0
 10
113.816190447737
 20
-150.8373529212704
 30
0.0
  0
SPLINE
  5
A2
330
70
100
AcDbEntity
  8
Layer 1
 62
   250
420
  2301728
370
    35
100
AcDbSpline
210
0.0
220
0.0
230
1.0
 70
     9
 71
     3
 72
    29
 73
    25
 74
     0
 42
0.0000000001
 43
0.0000000001
 40
0.0
 40
0.0
 40
0.0
 40
0.0
 40
1.0
 40
1.0
 40
1.0
 40
2.0
 40
2.0
 40
2.0
 40
3.0
 40
3.0
 40
3.0
 40
4.0
 40
4.0
 40
4.0
 40
5.0
 40
5.0
 40
5.0
 40
6.0
 40
6.0
 40
6.0
 40
7.0
 40
7.0
 40
7.0
 40
8.0
 40
8.0
 40
8.0
 40
8.0
 10
111.8157329318972
 20
-156.8508829646791
 30
0.0
 10
111.8157329318972
 20
-157.3999412940913
 30
0.0
 10
111.3706325300315
 20
-157.8450416959569
 30
0.0
 10
110.8215916432248
 20
-157.8450416959569
 30
0.0
 10
110.8215916432248
 20
-157.8450416959569
 30
0.0
 10
104.8080441572107
 20
-157.8450416959569
 30
0.0
 10
104.8080441572107
 20
-157.8450416959569
 30
0.0
 10
104.259003270404
 20
-157.8450416959569
 30
0.0
 10
103.8139028685384
 20
-157.3999412940913
 30
0.0
 10
103.8139028685384
 20
-156.8508829646791
 30
0.0
 10
103.8139028685384
 20
-156.8508829646791
 30
0.0
 10
103.8139028685384
 20
-150.8373529212704
 30
0.0
 10
103.8139028685384
 20
-150.8373529212704
 30
0.0
 10
103.8139028685384
 20
-150.2882945918588
 30
0.0
 10
104.259003270404
 20
-149.8432116325981
 30
0.0
 10
104.8080441572107
 20
-149.8432116325981
 30
0.0
 10
104.8080441572107
 20
-149.8432116325981
 30
0.0
 10
110.8215916432248
 20
-149.8432116325981
 30
0.0
 10
110.8215916432248
 20
-149.8432116325981
 30
0.0
 10
111.3706325300315
 20
-149.8432116325981
 30
0.0
 10
111.8157329318972
 20
-150.2882945918588
 30
0.0
 10
111.8157329318972
 20
-150.8373529212704
 30
0.0
 10
111.8157329318972
 20
-150.8373529212704
 30
0.0
 10
111.8157329318972
 20
-156.8508829646791
 30
0.0
 10
111.8157329318972
 20
-156.8508829646791
 30
0.0
  0
SPLINE
  5
A3
330
70
100
AcDbEntity
  8
Layer 1
 62
   250
420
  2301728
370
    35
100
AcDbSpline
210
0.0
220
0.0
230
1.0
 70
     9
 71
     3
 72
    29
 73
    25
 74
     0
 42
0.0000000001
 43
0.0000000001
 40
0.0
 40
0.0
 40
0.0
 40
0.0
 40
1.0
 40
1.0
 40
1.0
 40
2.0
 40
2.0
 40
2.0
 40
3.0
 40
3.0
 40
3.0
 40
4.0
 40
4.0
 40
4.0
 40
5.0
 40
5.0
 40
5.0
 40
6.0
 40
6.0
 40
6.0
 40
7.0
 40
7.0
 40
7.0
 40
8.0
 40
8.0
 40
8.0
 40
8.0
 10
110.6726143514175
 20
-178.5701359937968
 30
0.0
 10
110.6726143514175
 20
-179.1191943232084
 30
0.0
 10
110.2275139495519
 20
-179.564294725074
 30
0.0
 10
109.6784730627446
 20
-179.564294725074
 30
0.0
 10
109.6784730627446
 20
-179.564294725074
 30
0.0
 10
103.6649255767311
 20
-179.564294725074
 30
0.0
 10
103.6649255767311
 20
-179.564294725074
 30
0.0
 10
103.1158846899244
 20
-179.564294725074
 30
0.0
 10
102.6707842880587
 20
-179.1191943232084
 30
0.0
 10
102.6707842880587
 20
-178.5701359937968
 30
0.0
 10
102.6707842880587
 20
-178.5701359937968
 30
0.0
 10
102.6707842880587
 20
-172.5566059503876
 30
0.0
 10
102.6707842880587
 20
-172.5566059503876
 30
0.0
 10
102.6707842880587
 20
-172.0075476209759
 30
0.0
 10
103.1158846899244
 20
-171.5624646617152
 30
0.0
 10
103.6649255767311
 20
-171.5624646617152
 30
0.0
 10
103.6649255767311
 20
-171.5624646617152
 30
0.0
 10
109.6784730627446
 20
-171.5624646617152
 30
0.0
 10
109.6784730627446
 20
-171.5624646617152
 30
0.0
 10
110.2275139495519
 20
-171.5624646617152
 30
0.0
 10
110.6726143514175
 20
-172.0075476209759
 30
0.0
 10
110.6726143514175
 20
-172.5566059503876
 30
0.0
 10
110.6726143514175
 20
-172.5566059503876
 30
0.0
 10
110.6726143514175
 20
-178.5701359937968
 30
0.0
 10
110.6726143514175
 20
-178.5701359937968
 30
0.0
  0
SPLINE
  5
A4
330
70
100
AcDbEntity
  8
Layer 1
 62
   250
420
  2301728
370
    35
100
AcDbSpline
210
0.0
220
0.0
230
1.0
 70
     9
 71
     3
 72
    29
 73
    25
 74
     0
 42
0.0000000001
 43
0.0000000001
 40
0.0
 40
0.0
 40
0.0
 40
0.0
 40
1.0
 40
1.0
 40
1.0
 40
2.0
 40
2.0
 40
2.0
 40
3.0
 40
3.0
 40
3.0
 40
4.0
 40
4.0
 40
4.0
 40
5.0
 40
5.0
 40
5.0
 40
6.0
 40
6.0
 40
6.0
 40
7.0
 40
7.0
 40
7.0
 40
8.0
 40
8.0
 40
8.0
 40
8.0
 10
110.6726143514175
 20
-190.0013217985952
 30
0.0
 10
110.6726143514175
 20
-190.5503801280068
 30
0.0
 10
110.2275139495519
 20
-190.9954805298724
 30
0.0
 10
109.6784730627446
 20
-190.9954805298724
 30
0.0
 10
109.6784730627446
 20
-190.9954805298724
 30
0.0
 10
103.6649255767311
 20
-190.9954805298724
 30
0.0
 10
103.6649255767311
 20
-190.9954805298724
 30
0.0
 10
103.1158846899244
 20
-190.9954805298724
 30
0.0
 10
102.6707842880587
 20
-190.5503801280068
 30
0.0
 10
102.6707842880587
 20
-190.0013217985952
 30
0.0
 10
102.6707842880587
 20
-190.0013217985952
 30
0.0
 10
102.6707842880587
 20
-183.9877917551859
 30
0.0
 10
102.6707842880587
 20
-183.9877917551859
 30
0.0
 10
102.6707842880587
 20
-183.4387334257743
 30
0.0
 10
103.1158846899244
 20
-182.9936504665142
 30
0.0
 10
103.6649255767311
 20
-182.9936504665142
 30
0.0
 10
103.6649255767311
 20
-182.9936504665142
 30
0.0
 10
109.6784730627446
 20
-182.9936504665142
 30
0.0
 10
109.6784730627446
 20
-182.9936504665142
 30
0.0
 10
110.2275139495519
 20
-182.9936504665142
 30
0.0
 10
110.6726143514175
 20
-183.4387334257743
 30
0.0
 10
110.6726143514175
 20
-183.9877917551859
 30
0.0
 10
110.6726143514175
 20
-183.9877917551859
 30
0.0
 10
110.6726143514175
 20
-190.0013217985952
 30
0.0
 10
110.6726143514175
 20
-190.0013217985952
 30
0.0
  0
SPLINE
  5
A5
330
70
100
AcDbEntity
  8
Layer 1
 62
   250
420
  2301728
370
    35
100
AcDbSpline
210
0.0
220
0.0
230
1.0
 70
     9
 71
     3
 72
    29
 73
    25
 74
     0
 42
0.0000000001
 43
0.0000000001
 40
0.0
 40
0.0
 40
0.0
 40
0.0
 40
1.0
 40
1.0
 40
1.0
 40
2.0
 40
2.0
 40
2.0
 40
3.0
 40
3.0
 40
3.0
 40
4.0
 40
4.0
 40
4.0
 40
5.0
 40
5.0
 40
5.0
 40
6.0
 40
6.0
 40
6.0
 40
7.0
 40
7.0
 40
7.0
 40
8.0
 40
8.0
 40
8.0
 40
8.0
 10
100.9561064173389
 20
-156.8508829646791
 30
0.0
 10
100.9561064173389
 20
-157.3999412940913
 30
0.0
 10
100.5110060154733
 20
-157.8450416959569
 30
0.0
 10
99.961965128666
 20
-157.8450416959569
 30
0.0
 10
99.961965128666
 20
-157.8450416959569
 30
0.0
 10
93.94841764265249
 20
-157.8450416959569
 30
0.0
 10
93.94841764265249
 20
-157.8450416959569
 30
0.0
 10
93.39937675584579
 20
-157.8450416959569
 30
0.0
 10
92.95427635397953
 20
-157.3999412940913
 30
0.0
 10
92.95427635397953
 20
-156.8508829646791
 30
0.0
 10
92.95427635397953
 20
-156.8508829646791
 30
0.0
 10
92.95427635397953
 20
-150.8373529212704
 30
0.0
 10
92.95427635397953
 20
-150.8373529212704
 30
0.0
 10
92.95427635397953
 20
-150.2882945918588
 30
0.0
 10
93.39937675584579
 20
-149.8432116325981
 30
0.0
 10
93.94841764265249
 20
-149.8432116325981
 30
0.0
 10
93.94841764265249
 20
-149.8432116325981
 30
0.0
 10
99.961965128666
 20
-149.8432116325981
 30
0.0
 10
99.961965128666
 20
-149.8432116325981
 30
0.0
 10
100.5110060154733
 20
-149.8432116325981
 30
0.0
 10
100.9561064173389
 20
-150.2882945918588
 30
0.0
 10
100.9561064173389
 20
-150.8373529212704
 30
0.0
 10
100.9561064173389
 20
-150.8373529212704
 30
0.0
 10
100.9561064173389
 20
-156.8508829646791
 30
0.0
 10
100.9561064173389
 20
-156.8508829646791
 30
0.0
  0
SPLINE
  5
A6
330
70
100
AcDbEntity
  8
Layer 1
 62
   250
420
  2301728
370
    35
100
AcDbSpline
210
0.0
220
0.0
230
1.0
 70
     9
 71
     3
 72
    29
 73
    25
 74
     0
 42
0.0000000001
 43
0.0000000001
 40
0.0
 40
0.0
 40
0.0
 40
0.0
 40
1.0
 40
1.0
 40
1.0
 40
2.0
 40
2.0
 40
2.0
 40
3.0
 40
3.0
 40
3.0
 40
4.0
 40
4.0
 40
4.0
 40
5.0
 40
5.0
 40
5.0
 40
6.0
 40
6.0
 40
6.0
 40
7.0
 40
7.0
 40
7.0
 40
8.0
 40
8.0
 40
8.0
 40
8.0
 10
100.9561064173389
 20
-167.4247298341172
 30
0.0
 10
100.9561064173389
 20
-167.9737881635294
 30
0.0
 10
100.5110060154733
 20
-168.4188885653957
 30
0.0
 10
99.961965128666
 20
-168.4188885653957
 30
0.0
 10
99.961965128666
 20
-168.4188885653957
 30
0.0
 10
93.94841764265249
 20
-168.4188885653957
 30
0.0
 10
93.94841764265249
 20
-168.4188885653957
 30
0.0
 10
93.39937675584579
 20
-168.4188885653957
 30
0.0
 10
92.95427635397953
 20
-167.9737881635294
 30
0.0
 10
92.95427635397953
 20
-167.4247298341172
 30
0.0
 10
92.95427635397953
 20
-167.4247298341172
 30
0.0
 10
92.95427635397953
 20
-161.4111997907092
 30
0.0
 10
92.95427635397953
 20
-161.4111997907092
 30
0.0
 10
92.95427635397953
 20
-160.8621414612976
 30
0.0
 10
93.39937675584579
 20
-160.4170585020363
 30
0.0
 10
93.94841764265249
 20
-160.4170585020363
 30
0.0
 10
93.94841764265249
 20
-160.4170585020363
 30
0.0
 10
99.961965128666
 20
-160.4170585020363
 30
0.0
 10
99.961965128666
 20
-160.4170585020363
 30
0.0
 10
100.5110060154733
 20
-160.4170585020363
 30
0.0
 10
100.9561064173389
 20
-160.8621414612976
 30
0.0
 10
100.9561064173389
 20
-161.4111997907092
 30
0.0
 10
100.9561064173389
 20
-161.4111997907092
 30
0.0
 10
100.9561064173389
 20
-167.4247298341172
 30
0.0
 10
100.9561064173389
 20
-167.4247298341172
 30
0.0
  0
SPLINE
  5
A7
330
70
100
AcDbEntity
  8
Layer 1
 62
   250
420
  2301728
370
    35
100
AcDbSpline
210
0.0
220
0.0
230
1.0
 70
     9
 71
     3
 72
    29
 73
    25
 74
     0
 42
0.0000000001
 43
0.0000000001
 40
0.0
 40
0.0
 40
0.0
 40
0.0
 40
1.0
 40
1.0
 40
1.0
 40
2.0
 40
2.0
 40
2.0
 40
3.0
 40
3.0
 40
3.0
 40
4.0
 40
4.0
 40
4.0
 40
5.0
 40
5.0
 40
5.0
 40
6.0
 40
6.0
 40
6.0
 40
7.0
 40
7.0
 40
7.0
 40
8.0
 40
8.0
 40
8.0
 40
8.0
 10
100.6703267722188
 20
-178.8559156389162
 30
0.0
 10
100.6703267722188
 20
-179.4049739683285
 30
0.0
 10
100.2252263703526
 20
-179.8500743701941
 30
0.0
 10
99.67618548354593
 20
-179.8500743701941
 30
0.0
 10
99.67618548354593
 20
-179.8500743701941
 30
0.0
 10
93.66263799753241
 20
-179.8500743701941
 30
0.0
 10
93.66263799753241
 20
-179.8500743701941
 30
0.0
 10
93.11359711072572
 20
-179.8500743701941
 30
0.0
 10
92.66849670885944
 20
-179.4049739683285
 30
0.0
 10
92.66849670885944
 20
-178.8559156389162
 30
0.0
 10
92.66849670885944
 20
-178.8559156389162
 30
0.0
 10
92.66849670885944
 20
-172.8423855955076
 30
0.0
 10
92.66849670885944
 20
-172.8423855955076
 30
0.0
 10
92.66849670885944
 20
-172.293327266096
 30
0.0
 10
93.11359711072572
 20
-171.8482443068353
 30
0.0
 10
93.66263799753241
 20
-171.8482443068353
 30
0.0
 10
93.66263799753241
 20
-171.8482443068353
 30
0.0
 10
99.67618548354593
 20
-171.8482443068353
 30
0.0
 10
99.67618548354593
 20
-171.8482443068353
 30
0.0
 10
100.2252263703526
 20
-171.8482443068353
 30
0.0
 10
100.6703267722188
 20
-172.293327266096
 30
0.0
 10
100.6703267722188
 20
-172.8423855955076
 30
0.0
 10
100.6703267722188
 20
-172.8423855955076
 30
0.0
 10
100.6703267722188
 20
-178.8559156389162
 30
0.0
 10
100.6703267722188
 20
-178.8559156389162
 30
0.0
  0
SPLINE
  5
A8
330
70
100
AcDbEntity
  8
Layer 1
 62
   250
420
  2301728
370
    35
100
AcDbSpline
210
0.0
220
0.0
230
1.0
 70
    11
 71
     3
 72
    41
 73
    37
 74
     0
 42
0.0000000001
 43
0.0000000001
 40
0.0
 40
0.0
 40
0.0
 40
0.0
 40
1.0
 40
1.0
 40
1.0
 40
2.0
 40
2.0
 40
2.0
 40
3.0
 40
3.0
 40
3.0
 40
4.0
 40
4.0
 40
4.0
 40
5.0
 40
5.0
 40
5.0
 40
6.0
 40
6.0
 40
6.0
 40
7.0
 40
7.0
 40
7.0
 40
8.0
 40
8.0
 40
8.0
 40
9.0
 40
9.0
 40
9.0
 40
10.0
 40
10.0
 40
10.0
 40
11.0
 40
11.0
 40
11.0
 40
12.0
 40
12.0
 40
12.0
 40
12.0
 10
89.81070025766001
 20
-145.2707373106782
 30
0.0
 10
89.81070025766001
 20
-145.2707373106782
 30
0.0
 10
89.81070025766001
 20
-204.1413442053906
 30
0.0
 10
89.81070025766001
 20
-204.1413442053906
 30
0.0
 10
89.81070025766001
 20
-204.1413442053906
 30
0.0
 10
113.3814335108103
 20
-204.1413442053906
 30
0.0
 10
113.3814335108103
 20
-204.1413442053906
 30
0.0
 10
112.8323926240029
 20
-204.1413442053906
 30
0.0
 10
112.3872922221373
 20
-203.6962438035249
 30
0.0
 10
112.3872922221373
 20
-203.1471854741134
 30
0.0
 10
112.3872922221373
 20
-203.1471854741134
 30
0.0
 10
112.3872922221373
 20
-193.1327403990256
 30
0.0
 10
112.3872922221373
 20
-193.1327403990256
 30
0.0
 10
112.3872922221373
 20
-192.5836820696128
 30
0.0
 10
112.8323926240029
 20
-192.1385991103527
 30
0.0
 10
113.3814335108103
 20
-192.1385991103527
 30
0.0
 10
113.3814335108103
 20
-192.1385991103527
 30
0.0
 10
119.3949809968238
 20
-192.1385991103527
 30
0.0
 10
119.3949809968238
 20
-192.1385991103527
 30
0.0
 10
119.9440218836305
 20
-192.1385991103527
 30
0.0
 10
120.3891222854961
 20
-192.5836820696128
 30
0.0
 10
120.3891222854961
 20
-193.1327403990256
 30
0.0
 10
120.3891222854961
 20
-193.1327403990256
 30
0.0
 10
120.3891222854961
 20
-203.1471854741134
 30
0.0
 10
120.3891222854961
 20
-203.1471854741134
 30
0.0
 10
120.3891222854961
 20
-203.6962438035249
 30
0.0
 10
119.9440218836305
 20
-204.1413442053906
 30
0.0
 10
119.3949809968238
 20
-204.1413442053906
 30
0.0
 10
119.3949809968238
 20
-204.1413442053906
 30
0.0
 10
123.8184780269357
 20
-204.1413442053906
 30
0.0
 10
123.8184780269357
 20
-204.1413442053906
 30
0.0
 10
123.8184780269357
 20
-204.1413442053906
 30
0.0
 10
123.8184780269357
 20
-145.2707373106782
 30
0.0
 10
123.8184780269357
 20
-145.2707373106782
 30
0.0
 10
123.8184780269357
 20
-145.2707373106782
 30
0.0
 10
89.81070025766001
 20
-145.2707373106782
 30
0.0
 10
89.81070025766001
 20
-145.2707373106782
 30
0.0
  0
SPLINE
  5
A9
330
70
100
AcDbEntity
  8
Layer 1
 62
   250
420
  2301728
370
    35
100
AcDbSpline
210
0.0
220
0.0
230
1.0
 70
     9
 71
     3
 72
    29
 73
    25
 74
     0
 42
0.0000000001
 43
0.0000000001
 40
0.0
 40
0.0
 40
0.0
 40
0.0
 40
1.0
 40
1.0
 40
1.0
 40
2.0
 40
2.0
 40
2.0
 40
3.0
 40
3.0
 40
3.0
 40
4.0
 40
4.0
 40
4.0
 40
5.0
 40
5.0
 40
5.0
 40
6.0
 40
6.0
 40
6.0
 40
7.0
 40
7.0
 40
7.0
 40
8.0
 40
8.0
 40
8.0
 40
8.0
 10
235.5583192688414
 20
-165.9958316085181
 30
0.0
 10
235.5583192688414
 20
-166.5448899379297
 30
0.0
 10
235.1132188669758
 20
-166.9899903397953
 30
0.0
 10
234.5641779801685
 20
-166.9899903397953
 30
0.0
 10
234.5641779801685
 20
-166.9899903397953
 30
0.0
 10
228.550630494155
 20
-166.9899903397953
 30
0.0
 10
228.550630494155
 20
-166.9899903397953
 30
0.0
 10
228.0015896073489
 20
-166.9899903397953
 30
0.0
 10
227.5564892054826
 20
-166.5448899379297
 30
0.0
 10
227.5564892054826
 20
-165.9958316085181
 30
0.0
 10
227.5564892054826
 20
-165.9958316085181
 30
0.0
 10
227.5564892054826
 20
-159.9823015651089
 30
0.0
 10
227.5564892054826
 20
-159.9823015651089
 30
0.0
 10
227.5564892054826
 20
-159.4332432356973
 30
0.0
 10
228.0015896073489
 20
-158.9881602764372
 30
0.0
 10
228.550630494155
 20
-158.9881602764372
 30
0.0
 10
228.550630494155
 20
-158.9881602764372
 30
0.0
 10
234.5641779801685
 20
-158.9881602764372
 30
0.0
 10
234.5641779801685
 20
-158.9881602764372
 30
0.0
 10
235.1132188669758
 20
-158.9881602764372
 30
0.0
 10
235.5583192688414
 20
-159.4332432356973
 30
0.0
 10
235.5583192688414
 20
-159.9823015651089
 30
0.0
 10
235.5583192688414
 20
-159.9823015651089
 30
0.0
 10
235.5583192688414
 20
-165.9958316085181
 30
0.0
 10
235.5583192688414
 20
-165.9958316085181
 30
0.0
  0
SPLINE
  5
AA
330
70
100
AcDbEntity
  8
Layer 1
 62
   250
420
  2301728
370
    35
100
AcDbSpline
210
0.0
220
0.0
230
1.0
 70
     9
 71
     3
 72
    29
 73
    25
 74
     0
 42
0.0000000001
 43
0.0000000001
 40
0.0
 40
0.0
 40
0.0
 40
0.0
 40
1.0
 40
1.0
 40
1.0
 40
2.0
 40
2.0
 40
2.0
 40
3.0
 40
3.0
 40
3.0
 40
4.0
 40
4.0
 40
4.0
 40
5.0
 40
5.0
 40
5.0
 40
6.0
 40
6.0
 40
6.0
 40
7.0
 40
7.0
 40
7.0
 40
8.0
 40
8.0
 40
8.0
 40
8.0
 10
227.2707095603625
 20
-149.4084546956707
 30
0.0
 10
227.2707095603625
 20
-148.8593963662591
 30
0.0
 10
227.7158099622288
 20
-148.4143134069984
 30
0.0
 10
228.2648508490355
 20
-148.4143134069984
 30
0.0
 10
228.2648508490355
 20
-148.4143134069984
 30
0.0
 10
234.278398335049
 20
-148.4143134069984
 30
0.0
 10
234.278398335049
 20
-148.4143134069984
 30
0.0
 10
234.8274392218557
 20
-148.4143134069984
 30
0.0
 10
235.2725396237214
 20
-148.8593963662591
 30
0.0
 10
235.2725396237214
 20
-149.4084546956707
 30
0.0
 10
235.2725396237214
 20
-149.4084546956707
 30
0.0
 10
235.2725396237214
 20
-155.4219847390793
 30
0.0
 10
235.2725396237214
 20
-155.4219847390793
 30
0.0
 10
235.2725396237214
 20
-155.9710430684909
 30
0.0
 10
234.8274392218557
 20
-156.4161434703565
 30
0.0
 10
234.278398335049
 20
-156.4161434703565
 30
0.0
 10
234.278398335049
 20
-156.4161434703565
 30
0.0
 10
228.2648508490355
 20
-156.4161434703565
 30
0.0
 10
228.2648508490355
 20
-156.4161434703565
 30
0.0
 10
227.7158099622288
 20
-156.4161434703565
 30
0.0
 10
227.2707095603625
 20
-155.9710430684909
 30
0.0
 10
227.2707095603625
 20
-155.4219847390793
 30
0.0
 10
227.2707095603625
 20
-155.4219847390793
 30
0.0
 10
227.2707095603625
 20
-149.4084546956707
 30
0.0
 10
227.2707095603625
 20
-149.4084546956707
 30
0.0
  0
SPLINE
  5
AB
330
70
100
AcDbEntity
  8
Layer 1
 62
   250
420
  2301728
370
    35
100
AcDbSpline
210
0.0
220
0.0
230
1.0
 70
     9
 71
     3
 72
    29
 73
    25
 74
     0
 42
0.0000000001
 43
0.0000000001
 40
0.0
 40
0.0
 40
0.0
 40
0.0
 40
1.0
 40
1.0
 40
1.0
 40
2.0
 40
2.0
 40
2.0
 40
3.0
 40
3.0
 40
3.0
 40
4.0
 40
4.0
 40
4.0
 40
5.0
 40
5.0
 40
5.0
 40
6.0
 40
6.0
 40
6.0
 40
7.0
 40
7.0
 40
7.0
 40
8.0
 40
8.0
 40
8.0
 40
8.0
 10
225.2702520445227
 20
-155.4219847390793
 30
0.0
 10
225.2702520445227
 20
-155.9710430684909
 30
0.0
 10
224.8251516426571
 20
-156.4161434703565
 30
0.0
 10
224.2761107558504
 20
-156.4161434703565
 30
0.0
 10
224.2761107558504
 20
-156.4161434703565
 30
0.0
 10
218.2625632698369
 20
-156.4161434703565
 30
0.0
 10
218.2625632698369
 20
-156.4161434703565
 30
0.0
 10
217.7135223830302
 20
-156.4161434703565
 30
0.0
 10
217.2684219811639
 20
-155.9710430684909
 30
0.0
 10
217.2684219811639
 20
-155.4219847390793
 30
0.0
 10
217.2684219811639
 20
-155.4219847390793
 30
0.0
 10
217.2684219811639
 20
-149.4084546956707
 30
0.0
 10
217.2684219811639
 20
-149.4084546956707
 30
0.0
 10
217.2684219811639
 20
-148.8593963662591
 30
0.0
 10
217.7135223830302
 20
-148.4143134069984
 30
0.0
 10
218.2625632698369
 20
-148.4143134069984
 30
0.0
 10
218.2625632698369
 20
-148.4143134069984
 30
0.0
 10
224.2761107558504
 20
-148.4143134069984
 30
0.0
 10
224.2761107558504
 20
-148.4143134069984
 30
0.0
 10
224.8251516426571
 20
-148.4143134069984
 30
0.0
 10
225.2702520445227
 20
-148.8593963662591
 30
0.0
 10
225.2702520445227
 20
-149.4084546956707
 30
0.0
 10
225.2702520445227
 20
-149.4084546956707
 30
0.0
 10
225.2702520445227
 20
-155.4219847390793
 30
0.0
 10
225.2702520445227
 20
-155.4219847390793
 30
0.0
  0
SPLINE
  5
AC
330
70
100
AcDbEntity
  8
Layer 1
 62
   250
420
  2301728
370
    35
100
AcDbSpline
210
0.0
220
0.0
230
1.0
 70
     9
 71
     3
 72
    29
 73
    25
 74
     0
 42
0.0000000001
 43
0.0000000001
 40
0.0
 40
0.0
 40
0.0
 40
0.0
 40
1.0
 40
1.0
 40
1.0
 40
2.0
 40
2.0
 40
2.0
 40
3.0
 40
3.0
 40
3.0
 40
4.0
 40
4.0
 40
4.0
 40
5.0
 40
5.0
 40
5.0
 40
6.0
 40
6.0
 40
6.0
 40
7.0
 40
7.0
 40
7.0
 40
8.0
 40
8.0
 40
8.0
 40
8.0
 10
224.1271334640431
 20
-177.1412377681964
 30
0.0
 10
224.1271334640431
 20
-177.690296097608
 30
0.0
 10
223.6820330621774
 20
-178.1353964994743
 30
0.0
 10
223.1329921753701
 20
-178.1353964994743
 30
0.0
 10
223.1329921753701
 20
-178.1353964994743
 30
0.0
 10
217.1194446893566
 20
-178.1353964994743
 30
0.0
 10
217.1194446893566
 20
-178.1353964994743
 30
0.0
 10
216.5704038025499
 20
-178.1353964994743
 30
0.0
 10
216.1253034006842
 20
-177.690296097608
 30
0.0
 10
216.1253034006842
 20
-177.1412377681964
 30
0.0
 10
216.1253034006842
 20
-177.1412377681964
 30
0.0
 10
216.1253034006842
 20
-171.1277077247885
 30
0.0
 10
216.1253034006842
 20
-171.1277077247885
 30
0.0
 10
216.1253034006842
 20
-170.5786493953762
 30
0.0
 10
216.5704038025499
 20
-170.1335664361155
 30
0.0
 10
217.1194446893566
 20
-170.1335664361155
 30
0.0
 10
217.1194446893566
 20
-170.1335664361155
 30
0.0
 10
223.1329921753701
 20
-170.1335664361155
 30
0.0
 10
223.1329921753701
 20
-170.1335664361155
 30
0.0
 10
223.6820330621774
 20
-170.1335664361155
 30
0.0
 10
224.1271334640431
 20
-170.5786493953762
 30
0.0
 10
224.1271334640431
 20
-171.1277077247885
 30
0.0
 10
224.1271334640431
 20
-171.1277077247885
 30
0.0
 10
224.1271334640431
 20
-177.1412377681964
 30
0.0
 10
224.1271334640431
 20
-177.1412377681964
 30
0.0
  0
SPLINE
  5
AD
330
70
100
AcDbEntity
  8
Layer 1
 62
   250
420
  2301728
370
    35
100
AcDbSpline
210
0.0
220
0.0
230
1.0
 70
     9
 71
     3
 72
    29
 73
    25
 74
     0
 42
0.0000000001
 43
0.0000000001
 40
0.0
 40
0.0
 40
0.0
 40
0.0
 40
1.0
 40
1.0
 40
1.0
 40
2.0
 40
2.0
 40
2.0
 40
3.0
 40
3.0
 40
3.0
 40
4.0
 40
4.0
 40
4.0
 40
5.0
 40
5.0
 40
5.0
 40
6.0
 40
6.0
 40
6.0
 40
7.0
 40
7.0
 40
7.0
 40
8.0
 40
8.0
 40
8.0
 40
8.0
 10
224.1271334640431
 20
-188.5724235729948
 30
0.0
 10
224.1271334640431
 20
-189.121481902407
 30
0.0
 10
223.6820330621774
 20
-189.5665823042733
 30
0.0
 10
223.1329921753701
 20
-189.5665823042733
 30
0.0
 10
223.1329921753701
 20
-189.5665823042733
 30
0.0
 10
217.1194446893566
 20
-189.5665823042733
 30
0.0
 10
217.1194446893566
 20
-189.5665823042733
 30
0.0
 10
216.5704038025499
 20
-189.5665823042733
 30
0.0
 10
216.1253034006842
 20
-189.121481902407
 30
0.0
 10
216.1253034006842
 20
-188.5724235729948
 30
0.0
 10
216.1253034006842
 20
-188.5724235729948
 30
0.0
 10
216.1253034006842
 20
-182.5588935295868
 30
0.0
 10
216.1253034006842
 20
-182.5588935295868
 30
0.0
 10
216.1253034006842
 20
-182.0098352001746
 30
0.0
 10
216.5704038025499
 20
-181.5647522409139
 30
0.0
 10
217.1194446893566
 20
-181.5647522409139
 30
0.0
 10
217.1194446893566
 20
-181.5647522409139
 30
0.0
 10
223.1329921753701
 20
-181.5647522409139
 30
0.0
 10
223.1329921753701
 20
-181.5647522409139
 30
0.0
 10
223.6820330621774
 20
-181.5647522409139
 30
0.0
 10
224.1271334640431
 20
-182.0098352001746
 30
0.0
 10
224.1271334640431
 20
-182.5588935295868
 30
0.0
 10
224.1271334640431
 20
-182.5588935295868
 30
0.0
 10
224.1271334640431
 20
-188.5724235729948
 30
0.0
 10
224.1271334640431
 20
-188.5724235729948
 30
0.0
  0
SPLINE
  5
AE
330
70
100
AcDbEntity
  8
Layer 1
 62
   250
420
  2301728
370
    35
100
AcDbSpline
210
0.0
220
0.0
230
1.0
 70
     9
 71
     3
 72
    29
 73
    25
 74
     0
 42
0.0000000001
 43
0.0000000001
 40
0.0
 40
0.0
 40
0.0
 40
0.0
 40
1.0
 40
1.0
 40
1.0
 40
2.0
 40
2.0
 40
2.0
 40
3.0
 40
3.0
 40
3.0
 40
4.0
 40
4.0
 40
4.0
 40
5.0
 40
5.0
 40
5.0
 40
6.0
 40
6.0
 40
6.0
 40
7.0
 40
7.0
 40
7.0
 40
8.0
 40
8.0
 40
8.0
 40
8.0
 10
214.4106255299644
 20
-155.4219847390793
 30
0.0
 10
214.4106255299644
 20
-155.9710430684909
 30
0.0
 10
213.9655251280982
 20
-156.4161434703565
 30
0.0
 10
213.4164842412921
 20
-156.4161434703565
 30
0.0
 10
213.4164842412921
 20
-156.4161434703565
 30
0.0
 10
207.402936755278
 20
-156.4161434703565
 30
0.0
 10
207.402936755278
 20
-156.4161434703565
 30
0.0
 10
206.8538958684713
 20
-156.4161434703565
 30
0.0
 10
206.4087954666057
 20
-155.9710430684909
 30
0.0
 10
206.4087954666057
 20
-155.4219847390793
 30
0.0
 10
206.4087954666057
 20
-155.4219847390793
 30
0.0
 10
206.4087954666057
 20
-149.4084546956707
 30
0.0
 10
206.4087954666057
 20
-149.4084546956707
 30
0.0
 10
206.4087954666057
 20
-148.8593963662591
 30
0.0
 10
206.8538958684713
 20
-148.4143134069984
 30
0.0
 10
207.402936755278
 20
-148.4143134069984
 30
0.0
 10
207.402936755278
 20
-148.4143134069984
 30
0.0
 10
213.4164842412921
 20
-148.4143134069984
 30
0.0
 10
213.4164842412921
 20
-148.4143134069984
 30
0.0
 10
213.9655251280982
 20
-148.4143134069984
 30
0.0
 10
214.4106255299644
 20
-148.8593963662591
 30
0.0
 10
214.4106255299644
 20
-149.4084546956707
 30
0.0
 10
214.4106255299644
 20
-149.4084546956707
 30
0.0
 10
214.4106255299644
 20
-155.4219847390793
 30
0.0
 10
214.4106255299644
 20
-155.4219847390793
 30
0.0
  0
SPLINE
  5
AF
330
70
100
AcDbEntity
  8
Layer 1
 62
   250
420
  2301728
370
    35
100
AcDbSpline
210
0.0
220
0.0
230
1.0
 70
     9
 71
     3
 72
    29
 73
    25
 74
     0
 42
0.0000000001
 43
0.0000000001
 40
0.0
 40
0.0
 40
0.0
 40
0.0
 40
1.0
 40
1.0
 40
1.0
 40
2.0
 40
2.0
 40
2.0
 40
3.0
 40
3.0
 40
3.0
 40
4.0
 40
4.0
 40
4.0
 40
5.0
 40
5.0
 40
5.0
 40
6.0
 40
6.0
 40
6.0
 40
7.0
 40
7.0
 40
7.0
 40
8.0
 40
8.0
 40
8.0
 40
8.0
 10
214.4106255299644
 20
-165.9958316085181
 30
0.0
 10
214.4106255299644
 20
-166.5448899379297
 30
0.0
 10
213.9655251280982
 20
-166.9899903397953
 30
0.0
 10
213.4164842412921
 20
-166.9899903397953
 30
0.0
 10
213.4164842412921
 20
-166.9899903397953
 30
0.0
 10
207.402936755278
 20
-166.9899903397953
 30
0.0
 10
207.402936755278
 20
-166.9899903397953
 30
0.0
 10
206.8538958684713
 20
-166.9899903397953
 30
0.0
 10
206.4087954666057
 20
-166.5448899379297
 30
0.0
 10
206.4087954666057
 20
-165.9958316085181
 30
0.0
 10
206.4087954666057
 20
-165.9958316085181
 30
0.0
 10
206.4087954666057
 20
-159.9823015651089
 30
0.0
 10
206.4087954666057
 20
-159.9823015651089
 30
0.0
 10
206.4087954666057
 20
-159.4332432356973
 30
0.0
 10
206.8538958684713
 20
-158.9881602764372
 30
0.0
 10
207.402936755278
 20
-158.9881602764372
 30
0.0
 10
207.402936755278
 20
-158.9881602764372
 30
0.0
 10
213.4164842412921
 20
-158.9881602764372
 30
0.0
 10
213.4164842412921
 20
-158.9881602764372
 30
0.0
 10
213.9655251280982
 20
-158.9881602764372
 30
0.0
 10
214.4106255299644
 20
-159.4332432356973
 30
0.0
 10
214.4106255299644
 20
-159.9823015651089
 30
0.0
 10
214.4106255299644
 20
-159.9823015651089
 30
0.0
 10
214.4106255299644
 20
-165.9958316085181
 30
0.0
 10
214.4106255299644
 20
-165.9958316085181
 30
0.0
  0
SPLINE
  5
B0
330
70
100
AcDbEntity
  8
Layer 1
 62
   250
420
  2301728
370
    35
100
AcDbSpline
210
0.0
220
0.0
230
1.0
 70
     9
 71
     3
 72
    29
 73
    25
 74
     0
 42
0.0000000001
 43
0.0000000001
 40
0.0
 40
0.0
 40
0.0
 40
0.0
 40
1.0
 40
1.0
 40
1.0
 40
2.0
 40
2.0
 40
2.0
 40
3.0
 40
3.0
 40
3.0
 40
4.0
 40
4.0
 40
4.0
 40
5.0
 40
5.0
 40
5.0
 40
6.0
 40
6.0
 40
6.0
 40
7.0
 40
7.0
 40
7.0
 40
8.0
 40
8.0
 40
8.0
 40
8.0
 10
214.1248458848444
 20
-177.4270174133165
 30
0.0
 10
214.1248458848444
 20
-177.9760757427281
 30
0.0
 10
213.6797454829781
 20
-178.4211761445944
 30
0.0
 10
213.1307045961721
 20
-178.4211761445944
 30
0.0
 10
213.1307045961721
 20
-178.4211761445944
 30
0.0
 10
207.1171571101579
 20
-178.4211761445944
 30
0.0
 10
207.1171571101579
 20
-178.4211761445944
 30
0.0
 10
206.5681162233512
 20
-178.4211761445944
 30
0.0
 10
206.1230158214856
 20
-177.9760757427281
 30
0.0
 10
206.1230158214856
 20
-177.4270174133165
 30
0.0
 10
206.1230158214856
 20
-177.4270174133165
 30
0.0
 10
206.1230158214856
 20
-171.4134873699079
 30
0.0
 10
206.1230158214856
 20
-171.4134873699079
 30
0.0
 10
206.1230158214856
 20
-170.8644290404957
 30
0.0
 10
206.5681162233512
 20
-170.4193460812356
 30
0.0
 10
207.1171571101579
 20
-170.4193460812356
 30
0.0
 10
207.1171571101579
 20
-170.4193460812356
 30
0.0
 10
213.1307045961721
 20
-170.4193460812356
 30
0.0
 10
213.1307045961721
 20
-170.4193460812356
 30
0.0
 10
213.6797454829781
 20
-170.4193460812356
 30
0.0
 10
214.1248458848444
 20
-170.8644290404957
 30
0.0
 10
214.1248458848444
 20
-171.4134873699079
 30
0.0
 10
214.1248458848444
 20
-171.4134873699079
 30
0.0
 10
214.1248458848444
 20
-177.4270174133165
 30
0.0
 10
214.1248458848444
 20
-177.4270174133165
 30
0.0
  0
SPLINE
  5
B1
330
70
100
AcDbEntity
  8
Layer 1
 62
   250
420
  2301728
370
    35
100
AcDbSpline
210
0.0
220
0.0
230
1.0
 70
    11
 71
     3
 72
    41
 73
    37
 74
     0
 42
0.0000000001
 43
0.0000000001
 40
0.0
 40
0.0
 40
0.0
 40
0.0
 40
1.0
 40
1.0
 40
1.0
 40
2.0
 40
2.0
 40
2.0
 40
3.0
 40
3.0
 40
3.0
 40
4.0
 40
4.0
 40
4.0
 40
5.0
 40
5.0
 40
5.0
 40
6.0
 40
6.0
 40
6.0
 40
7.0
 40
7.0
 40
7.0
 40
8.0
 40
8.0
 40
8.0
 40
9.0
 40
9.0
 40
9.0
 40
10.0
 40
10.0
 40
10.0
 40
11.0
 40
11.0
 40
11.0
 40
12.0
 40
12.0
 40
12.0
 40
12.0
 10
203.2652193702855
 20
-143.8418390850785
 30
0.0
 10
203.2652193702855
 20
-143.8418390850785
 30
0.0
 10
203.2652193702855
 20
-202.7124459797915
 30
0.0
 10
203.2652193702855
 20
-202.7124459797915
 30
0.0
 10
203.2652193702855
 20
-202.7124459797915
 30
0.0
 10
226.8359526234358
 20
-202.7124459797915
 30
0.0
 10
226.8359526234358
 20
-202.7124459797915
 30
0.0
 10
226.2869117366291
 20
-202.7124459797915
 30
0.0
 10
225.8418113347628
 20
-202.2673455779252
 30
0.0
 10
225.8418113347628
 20
-201.718287248513
 30
0.0
 10
225.8418113347628
 20
-201.718287248513
 30
0.0
 10
225.8418113347628
 20
-191.7038421734253
 30
0.0
 10
225.8418113347628
 20
-191.7038421734253
 30
0.0
 10
225.8418113347628
 20
-191.1547838440137
 30
0.0
 10
226.2869117366291
 20
-190.7097008847523
 30
0.0
 10
226.8359526234358
 20
-190.7097008847523
 30
0.0
 10
226.8359526234358
 20
-190.7097008847523
 30
0.0
 10
232.8495001094493
 20
-190.7097008847523
 30
0.0
 10
232.8495001094493
 20
-190.7097008847523
 30
0.0
 10
233.398540996256
 20
-190.7097008847523
 30
0.0
 10
233.8436413981217
 20
-191.1547838440137
 30
0.0
 10
233.8436413981217
 20
-191.7038421734253
 30
0.0
 10
233.8436413981217
 20
-191.7038421734253
 30
0.0
 10
233.8436413981217
 20
-201.718287248513
 30
0.0
 10
233.8436413981217
 20
-201.718287248513
 30
0.0
 10
233.8436413981217
 20
-202.2673455779252
 30
0.0
 10
233.398540996256
 20
-202.7124459797915
 30
0.0
 10
232.8495001094493
 20
-202.7124459797915
 30
0.0
 10
232.8495001094493
 20
-202.7124459797915
 30
0.0
 10
237.2729971395612
 20
-202.7124459797915
 30
0.0
 10
237.2729971395612
 20
-202.7124459797915
 30
0.0
 10
237.2729971395612
 20
-202.7124459797915
 30
0.0
 10
237.2729971395612
 20
-143.8418390850785
 30
0.0
 10
237.2729971395612
 20
-143.8418390850785
 30
0.0
 10
237.2729971395612
 20
-143.8418390850785
 30
0.0
 10
203.2652193702855
 20
-143.8418390850785
 30
0.0
 10
203.2652193702855
 20
-143.8418390850785
 30
0.0
  0
LWPOLYLINE
  5
B2
330
70
100
AcDbEntity
  8
Layer 1
 62
   250
420
  2301728
370
    35
100
AcDbPolyline
 90
        4
 70
     1
 43
0.0
 10
433.6034721138215
 20
-255.6270832694267
 10
263.6034721563216
 20
-255.6270832694267
 10
263.6034721563216
 20
-85.62708331192686
 10
433.6034721138215
 20
-85.62708331192686
  0
INSERT
  5
B4
330
70
100
AcDbEntity
  8
Layer 1
100
AcDbBlockReference
  2
Block_2
 10
0.0
 20
0.0
 30
0.0
  0
CIRCLE
  5
BF
330
70
100
AcDbEntity
  8
Layer 1
 62
   250
420
  2301728
370
    35
100
AcDbCircle
 10
310.004166589165
 20
-194.9986110623614
 30
0.0
 40
1.499999999624979
  0
CIRCLE
  5
C0
330
70
100
AcDbEntity
  8
Layer 1
 62
   250
420
  2301728
370
    35
100
AcDbCircle
 10
318.8236110314045
 20
-201.7013888384636
 30
0.0
 40
1.499999999624979
  0
CIRCLE
  5
C1
330
70
100
AcDbEntity
  8
Layer 1
 62
   250
420
  2301728
370
    35
100
AcDbCircle
 10
316.7069443652671
 20
-210.1680555030135
 30
0.0
 40
1.499999999624979
  0
CIRCLE
  5
C2
330
70
100
AcDbEntity
  8
Layer 1
 62
   250
420
  2301728
370
    35
100
AcDbCircle
 10
306.4763888122691
 20
-214.4013888352886
 30
0.0
 40
1.499999999624979
  0
CIRCLE
  5
C3
330
70
100
AcDbEntity
  8
Layer 1
 62
   250
420
  2301728
370
    35
100
AcDbCircle
 10
306.8291665899587
 20
-204.5236110599802
 30
0.0
 40
1.499999999624979
  0
CIRCLE
  5
C4
330
70
100
AcDbEntity
  8
Layer 1
 62
   250
420
  2301728
370
    35
100
AcDbCircle
 10
329.0541665844025
 20
-207.6986110591864
 30
0.0
 40
1.499999999624979
  0
ENDSEC
  0
SECTION
  2
OBJECTS
  0
DICTIONARY
  5
C
330
0
100
AcDbDictionary
281
     1
  3
ACAD_COLOR
350
63
  3
ACAD_DETAILVIEWSTYLE
350
6A
  3
ACAD_GROUP
350
D
  3
ACAD_LAYOUT
350
62
  3
ACAD_MATERIAL
350
10
  3
ACAD_MLEADERSTYLE
350
66
  3
ACAD_MLINESTYLE
350
5F
  3
ACAD_PLOTSETTINGS
350
61
  3
ACAD_PLOTSTYLENAME
350
E
  3
ACAD_SCALELIST
350
42
  3
ACAD_SECTIONVIEWSTYLE
350
68
  3
ACAD_TABLESTYLE
350
64
  3
ACAD_VISUALSTYLE
350
29
  3
ACDB_RECOMPOSE_DATA
350
CD
  3
AcDbVariableDictionary
350
C5
  0
DICTIONARY
  5
63
102
{ACAD_REACTORS
330
C
102
}
330
C
100
AcDbDictionary
281
     1
  0
DICTIONARY
  5
6A
102
{ACAD_REACTORS
330
C
102
}
330
C
100
AcDbDictionary
281
     1
  3
Imperial24
350
6B
  0
DICTIONARY
  5
D
102
{ACAD_REACTORS
330
C
102
}
330
C
100
AcDbDictionary
281
     1
  0
DICTIONARY
  5
62
102
{ACAD_REACTORS
330
C
102
}
330
C
100
AcDbDictionary
281
     1
  3
Layout1
350
6F
  3
Layout2
350
77
  3
Model
350
73
  0
DICTIONARY
  5
10
102
{ACAD_REACTORS
330
C
102
}
330
C
100
AcDbDictionary
281
     1
  3
ByBlock
350
19
  3
ByLayer
350
11
  3
Global
350
21
  0
DICTIONARY
  5
66
102
{ACAD_REACTORS
330
C
102
}
330
C
100
AcDbDictionary
281
     1
  3
Standard
350
67
  0
DICTIONARY
  5
5F
102
{ACAD_REACTORS
330
C
102
}
330
C
100
AcDbDictionary
281
     1
  3
Standard
350
60
  0
DICTIONARY
  5
61
102
{ACAD_REACTORS
330
C
102
}
330
C
100
AcDbDictionary
281
     1
  0
ACDBDICTIONARYWDFLT
  5
E
102
{ACAD_REACTORS
330
C
102
}
330
C
100
AcDbDictionary
281
     1
  3
Normal
350
F
100
AcDbDictionaryWithDefault
340
F
  0
DICTIONARY
  5
42
102
{ACAD_REACTORS
330
C
102
}
330
C
100
AcDbDictionary
281
     1
  3
A0
350
43
  3
A1
350
44
  3
A2
350
45
  3
A3
350
46
  3
A4
350
47
  3
A5
350
48
  3
A6
350
49
  3
A7
350
4A
  3
A8
350
4B
  3
A9
350
4C
  3
B0
350
4D
  3
B1
350
4E
  3
B2
350
4F
  3
B3
350
50
  3
B4
350
51
  3
B5
350
52
  3
B6
350
53
  0
DICTIONARY
  5
68
102
{ACAD_REACTORS
330
C
102
}
330
C
100
AcDbDictionary
281
     1
  3
Imperial24
350
69
  0
DICTIONARY
  5
64
102
{ACAD_REACTORS
330
C
102
}
330
C
100
AcDbDictionary
281
     1
  3
Standard
350
65
  0
DICTIONARY
  5
29
102
{ACAD_REACTORS
330
C
102
}
330
C
100
AcDbDictionary
281
     1
  3
2dWireframe
350
2F
  3
Basic
350
2E
  3
Brighten
350
35
  3
ColorChange
350
39
  3
Conceptual
350
32
  3
Dim
350
34
  3
EdgeColorOff
350
41
  3
Facepattern
350
38
  3
Flat
350
2A
  3
FlatWithEdges
350
2B
  3
Gouraud
350
2C
  3
GouraudWithEdges
350
2D
  3
Hidden
350
31
  3
JitterOff
350
3F
  3
Linepattern
350
37
  3
OverhangOff
350
40
  3
Realistic
350
33
  3
Shaded
350
3E
  3
Shaded with edges
350
3D
  3
Shades of Gray
350
3A
  3
Sketchy
350
3B
  3
Thicken
350
36
  3
Wireframe
350
30
  3
X-Ray
350
3C
  0
XRECORD
  5
CD
102
{ACAD_REACTORS
330
C
102
}
330
C
100
AcDbXrecord
280
     1
 90
        1
330
65
  0
DICTIONARY
  5
C5
102
{ACAD_REACTORS
330
C
102
}
330
C
100
AcDbDictionary
281
     1
  3
CANNOSCALE
350
CA
  3
CMLEADERSTYLE
350
C7
  3
CTABLESTYLE
350
C6
  3
CVIEWDETAILSTYLE
350
C8
  3
CVIEWSECTIONSTYLE
350
C9
  0
ACDBDETAILVIEWSTYLE
  5
6B
102
{ACAD_REACTORS
330
6A
102
}
330
6A
100
AcDbModelDocViewStyle
 70
     0
  3
Imperial24
290
     1
300
Imperial24
 90
        0
100
AcDbDetailViewStyle
 70
     0
 71
     0
 90
        3
 71
     1
340
55
 62
   256
 40
0.24
340
0
 62
   256
 40
0.24
300

 40
0.36
280
     3
 71
     2
340
5D
 90
       25
 62
   256
 71
     3
340
55
 62
   256
 40
0.24
 90
        1
 40
0.75
 90
        1
300
%<\AcVar ViewType \f "%tc1">% %<\AcVar ViewDetailId>%\PSCALE %<\AcVar ViewScale \f "%sn">%
 71
     4
340
5D
 90
       25
 62
   256
340
5D
 90
       25
 62
   256
280
     0
  0
LAYOUT
  5
6F
102
{ACAD_REACTORS
330
62
102
}
330
62
100
AcDbPlotSettings
  1

  2

  4

  6

 40
0.0
 41
0.0
 42
0.0
 43
0.0
 44
0.0
 45
0.0
 46
0.0
 47
0.0
 48
0.0
 49
0.0
140
0.0
141
0.0
142
1.0
143
1.0
 70
   688
 72
     0
 73
     0
 74
     5
  7

 75
    16
147
1.0
 76
     0
 77
     2
 78
   300
148
0.0
149
0.0
100
AcDbLayout
  1
Layout1
 70
     1
 71
     1
 10
0.0
 20
0.0
 11
12.0
 21
9.0
 12
0.0
 22
0.0
 32
0.0
 14
0.0
 24
0.0
 34
0.0
 15
0.0
 25
0.0
 35
0.0
146
0.0
 13
0.0
 23
0.0
 33
0.0
 16
1.0
 26
0.0
 36
0.0
 17
0.0
 27
1.0
 37
0.0
 76
     0
330
6C
  0
LAYOUT
  5
77
102
{ACAD_REACTORS
330
62
102
}
330
62
100
AcDbPlotSettings
  1

  2

  4

  6

 40
0.0
 41
0.0
 42
0.0
 43
0.0
 44
0.0
 45
0.0
 46
0.0
 47
0.0
 48
0.0
 49
0.0
140
0.0
141
0.0
142
1.0
143
1.0
 70
   688
 72
     0
 73
     0
 74
     5
  7

 75
    16
147
1.0
 76
     0
 77
     2
 78
   300
148
0.0
149
0.0
100
AcDbLayout
  1
Layout2
 70
     1
 71
     2
 10
0.0
 20
0.0
 11
12.0
 21
9.0
 12
0.0
 22
0.0
 32
0.0
 14
0.0
 24
0.0
 34
0.0
 15
0.0
 25
0.0
 35
0.0
146
0.0
 13
0.0
 23
0.0
 33
0.0
 16
1.0
 26
0.0
 36
0.0
 17
0.0
 27
1.0
 37
0.0
 76
     0
330
74
  0
LAYOUT
  5
73
102
{ACAD_REACTORS
330
62
102
}
330
62
100
AcDbPlotSettings
  1

  2

  4

  6

 40
0.0
 41
0.0
 42
0.0
 43
0.0
 44
0.0
 45
0.0
 46
0.0
 47
0.0
 48
0.0
 49
0.0
140
0.0
141
0.0
142
1.0
143
1.0
 70
  1712
 72
     0
 73
     0
 74
     0
  7

 75
     0
147
1.0
 76
     0
 77
     2
 78
   300
148
0.0
149
0.0
100
AcDbLayout
  1
Model
 70
     1
 71
     0
 10
0.0
 20
0.0
 11
12.0
 21
9.0
 12
0.0
 22
0.0
 32
0.0
 14
0.0
 24
0.0
 34
0.0
 15
0.0
 25
0.0
 35
0.0
146
0.0
 13
0.0
 23
0.0
 33
0.0
 16
1.0
 26
0.0
 36
0.0
 17
0.0
 27
1.0
 37
0.0
 76
     0
330
70
  0
MATERIAL
  5
19
102
{ACAD_XDICTIONARY
360
1A
102
}
102
{ACAD_REACTORS
330
10
102
}
330
10
100
AcDbMaterial
  1
ByBlock
 72
     0
 43
0.0208333333333333
 43
0.0
 43
0.0
 43
0.0
 43
0.0
 43
0.0208333333333333
 43
0.0
 43
0.0
 43
0.0
 43
0.0
 43
1.0
 43
0.0
 43
0.0
 43
0.0
 43
0.0
 43
1.0
 77
     0
 47
0.0208333333333333
 47
0.0
 47
0.0
 47
0.0
 47
0.0
 47
0.0208333333333333
 47
0.0
 47
0.0
 47
0.0
 47
0.0
 47
1.0
 47
0.0
 47
0.0
 47
0.0
 47
0.0
 47
1.0
171
     0
 49
0.0208333333333333
 49
0.0
 49
0.0
 49
0.0
 49
0.0
 49
0.0208333333333333
 49
0.0
 49
0.0
 49
0.0
 49
0.0
 49
1.0
 49
0.0
 49
0.0
 49
0.0
 49
0.0
 49
1.0
175
     0
142
0.0208333333333333
142
0.0
142
0.0
142
0.0
142
0.0
142
0.0208333333333333
142
0.0
142
0.0
142
0.0
142
0.0
142
1.0
142
0.0
142
0.0
142
0.0
142
0.0
142
1.0
179
     0
144
0.0208333333333333
144
0.0
144
0.0
144
0.0
144
0.0
144
0.0208333333333333
144
0.0
144
0.0
144
0.0
144
0.0
144
1.0
144
0.0
144
0.0
144
0.0
144
0.0
144
1.0
147
0.0208333333333333
147
0.0
147
0.0
147
0.0
147
0.0
147
0.0208333333333333
147
0.0
147
0.0
147
0.0
147
0.0
147
1.0
147
0.0
147
0.0
147
0.0
147
0.0
147
1.0
  0
MATERIAL
  5
11
102
{ACAD_XDICTIONARY
360
12
102
}
102
{ACAD_REACTORS
330
10
102
}
330
10
100
AcDbMaterial
  1
ByLayer
 72
     0
 43
0.0208333333333333
 43
0.0
 43
0.0
 43
0.0
 43
0.0
 43
0.0208333333333333
 43
0.0
 43
0.0
 43
0.0
 43
0.0
 43
1.0
 43
0.0
 43
0.0
 43
0.0
 43
0.0
 43
1.0
 77
     0
 47
0.0208333333333333
 47
0.0
 47
0.0
 47
0.0
 47
0.0
 47
0.0208333333333333
 47
0.0
 47
0.0
 47
0.0
 47
0.0
 47
1.0
 47
0.0
 47
0.0
 47
0.0
 47
0.0
 47
1.0
171
     0
 49
0.0208333333333333
 49
0.0
 49
0.0
 49
0.0
 49
0.0
 49
0.0208333333333333
 49
0.0
 49
0.0
 49
0.0
 49
0.0
 49
1.0
 49
0.0
 49
0.0
 49
0.0
 49
0.0
 49
1.0
175
     0
142
0.0208333333333333
142
0.0
142
0.0
142
0.0
142
0.0
142
0.0208333333333333
142
0.0
142
0.0
142
0.0
142
0.0
142
1.0
142
0.0
142
0.0
142
0.0
142
0.0
142
1.0
179
     0
144
0.0208333333333333
144
0.0
144
0.0
144
0.0
144
0.0
144
0.0208333333333333
144
0.0
144
0.0
144
0.0
144
0.0
144
1.0
144
0.0
144
0.0
144
0.0
144
0.0
144
1.0
147
0.0208333333333333
147
0.0
147
0.0
147
0.0
147
0.0
147
0.0208333333333333
147
0.0
147
0.0
147
0.0
147
0.0
147
1.0
147
0.0
147
0.0
147
0.0
147
0.0
147
1.0
  0
MATERIAL
  5
21
102
{ACAD_XDICTIONARY
360
22
102
}
102
{ACAD_REACTORS
330
10
102
}
330
10
100
AcDbMaterial
  1
Global
 72
     0
 43
0.0208333333333333
 43
0.0
 43
0.0
 43
0.0
 43
0.0
 43
0.0208333333333333
 43
0.0
 43
0.0
 43
0.0
 43
0.0
 43
1.0
 43
0.0
 43
0.0
 43
0.0
 43
0.0
 43
1.0
 77
     0
 47
0.0208333333333333
 47
0.0
 47
0.0
 47
0.0
 47
0.0
 47
0.0208333333333333
 47
0.0
 47
0.0
 47
0.0
 47
0.0
 47
1.0
 47
0.0
 47
0.0
 47
0.0
 47
0.0
 47
1.0
171
     0
 49
0.0208333333333333
 49
0.0
 49
0.0
 49
0.0
 49
0.0
 49
0.0208333333333333
 49
0.0
 49
0.0
 49
0.0
 49
0.0
 49
1.0
 49
0.0
 49
0.0
 49
0.0
 49
0.0
 49
1.0
175
     0
142
0.0208333333333333
142
0.0
142
0.0
142
0.0
142
0.0
142
0.0208333333333333
142
0.0
142
0.0
142
0.0
142
0.0
142
1.0
142
0.0
142
0.0
142
0.0
142
0.0
142
1.0
179
     0
144
0.0208333333333333
144
0.0
144
0.0
144
0.0
144
0.0
144
0.0208333333333333
144
0.0
144
0.0
144
0.0
144
0.0
144
1.0
144
0.0
144
0.0
144
0.0
144
0.0
144
1.0
147
0.0208333333333333
147
0.0
147
0.0
147
0.0
147
0.0
147
0.0208333333333333
147
0.0
147
0.0
147
0.0
147
0.0
147
1.0
147
0.0
147
0.0
147
0.0
147
0.0
147
1.0
  0
MLEADERSTYLE
  5
67
102
{ACAD_REACTORS
330
66
102
}
330
66
100
AcDbMLeaderStyle
179
     2
170
     2
171
     1
172
     0
 90
        2
 40
0.0
 41
0.0
173
     1
 91
-1056964608
340
5B
 92
       -2
290
     1
 42
0.09
291
     1
 43
0.36
  3
Standard
 44
0.18
300

342
55
174
     1
178
     6
175
     1
176
     0
 93
-1056964608
 45
0.18
292
     0
297
     0
 46
0.18
 94
-1056964608
 47
1.0
 49
1.0
140
1.0
293
     1
141
0.0
294
     1
177
     0
142
1.0
295
     1
296
     0
143
0.125
271
     0
272
     9
273
     9
298
     1
  0
MLINESTYLE
  5
60
102
{ACAD_REACTORS
330
5F
102
}
330
5F
100
AcDbMlineStyle
  2
STANDARD
 70
     0
  3

 62
   256
 51
90.0
 52
90.0
 71
     2
 49
0.5
 62
   256
  6
BYLAYER
 49
-0.5
 62
   256
  6
BYLAYER
  0
ACDBPLACEHOLDER
  5
F
102
{ACAD_REACTORS
330
E
102
}
330
E
  0
SCALE
  5
43
102
{ACAD_REACTORS
330
42
102
}
330
42
100
AcDbScale
 70
     0
300
1:1
140
1.0
141
1.0
290
     1
  0
SCALE
  5
44
102
{ACAD_REACTORS
330
42
102
}
330
42
100
AcDbScale
 70
     0
300
1/128" = 1'-0"
140
0.0078125
141
12.0
290
     0
  0
SCALE
  5
45
102
{ACAD_REACTORS
330
42
102
}
330
42
100
AcDbScale
 70
     0
300
1/64" = 1'-0"
140
0.015625
141
12.0
290
     0
  0
SCALE
  5
46
102
{ACAD_REACTORS
330
42
102
}
330
42
100
AcDbScale
 70
     0
300
1/32" = 1'-0"
140
0.03125
141
12.0
290
     0
  0
SCALE
  5
47
102
{ACAD_REACTORS
330
42
102
}
330
42
100
AcDbScale
 70
     0
300
1/16" = 1'-0"
140
0.0625
141
12.0
290
     0
  0
SCALE
  5
48
102
{ACAD_REACTORS
330
42
102
}
330
42
100
AcDbScale
 70
     0
300
3/32" = 1'-0"
140
0.09375
141
12.0
290
     0
  0
SCALE
  5
49
102
{ACAD_REACTORS
330
42
102
}
330
42
100
AcDbScale
 70
     0
300
1/8" = 1'-0"
140
0.125
141
12.0
290
     0
  0
SCALE
  5
4A
102
{ACAD_REACTORS
330
42
102
}
330
42
100
AcDbScale
 70
     0
300
3/16" = 1'-0"
140
0.1875
141
12.0
290
     0
  0
SCALE
  5
4B
102
{ACAD_REACTORS
330
42
102
}
330
42
100
AcDbScale
 70
     0
300
1/4" = 1'-0"
140
0.25
141
12.0
290
     0
  0
SCALE
  5
4C
102
{ACAD_REACTORS
330
42
102
}
330
42
100
AcDbScale
 70
     0
300
3/8" = 1'-0"
140
0.375
141
12.0
290
     0
  0
SCALE
  5
4D
102
{ACAD_REACTORS
330
42
102
}
330
42
100
AcDbScale
 70
     0
300
1/2" = 1'-0"
140
0.5
141
12.0
290
     0
  0
SCALE
  5
4E
102
{ACAD_REACTORS
330
42
102
}
330
42
100
AcDbScale
 70
     0
300
3/4" = 1'-0"
140
0.75
141
12.0
290
     0
  0
SCALE
  5
4F
102
{ACAD_REACTORS
330
42
102
}
330
42
100
AcDbScale
 70
     0
300
1" = 1'-0"
140
1.0
141
12.0
290
     0
  0
SCALE
  5
50
102
{ACAD_REACTORS
330
42
102
}
330
42
100
AcDbScale
 70
     0
300
1-1/2" = 1'-0"
140
1.5
141
12.0
290
     0
  0
SCALE
  5
51
102
{ACAD_REACTORS
330
42
102
}
330
42
100
AcDbScale
 70
     0
300
3" = 1'-0"
140
3.0
141
12.0
290
     0
  0
SCALE
  5
52
102
{ACAD_REACTORS
330
42
102
}
330
42
100
AcDbScale
 70
     0
300
6" = 1'-0"
140
6.0
141
12.0
290
     0
  0
SCALE
  5
53
102
{ACAD_REACTORS
330
42
102
}
330
42
100
AcDbScale
 70
     0
300
1'-0" = 1'-0"
140
12.0
141
12.0
290
     0
  0
ACDBSECTIONVIEWSTYLE
  5
69
102
{ACAD_REACTORS
330
68
102
}
330
68
100
AcDbModelDocViewStyle
 70
     0
  3
Imperial24
290
     1
300
Imperial24
 90
        0
100
AcDbSectionViewStyle
 70
     0
 71
     0
 90
       78
 71
     1
340
55
 62
   256
 40
0.24
340
0
340
0
 62
   256
 40
0.24
300
I, O, Q, S, X, Z
 40
0.48
 90
        3
 40
0.18
 90
        1
 71
     2
340
5D
 90
       25
 62
   256
340
5D
 90
       50
 62
   256
 40
0.24
 40
0.0
 40
0.24
 71
     3
340
55
 62
   256
 40
0.24
 90
        1
 40
0.75
 90
        1
300
%<\AcVar ViewType \f "%tc1">% %<\AcVar ViewSectionStartId>%-%<\AcVar ViewSectionEndId>%\PSCALE %<\AcVar ViewScale \f "%sn">%
 71
     4
 62
   256
 62
   257
300
ANSI31
 40
1.0
 90
        0
290
     0
290
     0
 90
        6
 40
0.0
 40
1.570796326794896
 40
0.2617993877991494
 40
1.308996938995747
 40
-0.2617993877991494
 40
1.832595714594046
  0
TABLESTYLE
  5
65
102
{ACAD_XDICTIONARY
360
CB
102
}
102
{ACAD_REACTORS
330
64
102
}
330
64
100
AcDbTableStyle
280
     0
  3
Standard
 70
     0
 71
     0
 40
0.06
 41
0.06
280
     0
281
     0
  7
Standard
140
0.18
170
     2
 62
     0
 63
     7
283
     0
 90
      512
 91
        0
  1

274
    -2
284
     1
 64
     0
275
    -2
285
     1
 65
     0
276
    -2
286
     1
 66
     0
277
    -2
287
     1
 67
     0
278
    -2
288
     1
 68
     0
279
    -2
289
     1
 69
     0
  7
Standard
140
0.25
170
     5
 62
     0
 63
     7
283
     0
 90
      512
 91
        0
  1

274
    -2
284
     1
 64
     0
275
    -2
285
     1
 65
     0
276
    -2
286
     1
 66
     0
277
    -2
287
     1
 67
     0
278
    -2
288
     1
 68
     0
279
    -2
289
     1
 69
     0
  7
Standard
140
0.18
170
     5
 62
     0
 63
     7
283
     0
 90
      512
 91
        0
  1

274
    -2
284
     1
 64
     0
275
    -2
285
     1
 65
     0
276
    -2
286
     1
 66
     0
277
    -2
287
     1
 67
     0
278
    -2
288
     1
 68
     0
279
    -2
289
     1
 69
     0
  0
VISUALSTYLE
  5
2F
102
{ACAD_REACTORS
330
29
102
}
330
29
100
AcDbVisualStyle
  2
2dWireframe
 70
     4
177
     3
291
     0
 70
    58
 90
        0
176
     1
 90
        2
176
     1
 90
        0
176
     1
 90
        0
176
     1
 40
0.6
176
     1
 40
30.0
176
     1
 62
     7
420
 16777215
176
     1
 90
        1
176
     1
 90
        4
176
     1
 62
     7
176
     1
 62
   257
176
     1
 90
        1
176
     1
 90
        1
176
     1
 40
1.0
176
     1
 90
        0
176
     1
 62
   257
176
     1
 40
1.0
176
     1
 90
        1
176
     1
 90
        6
176
     1
 90
        2
176
     1
 62
     7
176
     1
 90
        5
176
     1
 90
        0
176
     1
 90
        0
176
     1
290
     0
176
     1
 90
        1
176
     1
 40
0.0
176
     1
 90
        0
176
     1
290
     1
176
     1
290
     1
176
     1
290
     0
176
     1
290
     0
176
     1
290
     0
176
     1
290
     0
176
     1
290
     0
176
     1
290
     0
176
     1
290
     0
176
     1
 90
       50
176
     1
 40
0.0
176
     1
 40
1.0
176
     1
 90
        0
176
     1
 62
    18
420
        0
176
     1
 90
       50
176
     1
 90
        3
176
     1
 62
     5
420
      255
176
     1
290
     0
176
     1
 90
       50
176
     1
 90
       50
176
     1
 90
       50
176
     1
290
     0
176
     1
 90
       50
176
     1
 62
   256
176
     0
 40
1.0
176
     0
 90
        2
176
     1
  1
strokes_ogs.tif
176
     1
290
     0
176
     1
 40
1.0
176
     1
 40
1.0
176
     1
  0
VISUALSTYLE
  5
2E
102
{ACAD_REACTORS
330
29
102
}
330
29
100
AcDbVisualStyle
  2
Basic
 70
     7
177
     3
291
     1
 70
    58
 90
        1
176
     1
 90
        0
176
     1
 90
        1
176
     1
 90
        0
176
     1
 40
0.6
176
     1
 40
30.0
176
     1
 62
     7
420
 16777215
176
     1
 90
        0
176
     1
 90
        4
176
     1
 62
     7
176
     1
 62
   257
176
     1
 90
        1
176
     1
 90
        1
176
     1
 40
1.0
176
     1
 90
        8
176
     1
 62
     7
176
     1
 40
1.0
176
     1
 90
        1
176
     1
 90
        6
176
     1
 90
        2
176
     1
 62
     7
176
     1
 90
        5
176
     1
 90
        0
176
     1
 90
        0
176
     1
290
     0
176
     1
 90
        1
176
     1
 40
0.0
176
     1
 90
        0
176
     1
290
     0
176
     1
290
     1
176
     1
290
     1
176
     1
290
     0
176
     1
290
     0
176
     1
290
     0
176
     1
290
     0
176
     1
290
     0
176
     1
290
     0
176
     1
 90
       50
176
     1
 40
0.0
176
     1
 40
1.0
176
     1
 90
        0
176
     1
 62
    18
420
        0
176
     1
 90
       50
176
     1
 90
        3
176
     1
 62
     5
420
      255
176
     1
290
     0
176
     1
 90
       50
176
     1
 90
       50
176
     1
 90
       50
176
     1
290
     0
176
     1
 90
       50
176
     1
 62
   256
176
     0
 40
1.0
176
     0
 90
        2
176
     1
  1
strokes_ogs.tif
176
     1
290
     0
176
     1
 40
1.0
176
     1
 40
1.0
176
     1
  0
VISUALSTYLE
  5
35
102
{ACAD_REACTORS
330
29
102
}
330
29
100
AcDbVisualStyle
  2
Brighten
 70
    12
177
     3
291
     1
 70
    58
 90
        2
176
     1
 90
        2
176
     1
 90
        0
176
     1
 90
        0
176
     1
 40
0.6
176
     1
 40
30.0
176
     1
 62
     7
420
 16777215
176
     1
 90
        1
176
     1
 90
        4
176
     1
 62
     7
176
     1
 62
   257
176
     1
 90
        1
176
     1
 90
        1
176
     1
 40
1.0
176
     1
 90
        8
176
     1
 62
     7
176
     1
 40
1.0
176
     1
 90
        1
176
     1
 90
        6
176
     1
 90
        2
176
     1
 62
     7
176
     1
 90
        5
176
     1
 90
        0
176
     1
 90
        0
176
     1
290
     0
176
     1
 90
        1
176
     1
 40
50.0
176
     1
 90
        0
176
     1
290
     0
176
     1
290
     1
176
     1
290
     1
176
     1
290
     0
176
     1
290
     0
176
     1
290
     0
176
     1
290
     0
176
     1
290
     0
176
     1
290
     0
176
     1
 90
       50
176
     1
 40
0.0
176
     1
 40
1.0
176
     1
 90
        0
176
     1
 62
    18
420
        0
176
     1
 90
       50
176
     1
 90
        3
176
     1
 62
     5
420
      255
176
     1
290
     0
176
     1
 90
       50
176
     1
 90
       50
176
     1
 90
       50
176
     1
290
     0
176
     1
 90
       50
176
     1
 62
   256
176
     0
 40
1.0
176
     0
 90
        2
176
     1
  1
strokes_ogs.tif
176
     1
290
     0
176
     1
 40
1.0
176
     1
 40
1.0
176
     1
  0
VISUALSTYLE
  5
39
102
{ACAD_REACTORS
330
29
102
}
330
29
100
AcDbVisualStyle
  2
ColorChange
 70
    16
177
     3
291
     1
 70
    58
 90
        2
176
     1
 90
        2
176
     1
 90
        3
176
     1
 90
        0
176
     1
 40
0.6
176
     1
 40
30.0
176
     1
 62
     8
420
  8421504
176
     1
 90
        1
176
     1
 90
        4
176
     1
 62
     7
176
     1
 62
   257
176
     1
 90
        1
176
     1
 90
        1
176
     1
 40
1.0
176
     1
 90
        8
176
     1
 62
     8
420
  8421504
176
     1
 40
1.0
176
     1
 90
        1
176
     1
 90
        6
176
     1
 90
        2
176
     1
 62
     7
176
     1
 90
        5
176
     1
 90
        0
176
     1
 90
        0
176
     1
290
     0
176
     1
 90
        1
176
     1
 40
0.0
176
     1
 90
        0
176
     1
290
     0
176
     1
290
     1
176
     1
290
     1
176
     1
290
     0
176
     1
290
     0
176
     1
290
     0
176
     1
290
     0
176
     1
290
     0
176
     1
290
     0
176
     1
 90
       50
176
     1
 40
0.0
176
     1
 40
1.0
176
     1
 90
        0
176
     1
 62
    18
420
        0
176
     1
 90
       50
176
     1
 90
        3
176
     1
 62
     5
420
      255
176
     1
290
     0
176
     1
 90
       50
176
     1
 90
       50
176
     1
 90
       50
176
     1
290
     0
176
     1
 90
       50
176
     1
 62
   256
176
     0
 40
1.0
176
     0
 90
        2
176
     1
  1
strokes_ogs.tif
176
     1
290
     0
176
     1
 40
1.0
176
     1
 40
1.0
176
     1
  0
VISUALSTYLE
  5
32
102
{ACAD_REACTORS
330
29
102
}
330
29
100
AcDbVisualStyle
  2
Conceptual
 70
     9
177
     3
291
     0
 70
    58
 90
        3
176
     1
 90
        2
176
     1
 90
        0
176
     1
 90
        0
176
     1
 40
0.6
176
     1
 40
30.0
176
     1
 62
     7
420
 16777215
176
     1
 90
        2
176
     1
 90
        2
176
     1
 62
     7
176
     1
 62
   257
176
     1
 90
        1
176
     1
 90
        1
176
     1
 40
179.0
176
     1
 90
        8
176
     1
 62
     7
176
     1
 40
1.0
176
     1
 90
        1
176
     1
 90
        6
176
     1
 90
        2
176
     1
 62
     7
176
     1
 90
        3
176
     1
 90
        0
176
     1
 90
        0
176
     1
290
     0
176
     1
 90
        1
176
     1
 40
0.0
176
     1
 90
        0
176
     1
290
     0
176
     1
290
     1
176
     1
290
     1
176
     1
290
     0
176
     1
290
     0
176
     1
290
     0
176
     1
290
     0
176
     1
290
     0
176
     1
290
     0
176
     1
 90
       50
176
     1
 40
0.0
176
     1
 40
1.0
176
     1
 90
        0
176
     1
 62
    18
420
        0
176
     1
 90
       50
176
     1
 90
        3
176
     1
 62
     5
420
      255
176
     1
290
     0
176
     1
 90
       50
176
     1
 90
       50
176
     1
 90
       50
176
     1
290
     0
176
     1
 90
       50
176
     1
 62
   256
176
     0
 40
1.0
176
     0
 90
        2
176
     1
  1
strokes_ogs.tif
176
     1
290
     0
176
     1
 40
1.0
176
     1
 40
1.0
176
     1
  0
VISUALSTYLE
  5
34
102
{ACAD_REACTORS
330
29
102
}
330
29
100
AcDbVisualStyle
  2
Dim
 70
    11
177
     3
291
     1
 70
    58
 90
        2
176
     1
 90
        2
176
     1
 90
        0
176
     1
 90
        0
176
     1
 40
0.6
176
     1
 40
30.0
176
     1
 62
     7
420
 16777215
176
     1
 90
        1
176
     1
 90
        4
176
     1
 62
     7
176
     1
 62
   257
176
     1
 90
        1
176
     1
 90
        1
176
     1
 40
1.0
176
     1
 90
        8
176
     1
 62
     7
176
     1
 40
1.0
176
     1
 90
        1
176
     1
 90
        6
176
     1
 90
        2
176
     1
 62
     7
176
     1
 90
        5
176
     1
 90
        0
176
     1
 90
        0
176
     1
290
     0
176
     1
 90
        1
176
     1
 40
-50.0
176
     1
 90
        0
176
     1
290
     0
176
     1
290
     1
176
     1
290
     1
176
     1
290
     0
176
     1
290
     0
176
     1
290
     0
176
     1
290
     0
176
     1
290
     0
176
     1
290
     0
176
     1
 90
       50
176
     1
 40
0.0
176
     1
 40
1.0
176
     1
 90
        0
176
     1
 62
    18
420
        0
176
     1
 90
       50
176
     1
 90
        3
176
     1
 62
     5
420
      255
176
     1
290
     0
176
     1
 90
       50
176
     1
 90
       50
176
     1
 90
       50
176
     1
290
     0
176
     1
 90
       50
176
     1
 62
   256
176
     0
 40
1.0
176
     0
 90
        2
176
     1
  1
strokes_ogs.tif
176
     1
290
     0
176
     1
 40
1.0
176
     1
 40
1.0
176
     1
  0
VISUALSTYLE
  5
41
102
{ACAD_REACTORS
330
29
102
}
330
29
100
AcDbVisualStyle
  2
EdgeColorOff
 70
    22
177
     3
291
     1
 70
    58
 90
        2
176
     0
 90
        2
176
     0
 90
        0
176
     0
 90
        0
176
     0
 40
0.6
176
     0
 40
30.0
176
     0
 62
     7
420
 16777215
176
     0
 90
        1
176
     0
 90
        4
176
     0
 62
     7
176
     0
 62
   257
176
     0
 90
        1
176
     0
 90
        1
176
     0
 40
1.0
176
     0
 90
        8
176
     2
 62
     7
176
     0
 40
1.0
176
     0
 90
        1
176
     0
 90
        6
176
     0
 90
        2
176
     0
 62
     7
176
     0
 90
        5
176
     0
 90
        0
176
     0
 90
        0
176
     0
290
     0
176
     0
 90
        1
176
     0
 40
0.0
176
     0
 90
        0
176
     0
290
     0
176
     0
290
     1
176
     0
290
     1
176
     0
290
     0
176
     0
290
     0
176
     0
290
     0
176
     0
290
     0
176
     0
290
     0
176
     0
290
     0
176
     0
 90
       50
176
     0
 40
0.0
176
     0
 40
1.0
176
     0
 90
        0
176
     0
 62
    18
420
        0
176
     0
 90
       50
176
     0
 90
        3
176
     0
 62
     5
420
      255
176
     0
290
     0
176
     0
 90
       50
176
     0
 90
       50
176
     0
 90
       50
176
     0
290
     0
176
     0
 90
       50
176
     0
 62
   256
176
     0
 40
1.0
176
     0
 90
        2
176
     0
  1
strokes_ogs.tif
176
     0
290
     0
176
     0
 40
1.0
176
     0
 40
1.0
176
     0
  0
VISUALSTYLE
  5
38
102
{ACAD_REACTORS
330
29
102
}
330
29
100
AcDbVisualStyle
  2
Facepattern
 70
    15
177
     3
291
     1
 70
    58
 90
        2
176
     1
 90
        2
176
     1
 90
        0
176
     1
 90
        0
176
     1
 40
0.6
176
     1
 40
30.0
176
     1
 62
     7
420
 16777215
176
     1
 90
        1
176
     1
 90
        4
176
     1
 62
     7
176
     1
 62
   257
176
     1
 90
        1
176
     1
 90
        1
176
     1
 40
1.0
176
     1
 90
        8
176
     1
 62
     7
176
     1
 40
1.0
176
     1
 90
        1
176
     1
 90
        6
176
     1
 90
        2
176
     1
 62
     7
176
     1
 90
        5
176
     1
 90
        0
176
     1
 90
        0
176
     1
290
     0
176
     1
 90
        1
176
     1
 40
0.0
176
     1
 90
        0
176
     1
290
     0
176
     1
290
     1
176
     1
290
     1
176
     1
290
     0
176
     1
290
     0
176
     1
290
     0
176
     1
290
     0
176
     1
290
     0
176
     1
290
     0
176
     1
 90
       50
176
     1
 40
0.0
176
     1
 40
1.0
176
     1
 90
        0
176
     1
 62
    18
420
        0
176
     1
 90
       50
176
     1
 90
        3
176
     1
 62
     5
420
      255
176
     1
290
     0
176
     1
 90
       50
176
     1
 90
       50
176
     1
 90
       50
176
     1
290
     0
176
     1
 90
       50
176
     1
 62
   256
176
     0
 40
1.0
176
     0
 90
        2
176
     1
  1
strokes_ogs.tif
176
     1
290
     0
176
     1
 40
1.0
176
     1
 40
1.0
176
     1
  0
VISUALSTYLE
  5
2A
102
{ACAD_REACTORS
330
29
102
}
330
29
100
AcDbVisualStyle
  2
Flat
 70
     0
177
     3
291
     1
 70
    58
 90
        2
176
     1
 90
        1
176
     1
 90
        1
176
     1
 90
        2
176
     1
 40
0.6
176
     1
 40
30.0
176
     1
 62
     7
420
 16777215
176
     1
 90
        0
176
     1
 90
        0
176
     1
 62
     7
176
     1
 62
   257
176
     1
 90
        1
176
     1
 90
        1
176
     1
 40
1.0
176
     1
 90
        8
176
     1
 62
     7
176
     1
 40
1.0
176
     1
 90
        1
176
     1
 90
        6
176
     1
 90
        2
176
     1
 62
     7
176
     1
 90
        5
176
     1
 90
        0
176
     1
 90
        0
176
     1
290
     0
176
     1
 90
       13
176
     1
 40
0.0
176
     1
 90
        0
176
     1
290
     0
176
     1
290
     1
176
     1
290
     1
176
     1
290
     0
176
     1
290
     0
176
     1
290
     0
176
     1
290
     0
176
     1
290
     0
176
     1
290
     0
176
     1
 90
       50
176
     1
 40
0.0
176
     1
 40
1.0
176
     1
 90
        0
176
     1
 62
    18
420
        0
176
     1
 90
       50
176
     1
 90
        3
176
     1
 62
     5
420
      255
176
     1
290
     0
176
     1
 90
       50
176
     1
 90
       50
176
     1
 90
       50
176
     1
290
     0
176
     1
 90
       50
176
     1
 62
   256
176
     0
 40
1.0
176
     0
 90
        2
176
     1
  1
strokes_ogs.tif
176
     1
290
     0
176
     1
 40
1.0
176
     1
 40
1.0
176
     1
  0
VISUALSTYLE
  5
2B
102
{ACAD_REACTORS
330
29
102
}
330
29
100
AcDbVisualStyle
  2
FlatWithEdges
 70
     1
177
     3
291
     1
 70
    58
 90
        2
176
     1
 90
        1
176
     1
 90
        1
176
     1
 90
        2
176
     1
 40
0.6
176
     1
 40
30.0
176
     1
 62
     7
420
 16777215
176
     1
 90
        1
176
     1
 90
        0
176
     1
 62
     7
176
     1
 62
   257
176
     1
 90
        1
176
     1
 90
        1
176
     1
 40
1.0
176
     1
 90
        0
176
     1
 62
   257
176
     1
 40
1.0
176
     1
 90
        1
176
     1
 90
        6
176
     1
 90
        2
176
     1
 62
     7
176
     1
 90
        5
176
     1
 90
        0
176
     1
 90
        0
176
     1
290
     0
176
     1
 90
       13
176
     1
 40
0.0
176
     1
 90
        0
176
     1
290
     0
176
     1
290
     1
176
     1
290
     1
176
     1
290
     0
176
     1
290
     0
176
     1
290
     0
176
     1
290
     0
176
     1
290
     0
176
     1
290
     0
176
     1
 90
       50
176
     1
 40
0.0
176
     1
 40
1.0
176
     1
 90
        0
176
     1
 62
    18
420
        0
176
     1
 90
       50
176
     1
 90
        3
176
     1
 62
     5
420
      255
176
     1
290
     0
176
     1
 90
       50
176
     1
 90
       50
176
     1
 90
       50
176
     1
290
     0
176
     1
 90
       50
176
     1
 62
   256
176
     0
 40
1.0
176
     0
 90
        2
176
     1
  1
strokes_ogs.tif
176
     1
290
     0
176
     1
 40
1.0
176
     1
 40
1.0
176
     1
  0
VISUALSTYLE
  5
2C
102
{ACAD_REACTORS
330
29
102
}
330
29
100
AcDbVisualStyle
  2
Gouraud
 70
     2
177
     3
291
     1
 70
    58
 90
        2
176
     1
 90
        2
176
     1
 90
        1
176
     1
 90
        2
176
     1
 40
0.6
176
     1
 40
30.0
176
     1
 62
     7
420
 16777215
176
     1
 90
        0
176
     1
 90
        0
176
     1
 62
     7
176
     1
 62
   257
176
     1
 90
        1
176
     1
 90
        1
176
     1
 40
1.0
176
     1
 90
        0
176
     1
 62
     7
176
     1
 40
1.0
176
     1
 90
        1
176
     1
 90
        6
176
     1
 90
        2
176
     1
 62
     7
176
     1
 90
        5
176
     1
 90
        0
176
     1
 90
        0
176
     1
290
     0
176
     1
 90
       13
176
     1
 40
0.0
176
     1
 90
        0
176
     1
290
     0
176
     1
290
     1
176
     1
290
     1
176
     1
290
     0
176
     1
290
     0
176
     1
290
     0
176
     1
290
     0
176
     1
290
     0
176
     1
290
     0
176
     1
 90
       50
176
     1
 40
0.0
176
     1
 40
1.0
176
     1
 90
        0
176
     1
 62
    18
420
        0
176
     1
 90
       50
176
     1
 90
        3
176
     1
 62
     5
420
      255
176
     1
290
     0
176
     1
 90
       50
176
     1
 90
       50
176
     1
 90
       50
176
     1
290
     0
176
     1
 90
       50
176
     1
 62
   256
176
     0
 40
1.0
176
     0
 90
        2
176
     1
  1
strokes_ogs.tif
176
     1
290
     0
176
     1
 40
1.0
176
     1
 40
1.0
176
     1
  0
VISUALSTYLE
  5
2D
102
{ACAD_REACTORS
330
29
102
}
330
29
100
AcDbVisualStyle
  2
GouraudWithEdges
 70
     3
177
     3
291
     1
 70
    58
 90
        2
176
     1
 90
        2
176
     1
 90
        1
176
     1
 90
        2
176
     1
 40
0.6
176
     1
 40
30.0
176
     1
 62
     7
420
 16777215
176
     1
 90
        1
176
     1
 90
        0
176
     1
 62
     7
176
     1
 62
   257
176
     1
 90
        1
176
     1
 90
        1
176
     1
 40
1.0
176
     1
 90
        0
176
     1
 62
   257
176
     1
 40
1.0
176
     1
 90
        1
176
     1
 90
        6
176
     1
 90
        2
176
     1
 62
     7
176
     1
 90
        5
176
     1
 90
        0
176
     1
 90
        0
176
     1
290
     0
176
     1
 90
       13
176
     1
 40
0.0
176
     1
 90
        0
176
     1
290
     0
176
     1
290
     1
176
     1
290
     1
176
     1
290
     0
176
     1
290
     0
176
     1
290
     0
176
     1
290
     0
176
     1
290
     0
176
     1
290
     0
176
     1
 90
       50
176
     1
 40
0.0
176
     1
 40
1.0
176
     1
 90
        0
176
     1
 62
    18
420
        0
176
     1
 90
       50
176
     1
 90
        3
176
     1
 62
     5
420
      255
176
     1
290
     0
176
     1
 90
       50
176
     1
 90
       50
176
     1
 90
       50
176
     1
290
     0
176
     1
 90
       50
176
     1
 62
   256
176
     0
 40
1.0
176
     0
 90
        2
176
     1
  1
strokes_ogs.tif
176
     1
290
     0
176
     1
 40
1.0
176
     1
 40
1.0
176
     1
  0
VISUALSTYLE
  5
31
102
{ACAD_REACTORS
330
29
102
}
330
29
100
AcDbVisualStyle
  2
Hidden
 70
     6
177
     3
291
     0
 70
    58
 90
        1
176
     1
 90
        2
176
     1
 90
        2
176
     1
 90
        0
176
     1
 40
0.6
176
     1
 40
30.0
176
     1
 62
     7
420
 16777215
176
     1
 90
        2
176
     1
 90
        2
176
     1
 62
     7
176
     1
 62
   257
176
     1
 90
        2
176
     1
 90
        1
176
     1
 40
40.0
176
     1
 90
        0
176
     1
 62
   257
176
     1
 40
1.0
176
     1
 90
        1
176
     1
 90
        6
176
     1
 90
        2
176
     1
 62
     7
176
     1
 90
        3
176
     1
 90
        0
176
     1
 90
        0
176
     1
290
     0
176
     1
 90
        1
176
     1
 40
0.0
176
     1
 90
        0
176
     1
290
     0
176
     1
290
     1
176
     1
290
     1
176
     1
290
     0
176
     1
290
     0
176
     1
290
     0
176
     1
290
     0
176
     1
290
     0
176
     1
290
     0
176
     1
 90
       50
176
     1
 40
0.0
176
     1
 40
1.0
176
     1
 90
        0
176
     1
 62
    18
420
        0
176
     1
 90
       50
176
     1
 90
        3
176
     1
 62
     5
420
      255
176
     1
290
     0
176
     1
 90
       50
176
     1
 90
       50
176
     1
 90
       50
176
     1
290
     0
176
     1
 90
       50
176
     1
 62
   256
176
     0
 40
1.0
176
     0
 90
        2
176
     1
  1
strokes_ogs.tif
176
     1
290
     0
176
     1
 40
1.0
176
     1
 40
1.0
176
     1
  0
VISUALSTYLE
  5
3F
102
{ACAD_REACTORS
330
29
102
}
330
29
100
AcDbVisualStyle
  2
JitterOff
 70
    20
177
     3
291
     1
 70
    58
 90
        2
176
     0
 90
        2
176
     0
 90
        0
176
     0
 90
        0
176
     0
 40
0.6
176
     0
 40
30.0
176
     0
 62
     7
420
 16777215
176
     0
 90
        1
176
     0
 90
        4
176
     0
 62
     7
176
     0
 62
   257
176
     0
 90
        1
176
     0
 90
        1
176
     0
 40
1.0
176
     0
 90
       10
176
     2
 62
     7
176
     0
 40
1.0
176
     0
 90
        1
176
     0
 90
        6
176
     0
 90
        2
176
     0
 62
     7
176
     0
 90
        5
176
     0
 90
        0
176
     0
 90
        0
176
     0
290
     0
176
     0
 90
        1
176
     0
 40
0.0
176
     0
 90
        0
176
     0
290
     0
176
     0
290
     1
176
     0
290
     1
176
     0
290
     0
176
     0
290
     0
176
     0
290
     0
176
     0
290
     0
176
     0
290
     0
176
     0
290
     0
176
     0
 90
       50
176
     0
 40
0.0
176
     0
 40
1.0
176
     0
 90
        0
176
     0
 62
    18
420
        0
176
     0
 90
       50
176
     0
 90
        3
176
     0
 62
     5
420
      255
176
     0
290
     0
176
     0
 90
       50
176
     0
 90
       50
176
     0
 90
       50
176
     0
290
     0
176
     0
 90
       50
176
     0
 62
   256
176
     0
 40
1.0
176
     0
 90
        2
176
     0
  1
strokes_ogs.tif
176
     0
290
     0
176
     0
 40
1.0
176
     0
 40
1.0
176
     0
  0
VISUALSTYLE
  5
37
102
{ACAD_REACTORS
330
29
102
}
330
29
100
AcDbVisualStyle
  2
Linepattern
 70
    14
177
     3
291
     1
 70
    58
 90
        2
176
     1
 90
        2
176
     1
 90
        0
176
     1
 90
        0
176
     1
 40
0.6
176
     1
 40
30.0
176
     1
 62
     7
420
 16777215
176
     1
 90
        1
176
     1
 90
        4
176
     1
 62
     7
176
     1
 62
   257
176
     1
 90
        7
176
     1
 90
        7
176
     1
 40
1.0
176
     1
 90
        8
176
     1
 62
     7
176
     1
 40
1.0
176
     1
 90
        1
176
     1
 90
        6
176
     1
 90
        2
176
     1
 62
     7
176
     1
 90
        5
176
     1
 90
        0
176
     1
 90
        0
176
     1
290
     0
176
     1
 90
        1
176
     1
 40
0.0
176
     1
 90
        0
176
     1
290
     0
176
     1
290
     1
176
     1
290
     1
176
     1
290
     0
176
     1
290
     0
176
     1
290
     0
176
     1
290
     0
176
     1
290
     0
176
     1
290
     0
176
     1
 90
       50
176
     1
 40
0.0
176
     1
 40
1.0
176
     1
 90
        0
176
     1
 62
    18
420
        0
176
     1
 90
       50
176
     1
 90
        3
176
     1
 62
     5
420
      255
176
     1
290
     0
176
     1
 90
       50
176
     1
 90
       50
176
     1
 90
       50
176
     1
290
     0
176
     1
 90
       50
176
     1
 62
   256
176
     0
 40
1.0
176
     0
 90
        2
176
     1
  1
strokes_ogs.tif
176
     1
290
     0
176
     1
 40
1.0
176
     1
 40
1.0
176
     1
  0
VISUALSTYLE
  5
40
102
{ACAD_REACTORS
330
29
102
}
330
29
100
AcDbVisualStyle
  2
OverhangOff
 70
    21
177
     3
291
     1
 70
    58
 90
        2
176
     0
 90
        2
176
     0
 90
        0
176
     0
 90
        0
176
     0
 40
0.6
176
     0
 40
30.0
176
     0
 62
     7
420
 16777215
176
     0
 90
        1
176
     0
 90
        4
176
     0
 62
     7
176
     0
 62
   257
176
     0
 90
        1
176
     0
 90
        1
176
     0
 40
1.0
176
     0
 90
        9
176
     2
 62
     7
176
     0
 40
1.0
176
     0
 90
        1
176
     0
 90
        6
176
     0
 90
        2
176
     0
 62
     7
176
     0
 90
        5
176
     0
 90
        0
176
     0
 90
        0
176
     0
290
     0
176
     0
 90
        1
176
     0
 40
0.0
176
     0
 90
        0
176
     0
290
     0
176
     0
290
     1
176
     0
290
     1
176
     0
290
     0
176
     0
290
     0
176
     0
290
     0
176
     0
290
     0
176
     0
290
     0
176
     0
290
     0
176
     0
 90
       50
176
     0
 40
0.0
176
     0
 40
1.0
176
     0
 90
        0
176
     0
 62
    18
420
        0
176
     0
 90
       50
176
     0
 90
        3
176
     0
 62
     5
420
      255
176
     0
290
     0
176
     0
 90
       50
176
     0
 90
       50
176
     0
 90
       50
176
     0
290
     0
176
     0
 90
       50
176
     0
 62
   256
176
     0
 40
1.0
176
     0
 90
        2
176
     0
  1
strokes_ogs.tif
176
     0
290
     0
176
     0
 40
1.0
176
     0
 40
1.0
176
     0
  0
VISUALSTYLE
  5
33
102
{ACAD_REACTORS
330
29
102
}
330
29
100
AcDbVisualStyle
  2
Realistic
 70
     8
177
     3
291
     0
 70
    58
 90
        2
176
     1
 90
        3
176
     1
 90
        0
176
     1
 90
        2
176
     1
 40
0.6
176
     1
 40
30.0
176
     1
 62
     7
420
 16777215
176
     1
 90
        0
176
     1
 90
        0
176
     1
 62
     7
176
     1
 62
   257
176
     1
 90
        1
176
     1
 90
        1
176
     1
 40
1.0
176
     1
 90
        8
176
     1
 62
   257
176
     1
 40
1.0
176
     1
 90
        1
176
     1
 90
        6
176
     1
 90
        2
176
     1
 62
     7
176
     1
 90
        3
176
     1
 90
        0
176
     1
 90
        0
176
     1
290
     0
176
     1
 90
       13
176
     1
 40
0.0
176
     1
 90
        0
176
     1
290
     0
176
     1
290
     1
176
     1
290
     1
176
     1
290
     0
176
     1
290
     0
176
     1
290
     0
176
     1
290
     0
176
     1
290
     0
176
     1
290
     0
176
     1
 90
       50
176
     1
 40
0.0
176
     1
 40
1.0
176
     1
 90
        0
176
     1
 62
    18
420
        0
176
     1
 90
       50
176
     1
 90
        3
176
     1
 62
     5
420
      255
176
     1
290
     0
176
     1
 90
       50
176
     1
 90
       50
176
     1
 90
       50
176
     1
290
     0
176
     1
 90
       50
176
     1
 62
   256
176
     0
 40
1.0
176
     0
 90
        2
176
     1
  1
strokes_ogs.tif
176
     1
290
     0
176
     1
 40
1.0
176
     1
 40
1.0
176
     1
  0
VISUALSTYLE
  5
3E
102
{ACAD_REACTORS
330
29
102
}
330
29
100
AcDbVisualStyle
  2
Shaded
 70
    27
177
     3
291
     0
 70
    58
 90
        2
176
     1
 90
        2
176
     1
 90
        1
176
     1
 90
        2
176
     1
 40
0.6
176
     1
 40
30.0
176
     1
 62
     7
420
 16777215
176
     1
 90
        0
176
     1
 90
        4
176
     1
 62
     7
176
     1
 62
   257
176
     1
 90
        1
176
     1
 90
        1
176
     1
 40
1.0
176
     1
 90
        8
176
     1
 62
   257
176
     1
 40
1.0
176
     1
 90
        1
176
     1
 90
        6
176
     1
 90
        2
176
     1
 62
     8
420
  7895160
176
     1
 90
        3
176
     1
 90
        0
176
     1
 90
        0
176
     1
290
     0
176
     1
 90
        5
176
     1
 40
0.0
176
     1
 90
        0
176
     1
290
     0
176
     1
290
     1
176
     1
290
     1
176
     1
290
     0
176
     1
290
     0
176
     1
290
     0
176
     1
290
     0
176
     1
290
     0
176
     1
290
     0
176
     1
 90
       50
176
     1
 40
0.0
176
     1
 40
1.0
176
     1
 90
        0
176
     1
 62
    18
420
        0
176
     1
 90
       50
176
     1
 90
        3
176
     1
 62
     5
420
      255
176
     1
290
     0
176
     1
 90
       50
176
     1
 90
       50
176
     1
 90
       50
176
     1
290
     0
176
     1
 90
       50
176
     1
 62
   256
176
     0
 40
1.0
176
     0
 90
        2
176
     1
  1
strokes_ogs.tif
176
     1
290
     0
176
     1
 40
1.0
176
     1
 40
1.0
176
     1
  0
VISUALSTYLE
  5
3D
102
{ACAD_REACTORS
330
29
102
}
330
29
100
AcDbVisualStyle
  2
Shaded with edges
 70
    26
177
     3
291
     0
 70
    58
 90
        2
176
     1
 90
        2
176
     1
 90
        1
176
     1
 90
        2
176
     1
 40
0.6
176
     1
 40
30.0
176
     1
 62
     7
420
 16777215
176
     1
 90
        1
176
     1
 90
        2
176
     1
 62
     7
176
     1
 62
   257
176
     1
 90
        2
176
     1
 90
        1
176
     1
 40
1.0
176
     1
 90
        8
176
     1
 62
   257
176
     1
 40
1.0
176
     1
 90
        1
176
     1
 90
        6
176
     1
 90
        2
176
     1
 62
     7
176
     1
 90
        3
176
     1
 90
        0
176
     1
 90
        0
176
     1
290
     0
176
     1
 90
        5
176
     1
 40
0.0
176
     1
 90
        0
176
     1
290
     0
176
     1
290
     1
176
     1
290
     1
176
     1
290
     0
176
     1
290
     0
176
     1
290
     0
176
     1
290
     0
176
     1
290
     0
176
     1
290
     0
176
     1
 90
       50
176
     1
 40
0.0
176
     1
 40
1.0
176
     1
 90
        0
176
     1
 62
    18
420
        0
176
     1
 90
       50
176
     1
 90
        3
176
     1
 62
     5
420
      255
176
     1
290
     0
176
     1
 90
       50
176
     1
 90
       50
176
     1
 90
       50
176
     1
290
     0
176
     1
 90
       50
176
     1
 62
   256
176
     0
 40
1.0
176
     0
 90
        2
176
     1
  1
strokes_ogs.tif
176
     1
290
     0
176
     1
 40
1.0
176
     1
 40
1.0
176
     1
  0
VISUALSTYLE
  5
3A
102
{ACAD_REACTORS
330
29
102
}
330
29
100
AcDbVisualStyle
  2
Shades of Gray
 70
    23
177
     3
291
     0
 70
    58
 90
        2
176
     1
 90
        2
176
     1
 90
        3
176
     1
 90
        0
176
     1
 40
0.6
176
     1
 40
30.0
176
     1
 62
     7
420
 16777215
176
     1
 90
        2
176
     1
 90
        2
176
     1
 62
     7
176
     1
 62
     7
176
     1
 90
        1
176
     1
 90
        1
176
     1
 40
40.0
176
     1
 90
        8
176
     1
 62
     7
176
     1
 40
1.0
176
     1
 90
        1
176
     1
 90
        6
176
     1
 90
        2
176
     1
 62
     7
176
     1
 90
        3
176
     1
 90
        0
176
     1
 90
        0
176
     1
290
     0
176
     1
 90
        1
176
     1
 40
0.0
176
     1
 90
        0
176
     1
290
     0
176
     1
290
     1
176
     1
290
     1
176
     1
290
     0
176
     1
290
     0
176
     1
290
     0
176
     1
290
     0
176
     1
290
     0
176
     1
290
     0
176
     1
 90
       50
176
     1
 40
0.0
176
     1
 40
1.0
176
     1
 90
        0
176
     1
 62
    18
420
        0
176
     1
 90
       50
176
     1
 90
        3
176
     1
 62
     5
420
      255
176
     1
290
     0
176
     1
 90
       50
176
     1
 90
       50
176
     1
 90
       50
176
     1
290
     0
176
     1
 90
       50
176
     1
 62
   256
176
     0
 40
1.0
176
     0
 90
        2
176
     1
  1
strokes_ogs.tif
176
     1
290
     0
176
     1
 40
1.0
176
     1
 40
1.0
176
     1
  0
VISUALSTYLE
  5
3B
102
{ACAD_REACTORS
330
29
102
}
330
29
100
AcDbVisualStyle
  2
Sketchy
 70
    24
177
     3
291
     0
 70
    58
 90
        1
176
     1
 90
        2
176
     1
 90
        2
176
     1
 90
        0
176
     1
 40
0.6
176
     1
 40
30.0
176
     1
 62
     7
420
 16777215
176
     1
 90
        2
176
     1
 90
        2
176
     1
 62
     7
176
     1
 62
     7
176
     1
 90
        1
176
     1
 90
        1
176
     1
 40
40.0
176
     1
 90
       11
176
     1
 62
     7
176
     1
 40
1.0
176
     1
 90
        1
176
     1
 90
        6
176
     1
 90
        2
176
     1
 62
     7
176
     1
 90
        6
176
     1
 90
        0
176
     1
 90
        0
176
     1
290
     0
176
     1
 90
        1
176
     1
 40
0.0
176
     1
 90
        0
176
     1
290
     0
176
     1
290
     1
176
     1
290
     1
176
     1
290
     0
176
     1
290
     0
176
     1
290
     0
176
     1
290
     0
176
     1
290
     0
176
     1
290
     0
176
     1
 90
       50
176
     1
 40
0.0
176
     1
 40
1.0
176
     1
 90
        0
176
     1
 62
    18
420
        0
176
     1
 90
       50
176
     1
 90
        3
176
     1
 62
     5
420
      255
176
     1
290
     0
176
     1
 90
       50
176
     1
 90
       50
176
     1
 90
       50
176
     1
290
     0
176
     1
 90
       50
176
     1
 62
   256
176
     0
 40
1.0
176
     0
 90
        2
176
     1
  1
strokes_ogs.tif
176
     1
290
     0
176
     1
 40
1.0
176
     1
 40
1.0
176
     1
  0
VISUALSTYLE
  5
36
102
{ACAD_REACTORS
330
29
102
}
330
29
100
AcDbVisualStyle
  2
Thicken
 70
    13
177
     3
291
     1
 70
    58
 90
        2
176
     1
 90
        2
176
     1
 90
        0
176
     1
 90
        0
176
     1
 40
0.6
176
     1
 40
30.0
176
     1
 62
     7
420
 16777215
176
     1
 90
        1
176
     1
 90
        4
176
     1
 62
     7
176
     1
 62
   257
176
     1
 90
        1
176
     1
 90
        1
176
     1
 40
1.0
176
     1
 90
       12
176
     1
 62
     7
176
     1
 40
1.0
176
     1
 90
        1
176
     1
 90
        6
176
     1
 90
        2
176
     1
 62
     7
176
     1
 90
        5
176
     1
 90
        0
176
     1
 90
        0
176
     1
290
     0
176
     1
 90
        1
176
     1
 40
0.0
176
     1
 90
        0
176
     1
290
     0
176
     1
290
     1
176
     1
290
     1
176
     1
290
     0
176
     1
290
     0
176
     1
290
     0
176
     1
290
     0
176
     1
290
     0
176
     1
290
     0
176
     1
 90
       50
176
     1
 40
0.0
176
     1
 40
1.0
176
     1
 90
        0
176
     1
 62
    18
420
        0
176
     1
 90
       50
176
     1
 90
        3
176
     1
 62
     5
420
      255
176
     1
290
     0
176
     1
 90
       50
176
     1
 90
       50
176
     1
 90
       50
176
     1
290
     0
176
     1
 90
       50
176
     1
 62
   256
176
     0
 40
1.0
176
     0
 90
        2
176
     1
  1
strokes_ogs.tif
176
     1
290
     0
176
     1
 40
1.0
176
     1
 40
1.0
176
     1
  0
VISUALSTYLE
  5
30
102
{ACAD_REACTORS
330
29
102
}
330
29
100
AcDbVisualStyle
  2
Wireframe
 70
     5
177
     3
291
     0
 70
    58
 90
        0
176
     1
 90
        2
176
     1
 90
        0
176
     1
 90
        0
176
     1
 40
0.6
176
     1
 40
30.0
176
     1
 62
     7
420
 16777215
176
     1
 90
        1
176
     1
 90
        4
176
     1
 62
     7
176
     1
 62
   257
176
     1
 90
        1
176
     1
 90
        1
176
     1
 40
1.0
176
     1
 90
        0
176
     1
 62
   257
176
     1
 40
1.0
176
     1
 90
        1
176
     1
 90
        6
176
     1
 90
        2
176
     1
 62
     7
176
     1
 90
        3
176
     1
 90
        0
176
     1
 90
        0
176
     1
290
     0
176
     1
 90
        1
176
     1
 40
0.0
176
     1
 90
        0
176
     1
290
     0
176
     1
290
     1
176
     1
290
     1
176
     1
290
     0
176
     1
290
     0
176
     1
290
     0
176
     1
290
     0
176
     1
290
     0
176
     1
290
     0
176
     1
 90
       50
176
     1
 40
0.0
176
     1
 40
1.0
176
     1
 90
        0
176
     1
 62
    18
420
        0
176
     1
 90
       50
176
     1
 90
        3
176
     1
 62
     5
420
      255
176
     1
290
     0
176
     1
 90
       50
176
     1
 90
       50
176
     1
 90
       50
176
     1
290
     0
176
     1
 90
       50
176
     1
 62
   256
176
     0
 40
1.0
176
     0
 90
        2
176
     1
  1
strokes_ogs.tif
176
     1
290
     0
176
     1
 40
1.0
176
     1
 40
1.0
176
     1
  0
VISUALSTYLE
  5
3C
102
{ACAD_REACTORS
330
29
102
}
330
29
100
AcDbVisualStyle
  2
X-Ray
 70
    25
177
     3
291
     0
 70
    58
 90
        2
176
     1
 90
        2
176
     1
 90
        1
176
     1
 90
        1
176
     1
 40
0.5
176
     1
 40
30.0
176
     1
 62
     7
420
 16777215
176
     1
 90
        1
176
     1
 90
        0
176
     1
 62
     7
176
     1
 62
   257
176
     1
 90
        1
176
     1
 90
        1
176
     1
 40
1.0
176
     1
 90
        8
176
     1
 62
     7
176
     1
 40
1.0
176
     1
 90
        1
176
     1
 90
        6
176
     1
 90
        2
176
     1
 62
     7
176
     1
 90
        3
176
     1
 90
        0
176
     1
 90
        0
176
     1
290
     0
176
     1
 90
       13
176
     1
 40
0.0
176
     1
 90
        0
176
     1
290
     0
176
     1
290
     1
176
     1
290
     1
176
     1
290
     0
176
     1
290
     0
176
     1
290
     0
176
     1
290
     0
176
     1
290
     0
176
     1
290
     0
176
     1
 90
       50
176
     1
 40
0.0
176
     1
 40
1.0
176
     1
 90
        0
176
     1
 62
    18
420
        0
176
     1
 90
       50
176
     1
 90
        3
176
     1
 62
     5
420
      255
176
     1
290
     0
176
     1
 90
       50
176
     1
 90
       50
176
     1
 90
       50
176
     1
290
     0
176
     1
 90
       50
176
     1
 62
   256
176
     0
 40
1.0
176
     0
 90
        2
176
     1
  1
strokes_ogs.tif
176
     1
290
     0
176
     1
 40
1.0
176
     1
 40
1.0
176
     1
  0
DICTIONARYVAR
  5
CA
102
{ACAD_REACTORS
330
C5
102
}
330
C5
100
DictionaryVariables
280
     0
  1
1:1
  0
DICTIONARYVAR
  5
C7
102
{ACAD_REACTORS
330
C5
102
}
330
C5
100
DictionaryVariables
280
     0
  1
STANDARD
  0
DICTIONARYVAR
  5
C6
102
{ACAD_REACTORS
330
C5
102
}
330
C5
100
DictionaryVariables
280
     0
  1
STANDARD
  0
DICTIONARYVAR
  5
C8
102
{ACAD_REACTORS
330
C5
102
}
330
C5
100
DictionaryVariables
280
     0
  1
Imperial24
  0
DICTIONARYVAR
  5
C9
102
{ACAD_REACTORS
330
C5
102
}
330
C5
100
DictionaryVariables
280
     0
  1
Imperial24
  0
DICTIONARY
  5
1A
330
19
100
AcDbDictionary
280
     1
281
     1
  3
BUMPTILE
360
1C
  3
DIFFUSETILE
360
1B
  3
OPACITYTILE
360
1F
  3
REFLECTIONTILE
360
1E
  3
REFRACTIONTILE
360
20
  3
SPECULARTILE
360
1D
  0
DICTIONARY
  5
12
330
11
100
AcDbDictionary
280
     1
281
     1
  3
BUMPTILE
360
14
  3
DIFFUSETILE
360
13
  3
OPACITYTILE
360
17
  3
REFLECTIONTILE
360
16
  3
REFRACTIONTILE
360
18
  3
SPECULARTILE
360
15
  0
DICTIONARY
  5
22
330
21
100
AcDbDictionary
280
     1
281
     1
  3
BUMPTILE
360
24
  3
DIFFUSETILE
360
23
  3
OPACITYTILE
360
27
  3
REFLECTIONTILE
360
26
  3
REFRACTIONTILE
360
28
  3
SPECULARTILE
360
25
  0
DICTIONARY
  5
CB
330
65
100
AcDbDictionary
280
     1
281
     1
  3
ACAD_ROUNDTRIP_2008_TABLESTYLE_CELLSTYLEMAP
360
CC
  0
XRECORD
  5
1C
102
{ACAD_REACTORS
330
1A
102
}
330
1A
100
AcDbXrecord
280
     1
270
     1
271
     1
  0
XRECORD
  5
1B
102
{ACAD_REACTORS
330
1A
102
}
330
1A
100
AcDbXrecord
280
     1
270
     1
271
     1
  0
XRECORD
  5
1F
102
{ACAD_REACTORS
330
1A
102
}
330
1A
100
AcDbXrecord
280
     1
270
     1
271
     1
  0
XRECORD
  5
1E
102
{ACAD_REACTORS
330
1A
102
}
330
1A
100
AcDbXrecord
280
     1
270
     1
271
     1
  0
XRECORD
  5
20
102
{ACAD_REACTORS
330
1A
102
}
330
1A
100
AcDbXrecord
280
     1
270
     1
271
     1
  0
XRECORD
  5
1D
102
{ACAD_REACTORS
330
1A
102
}
330
1A
100
AcDbXrecord
280
     1
270
     1
271
     1
  0
XRECORD
  5
14
102
{ACAD_REACTORS
330
12
102
}
330
12
100
AcDbXrecord
280
     1
270
     1
271
     1
  0
XRECORD
  5
13
102
{ACAD_REACTORS
330
12
102
}
330
12
100
AcDbXrecord
280
     1
270
     1
271
     1
  0
XRECORD
  5
17
102
{ACAD_REACTORS
330
12
102
}
330
12
100
AcDbXrecord
280
     1
270
     1
271
     1
  0
XRECORD
  5
16
102
{ACAD_REACTORS
330
12
102
}
330
12
100
AcDbXrecord
280
     1
270
     1
271
     1
  0
XRECORD
  5
18
102
{ACAD_REACTORS
330
12
102
}
330
12
100
AcDbXrecord
280
     1
270
     1
271
     1
  0
XRECORD
  5
15
102
{ACAD_REACTORS
330
12
102
}
330
12
100
AcDbXrecord
280
     1
270
     1
271
     1
  0
XRECORD
  5
24
102
{ACAD_REACTORS
330
22
102
}
330
22
100
AcDbXrecord
280
     1
270
     1
271
     1
  0
XRECORD
  5
23
102
{ACAD_REACTORS
330
22
102
}
330
22
100
AcDbXrecord
280
     1
270
     1
271
     1
  0
XRECORD
  5
27
102
{ACAD_REACTORS
330
22
102
}
330
22
100
AcDbXrecord
280
     1
270
     1
271
     1
  0
XRECORD
  5
26
102
{ACAD_REACTORS
330
22
102
}
330
22
100
AcDbXrecord
280
     1
270
     1
271
     1
  0
XRECORD
  5
28
102
{ACAD_REACTORS
330
22
102
}
330
22
100
AcDbXrecord
280
     1
270
     1
271
     1
  0
XRECORD
  5
25
102
{ACAD_REACTORS
330
22
102
}
330
22
100
AcDbXrecord
280
     1
270
     1
271
     1
  0
CELLSTYLEMAP
  5
CC
102
{ACAD_REACTORS
330
CB
102
}
330
CB
100
AcDbCellStyleMap
 90
        3
300
CELLSTYLE
  1
TABLEFORMAT_BEGIN
 90
        5
170
     1
 91
        0
 92
    32768
 62
   257
 93
        1
300
CONTENTFORMAT
  1
CONTENTFORMAT_BEGIN
 90
        0
 91
        0
 92
      512
 93
        0
300

 40
0.0
140
1.0
 94
        5
 62
     0
340
55
144
0.25
309
CONTENTFORMAT_END
171
     0
 94
        0
309
TABLEFORMAT_END
  1
CELLSTYLE_BEGIN
 90
        1
 91
        1
300
_TITLE
309
CELLSTYLE_END
300
CELLSTYLE
  1
TABLEFORMAT_BEGIN
 90
        5
170
     1
 91
        0
 92
        0
 62
   257
 93
        1
300
CONTENTFORMAT
  1
CONTENTFORMAT_BEGIN
 90
        0
 91
        0
 92
      512
 93
        0
300

 40
0.0
140
1.0
 94
        5
 62
     0
340
55
144
0.18
309
CONTENTFORMAT_END
171
     0
 94
        0
309
TABLEFORMAT_END
  1
CELLSTYLE_BEGIN
 90
        2
 91
        1
300
_HEADER
309
CELLSTYLE_END
300
CELLSTYLE
  1
TABLEFORMAT_BEGIN
 90
        5
170
     1
 91
        0
 92
        0
 62
   257
 93
        1
300
CONTENTFORMAT
  1
CONTENTFORMAT_BEGIN
 90
        0
 91
        0
 92
      512
 93
        0
300

 40
0.0
140
1.0
 94
        2
 62
     0
340
55
144
0.18
309
CONTENTFORMAT_END
171
     0
 94
        0
309
TABLEFORMAT_END
  1
CELLSTYLE_BEGIN
 90
        3
 91
        2
300
_DATA
309
CELLSTYLE_END
  0
ENDSEC
  0
EOF
