<?xml version="1.0" encoding="utf-8"?>
<!-- Generator: Adobe Illustrator 26.2.1, SVG Export Plug-In . SVG Version: 6.00 Build 0)  -->
<svg version="1.1" id="Layer_1" xmlns="http://www.w3.org/2000/svg" xmlns:xlink="http://www.w3.org/1999/xlink" x="0px" y="0px"
	 viewBox="0 0 595.3 841.9" style="enable-background:new 0 0 595.3 841.9;" xml:space="preserve">
<style type="text/css">
	.st0{stroke:#000000;stroke-width:2;stroke-miterlimit:10;}
	.st1{stroke:#000000;stroke-width:4;stroke-miterlimit:10;}
	.st2{stroke:#000000;stroke-width:4;stroke-linejoin:round;stroke-miterlimit:10;}
	.st3{stroke:#000000;stroke-width:4;stroke-linejoin:round;stroke-miterlimit:9.9999;}
	.st4{stroke:#000000;stroke-linejoin:round;stroke-miterlimit:10;}
</style>
<path class="st0" d="M154.2,388.7c11.6,0,20.4,9.2,20.4,20.8s-9.4,21-21,21s-21-9.4-21-21C132.7,397.9,142.7,388.7,154.2,388.7z"/>
<path class="st1" d="M184.4,407.4"/>
<path class="st1" d="M178.5,424.6c4.3,7.3,7.1,14.2,9,19.9c1.4,6.8,2.5,15.9,1.9,26.7c-0.6,11-0.1,10.3-2.3,17c-0.7,0-1.4,0-2.1,0
	c1.9-6.7,2.3-5.6,2.7-16.1c0.4-10.6-0.8-20-2.2-26.8c-1.4-4.7-3.9-11.3-7.5-17.6c-3.6-6.3-8.3-10.5-11.6-14.1c1-0.7,1.9-1.4,2.9-2
	C172.3,415.1,175.5,419.5,178.5,424.6z"/>
<polygon class="st2" points="152.5,460.4 183.5,445.1 148.7,445.1 148.7,444.3 183.4,444.3 152.5,459.7 "/>
<polygon class="st3" points="213.1,536.1 192.6,535.8 186.4,487.6 186.8,487.2 193.1,535.5 213.5,535.6 "/>
<polygon class="st3" points="184.9,535.5 169,518.4 186.9,486.2 187.3,486.6 169.4,518.9 185.3,535.9 "/>
<path class="st0" d="M104.4,402.8c0,11.6-9.4,21-21,21s-21-9.4-21-21s8.8-20.8,20.4-20.8S104.4,391.2,104.4,402.8z"/>
<path class="st1" d="M61.1,409.4"/>
<path class="st2" d="M75.1,414c1,0.7,1.9,1.4,2.9,2c-3.3,3.6-8.1,7.9-11.6,14.1c-3.6,6.4-6.1,12.9-7.5,17.6
	c-1.4,6.8-2.6,16.3-2.2,26.8c0.4,10.6,0.9,8.7,2.8,15.4c-0.7,0-1.5,0.7-2.2,0.7c-2.2-6.6-1.7-6-2.3-17c-0.6-10.8,0.5-20,1.9-26.7
	c1.9-5.7,4.7-12.6,9-19.9C69,421.9,72.2,417.6,75.1,414z"/>
<polygon class="st2" points="72.7,464.2 62.2,446.3 98.2,455.2 98.2,455.9 62.1,447.1 72.7,464.9 "/>
<polygon class="st3" points="32.1,537.7 45.3,514.8 58.7,489.2 59.2,489.6 45.7,515.2 32.5,538.1 "/>
<polygon class="st3" points="60.2,538 62.4,518.6 58.3,488.6 58.7,488.2 62.8,518.1 60.6,537.5 "/>
<rect x="99" y="453.2" transform="matrix(0.7856 0.6187 -0.6187 0.7856 302.3301 35.1647)" class="st4" width="2.9" height="1.3"/>
<polygon class="st4" points="104.5,448.8 104.9,447.4 98.3,455.8 98.9,456.3 "/>
</svg>
