<?xml version="1.0" encoding="utf-8"?>
<!-- Generator: Adobe Illustrator 26.2.1, SVG Export Plug-In . SVG Version: 6.00 Build 0)  -->
<svg version="1.1" xmlns="http://www.w3.org/2000/svg" xmlns:xlink="http://www.w3.org/1999/xlink" x="0px" y="0px"
	 viewBox="0 0 595.3 841.9" style="enable-background:new 0 0 595.3 841.9;" xml:space="preserve">
<style type="text/css">
	.st0{display:none;}
	.st1{fill:#FFFFFF;}
</style>
<g id="Layer_1" class="st0">
	
		<image style="display:inline;overflow:visible;" width="324" height="595" xlink:href="46442B4D.jpg"  transform="matrix(1 0 0 1 144 131)">
	</image>
</g>
<g id="Layer_2">
	<g>
		<path d="M456.5,550.5c0,0-13-44-66.5-68.5l-0.8,6.9c3.5-35.2,5.5-66.1,3.3-77.4c0,0,13-158-93.5-265.5c0,0-92,73-88,275
			c0,0,3,29.9,7.9,71c-1.8,0.7-47.7,19.6-59.4,76.5c0,0,0,72,45,140l35-72l132-4l42,64C413.5,696.5,463.5,611.5,456.5,550.5z
			 M300,228.5c17.4,0,31.5,14.1,31.5,31.5s-14.1,31.5-31.5,31.5s-31.5-14.1-31.5-31.5S282.6,228.5,300,228.5z M302,461.5
			c-17.4,0-31.5-14.1-31.5-31.5s14.1-31.5,31.5-31.5s31.5,14.1,31.5,31.5S319.4,461.5,302,461.5z M302,377.5
			c-17.4,0-31.5-14.1-31.5-31.5s14.1-31.5,31.5-31.5s31.5,14.1,31.5,31.5S319.4,377.5,302,377.5z"/>
		<circle class="st1" cx="300" cy="260" r="31.5"/>
		<circle class="st1" cx="302" cy="346" r="31.5"/>
		<circle class="st1" cx="302" cy="430" r="31.5"/>
	</g>
</g>
</svg>
